EBGaramond08-Italic.sfdir
StartChar: exclam
Encoding: 33 33 3
Width: 203
Flags: W
HStem: -13 109<49.553 136.937> 608 20G<139.5 181.675>
VStem: 35 115<0.631403 81.9318> 92 116<453.44 590.676>
LayerCount: 2
Fore
SplineSet
95 96 m 0xe0
 124.52 96 150 73.5195 150 44 c 0
 150 11.7236 122.276 -13 90 -13 c 0
 61.5303 -13 35 6.53027 35 35 c 0
 35 68.3691 61.6309 96 95 96 c 0xe0
169 628 m 0
 194.35 628 208 600 208 576 c 0
 208 516 134 225 114 225 c 0
 97 225 96.0049 261.088 94 284 c 0
 91.124 316.874 92 453 92 487 c 0xd0
 92 549 110 628 169 628 c 0
EndSplineSet
Validated: 33
Substitution2: "sups subtable" exclam.sups
Substitution2: "sinf subtable" exclam.sinf
Substitution2: "ordn subtable" exclam.ordn
Substitution2: "subs subtable" exclam.subs
EndChar
StartChar: quotedbl
Encoding: 2 34 4
Width: 309
Flags: MW
LayerCount: 2
Fore
SplineSet
208 620 m 0
 212.788 633.155 219 648 227 655 c 0
 243 668 263 676 279 676 c 0
 289 676 293 661 293 644 c 0
 293 625 227.293 502.772 207 469 c 0
 200.305 457.856 193 444 188 444 c 0
 183 444 180.576 458.01 181 467 c 0
 181.707 481.983 201.714 602.729 208 620 c 0
76 620 m 0
 80.7883 633.156 87 648 95 655 c 0
 111 668 131 676 147 676 c 0
 157 676 161 661 161 644 c 0
 161 625 95.2925 502.772 75 469 c 0
 68.3045 457.857 61 444 56 444 c 0
 51 444 48.576 458.01 49 467 c 0
 49.7066 481.983 69.7137 602.728 76 620 c 0
EndSplineSet
Validated: 1
Substitution2: "sups subtable" quotedbl.sups
Substitution2: "sinf subtable" quotedbl.sinf
Substitution2: "ordn subtable" quotedbl.ordn
Substitution2: "subs subtable" quotedbl.subs
EndChar
StartChar: numbersign
Encoding: 3 35 5
Width: 680
Flags: MW
LayerCount: 2
Fore
SplineSet
290 529 m 2
 301 558 321 592 348 592 c 0
 380 592 362 553 338 490 c 2
 312 420 l 1
 438 420 l 1
 479 529 l 2
 490 558 509 592 528 592 c 0
 559 592 551 553 527 490 c 2
 501 420 l 1
 577 420 l 2
 600 420 646 410 646 386 c 0
 646 372 618 355 562 355 c 2
 476 355 l 1
 419 203 l 1
 508 203 l 2
 531 203 577 193 577 169 c 0
 577 155 549 138 493 138 c 2
 394 138 l 1
 353 28 l 2
 342 -1 324 -34 293 -34 c 0
 275 -34 278 -4 305 67 c 2
 332 138 l 1
 205 138 l 1
 164 28 l 2
 153 -1 135 -34 113 -34 c 0
 95 -34 89 -4 116 67 c 2
 143 138 l 1
 90 138 l 2
 61 138 20 149 20 174 c 0
 20 188 47 203 104 203 c 2
 167 203 l 1
 224 355 l 1
 159 355 l 2
 130 355 89 366 89 391 c 0
 89 405 116 420 173 420 c 2
 249 420 l 1
 290 529 l 2
287 355 m 1
 230 203 l 1
 356 203 l 1
 413 355 l 1
 287 355 l 1
EndSplineSet
Validated: 33
Substitution2: "sups subtable" numbersign.sups
Substitution2: "sinf subtable" numbersign.sinf
Substitution2: "ordn subtable" numbersign.ordn
Substitution2: "subs subtable" numbersign.subs
EndChar
StartChar: percent
Encoding: 5 37 7
Width: 763
Flags: MW
LayerCount: 2
Fore
SplineSet
606 570 m 2
 184 10 l 2
 172 -6 156 -18 139 -18 c 0
 126 -18 123 14 136 31 c 2
 530 551 l 2
 550 577 571 604 596 604 c 0
 613 604 617 584 606 570 c 2
586 272 m 0
 659 272 731 227 731 154 c 0
 731 71 669 -1 586 -1 c 0
 508 -1 449 65 449 143 c 0
 449 216 513 272 586 272 c 0
506 135 m 0
 506 88 544 51 591 51 c 0
 640 51 676 95 676 144 c 0
 676 190 632 219 586 219 c 0
 541 219 506 180 506 135 c 0
178 620 m 0
 251 620 323 575 323 502 c 0
 323 419 261 347 178 347 c 0
 100 347 41 413 41 491 c 0
 41 564 105 620 178 620 c 0
98 483 m 0
 98 436 136 399 183 399 c 0
 232 399 268 443 268 492 c 0
 268 538 224 567 178 567 c 0
 133 567 98 528 98 483 c 0
EndSplineSet
Validated: 33
Substitution2: "sups subtable" percent.sups
Substitution2: "sinf subtable" percent.sinf
Substitution2: "ordn subtable" percent.ordn
Substitution2: "subs subtable" percent.subs
EndChar
StartChar: ampersand
Encoding: 6 38 8
Width: 830
Flags: MW
LayerCount: 2
Fore
SplineSet
165 116 m 2
 222 258 l 2
 238.784 299.753 230 362 197 362 c 0
 149 362 121 288 121 236 c 0
 121 200 129 157 143 125 c 0
 151 108 161 105 165 116 c 2
214 39 m 0
 240 20 272 8 312 8 c 0
 466 8 580 143 580 297 c 0
 580 333 575 369 562 380 c 0
 549 391 530 399 508 399 c 0
 487 399 457 372 457 347 c 0
 457 325 468 313 468 289 c 0
 468 267 445 250 421 250 c 0
 390 250 377 282 377 312 c 0
 377 364 424 409 474 447 c 0
 502 468 525 482 560 482 c 0
 619 482 682 420 751 420 c 0
 769 420 778 437 778 455 c 0
 778 468 784 490 799 490 c 0
 822 490 840 451 840 426 c 0
 840 374 796 327 743 327 c 0
 711 327 648 355 636 355 c 0
 621 355 634 321 634 279 c 0
 634 84 468 -60 275 -60 c 0
 146 -60 48 81 48 182 c 0
 48 305 152 434 232 434 c 0
 277 434 283.429 404.073 289 418 c 2
 357 588 l 2
 364.427 606.57 333 640 333 660 c 0
 333 684 368 703 398 703 c 0
 424 703 433 678 433 654 c 0
 433 636 416 603 387 537 c 2
 196 91 l 2
 188 74 188 58 214 39 c 0
EndSplineSet
Validated: 33
Substitution2: "sups subtable" ampersand.sups
Substitution2: "sinf subtable" ampersand.sinf
Substitution2: "ordn subtable" ampersand.ordn
Substitution2: "subs subtable" ampersand.subs
Substitution2: "ampersand_alt subtable" ampersand.01
EndChar
StartChar: quotesingle
Encoding: 7 39 9
Width: 177
Flags: MW
LayerCount: 2
Fore
SplineSet
76 620 m 0
 80.7883 633.156 87 648 95 655 c 0
 111 668 131 676 147 676 c 0
 157 676 161 661 161 644 c 0
 161 625 95.2925 502.772 75 469 c 0
 68.3045 457.857 61 444 56 444 c 0
 51 444 48.576 458.01 49 467 c 0
 49.7066 481.983 69.7137 602.728 76 620 c 0
EndSplineSet
Validated: 1
Substitution2: "sups subtable" quotesingle.sups
Substitution2: "sinf subtable" quotesingle.sinf
Substitution2: "ordn subtable" quotesingle.ordn
Substitution2: "subs subtable" quotesingle.subs
EndChar
StartChar: parenleft
Encoding: 8 40 10
Width: 341
Flags: MW
LayerCount: 2
Fore
SplineSet
415 715 m 0
 431 715 441 704 441 690 c 0
 441 677 418.386 656.935 375 628 c 0
 261.022 551.986 118 361 118 134 c 0
 118 44 143.394 -52.071 183 -134 c 0
 186.482 -141.203 187 -149 187 -159 c 0
 187 -167 180 -175 168 -175 c 0
 144 -175 111.962 -116.625 76 1 c 0
 57.5806 61.2472 50 116 50 176 c 0
 50 372 216.994 620.881 369 697 c 0
 385.488 705.257 400 715 415 715 c 0
EndSplineSet
Validated: 1
Substitution2: "sups subtable" parenleft.sups
Substitution2: "sinf subtable" parenleft.sinf
Substitution2: "ordn subtable" parenleft.ordn
Substitution2: "subs subtable" parenleft.subs
EndChar
StartChar: parenright
Encoding: 9 41 11
Width: 341
Flags: MW
LayerCount: 2
Fore
SplineSet
-72 -175 m 0
 -91 -175 -101 -165.96 -101 -150 c 0
 -101 -133 -69.14 -115.48 -34 -89 c 0
 84.5894 0.363507 223 181 223 405 c 0
 223 495 199.772 584.421 158 674 c 0
 155.887 678.532 154 683 154 688 c 0
 153.024 702.617 153 715 173 715 c 0
 197 715 236.587 640.083 265 539 c 0
 284.213 470.649 291 424.309 291 363 c 0
 291 156.064 119.382 -79.6358 -28 -158 c 0
 -44.2816 -166.657 -57 -175 -72 -175 c 0
EndSplineSet
Validated: 33
Substitution2: "sups subtable" parenright.sups
Substitution2: "sinf subtable" parenright.sinf
Substitution2: "ordn subtable" parenright.ordn
Substitution2: "subs subtable" parenright.subs
EndChar
StartChar: comma
Encoding: 12 44 14
Width: 250
Flags: MW
LayerCount: 2
Fore
SplineSet
50 97 m 4
 50 121 78 137 113 137 c 4
 160.98 137 200 97.9844 200 50 c 4
 200 -53.4443 69 -133 8 -133 c 4
 -2 -133 -15 -131 -15 -121 c 4
 -15 -111 -8.52466 -108.891 10 -99 c 4
 61.1634 -71.6813 106 -44 106 12 c 4
 106 50 50 61 50 97 c 4
EndSplineSet
Validated: 1
Substitution2: "sups subtable" comma.sups
Substitution2: "sinf subtable" comma.sinf
Substitution2: "ordn subtable" comma.ordn
Substitution2: "subs subtable" comma.subs
EndChar
StartChar: hyphen
Encoding: 13 45 197
Width: 386
Flags: MW
LayerCount: 2
Fore
SplineSet
320 271 m 2
 334 272 351 266 351 243 c 0
 351 220 341 195 318 194 c 2
 99 176 l 2
 65 173 45 175 45 195 c 0
 45 214 56 249 82 252 c 2
 320 271 l 2
EndSplineSet
Validated: 33
Substitution2: "sups subtable" hyphen.sups
Substitution2: "sinf subtable" hyphen.sinf
Substitution2: "ordn subtable" hyphen.ordn
Substitution2: "subs subtable" hyphen.subs
Substitution2: "'case' Case-Sensitive Forms lookup 6 subtable" hyphen.cap
EndChar
StartChar: period
Encoding: 14 46 15
Width: 229
Flags: MW
LayerCount: 2
Fore
SplineSet
114 106 m 0
 147.369 106 174 78.3691 174 45 c 0
 174 9.14941 144.851 -20 109 -20 c 0
 76.7051 -20 48 3.70508 48 36 c 0
 48 73.5215 76.4785 106 114 106 c 0
EndSplineSet
Validated: 1
Substitution2: "sups subtable" period.sups
Substitution2: "sinf subtable" period.sinf
Substitution2: "ordn subtable" period.ordn
Substitution2: "subs subtable" period.subs
EndChar
StartChar: slash
Encoding: 15 47 16
Width: 237
Flags: MW
LayerCount: 2
Fore
SplineSet
342 667 m 6
 43 -18 l 6
 35 -36 24 -46 7 -46 c 4
 -12 -46 -5 -17 4 3 c 6
 282 648 l 6
 299 687 305 701 330 701 c 4
 347 701 349 683 342 667 c 6
EndSplineSet
Validated: 33
Substitution2: "frac_slash subtable" fraction
Substitution2: "sups subtable" slash.sups
Substitution2: "sinf subtable" slash.sinf
Substitution2: "ordn subtable" slash.ordn
Substitution2: "subs subtable" slash.subs
EndChar
StartChar: zero
Encoding: 48 48 17
Width: 390
Flags: W
HStem: -20 56<122.198 234.665> 372 58<198.829 291.249>
VStem: 24 80<54.2527 230.786> 314 80<151.222 349.593>
LayerCount: 2
Fore
SplineSet
255 430 m 0
 342.16 430 394 343 394 255 c 0
 394 127 286 -20 160 -20 c 0
 83 -20 24 45.32 24 122 c 0
 24 262 120 430 255 430 c 0
104 109 m 0
 104 71 129 36 167 36 c 0
 275 36 314 164 314 274 c 0
 314 320 296 372 250 372 c 0
 171 372 104 225 104 109 c 0
EndSplineSet
Validated: 1
Substitution2: "'tnum' Tabular Numbers lookup 44 subtable" zero.taboldstyle
Substitution2: "'lnum' Lining Figures lookup 42 subtable" zero.lnum
Substitution2: "Single Substitution lookup 41 subtable" zero.ordn
Substitution2: "Single Substitution lookup 40 subtable" zero.subs
Substitution2: "sups subtable" zero.sups
Substitution2: "sinf subtable" zero.sinf
Substitution2: "ordn subtable" zero.ordn
Substitution2: "subs subtable" zero.subs
EndChar
StartChar: one
Encoding: 49 49 18
Width: 346
Flags: W
HStem: -2 46<-8.74799 61.5556 167.546 227.459> 396 35<73.0213 128.597 252.764 316.97>
VStem: -11 328
LayerCount: 2
Fore
SplineSet
168 129 m 2
 156.503 85.4932 164.447 53.209 187 45 c 0
 214.251 35.0811 229 30 229 15 c 0
 229 5 214 -2 198 -2 c 0
 186 -2 152 4 104 4 c 0
 57 4 37 -2 22 -2 c 0
 6 -2 -11 5 -11 15 c 0
 -11 30 11.2324 33.6729 34 44 c 0
 66.7842 58.8721 76.665 88.292 87 129 c 2
 136 322 l 2
 147.073 365.616 140.985 381.388 89 396 c 0
 80.3359 398.436 73 404 73 413 c 0
 73 425 93 431 108 431 c 0
 147 431 167 426 203 426 c 0
 238 426 248 431 282 431 c 0
 297 431 317 425 317 413 c 0
 317 404 306.664 398.436 298 396 c 0
 241.201 380.034 231.773 370.341 219 322 c 2
 168 129 l 2
EndSplineSet
Validated: 33
Substitution2: "'tnum' Tabular Numbers lookup 44 subtable" one.taboldstyle
Substitution2: "'lnum' Lining Figures lookup 42 subtable" one.lnum
Substitution2: "Single Substitution lookup 41 subtable" one.ordn
Substitution2: "Single Substitution lookup 40 subtable" one.subs
Substitution2: "sups subtable" one.sups
Substitution2: "sinf subtable" one.sinf
Substitution2: "ordn subtable" one.ordn
Substitution2: "subs subtable" one.subs
EndChar
StartChar: two
Encoding: 50 50 19
Width: 382
Flags: W
HStem: -1 78<162.659 326.196> 355 74<180.601 265.893>
VStem: 275 102<267.142 345.564>
LayerCount: 2
Fore
SplineSet
260 429 m 0
 322 429 377 387 377 332 c 0
 377 252 267.032 162.844 163 90 c 0
 155.628 84.8378 155 77 167 77 c 2
 281 77 l 2
 327 77 370 153 381 153 c 0
 391 153 391 144 391 139 c 0
 391 124 359.5 46.3105 342 16 c 0
 332.5 -0.454102 333 -1 315 -1 c 2
 54 -1 l 2
 39 -1 32 8 32 19 c 0
 32 43 79.726 71.5504 147 128 c 0
 205.755 177.301 275 251 275 300 c 0
 275 331 256 355 224 355 c 0
 185 355 149 315 134 315 c 0
 120 315 110 324 110 338 c 0
 110 365 187 429 260 429 c 0
EndSplineSet
Validated: 1
Substitution2: "'tnum' Tabular Numbers lookup 44 subtable" two.taboldstyle
Substitution2: "'lnum' Lining Figures lookup 42 subtable" two.lnum
Substitution2: "Single Substitution lookup 41 subtable" two.ordn
Substitution2: "Single Substitution lookup 40 subtable" two.subs
Substitution2: "sups subtable" two.sups
Substitution2: "sinf subtable" two.sinf
Substitution2: "ordn subtable" two.ordn
Substitution2: "subs subtable" two.subs
EndChar
StartChar: three
Encoding: 19 51 20
Width: 291
Flags: MW
LayerCount: 2
Fore
SplineSet
208 430 m 0
 271 430 311 371 311 308 c 0
 311 264 231.728 185.883 208 173 c 0
 196.18 166.582 197.808 164.736 206 159 c 0
 242.862 133.189 262 102.51 262 58 c 0
 262 -95 69 -217 -17 -217 c 0
 -36 -217 -52 -198 -52 -179 c 0
 -52 -156 -31.999 -133.186 -10 -133 c 0
 2 -132.898 17 -143 35 -143 c 0
 89 -143 173 -40 173 42 c 0
 173 69 148 97 121 97 c 0
 93 97 71 75 64 75 c 0
 52 75 41 84 41 96 c 0
 41 110 91.3467 146.544 127 174 c 0
 166.614 204.507 224 240.054 224 303 c 0
 224 337 209 373 176 373 c 0
 134 373 90 320 84 320 c 0
 67 320 63 331 63 341 c 0
 63 372 149 430 208 430 c 0
EndSplineSet
Validated: 33
Substitution2: "'tnum' Tabular Numbers lookup 44 subtable" three.taboldstyle
Substitution2: "'lnum' Lining Figures lookup 42 subtable" three.lnum
Substitution2: "Single Substitution lookup 41 subtable" three.ordn
Substitution2: "Single Substitution lookup 40 subtable" three.subs
Substitution2: "sups subtable" three.sups
Substitution2: "sinf subtable" three.sinf
Substitution2: "ordn subtable" three.ordn
Substitution2: "subs subtable" three.subs
EndChar
StartChar: four
Encoding: 20 52 21
Width: 585
Flags: MW
LayerCount: 2
Fore
SplineSet
420 405 m 2
 426 410 458 430 480 430 c 0
 489 430 493.801 423.054 490 409 c 2
 412.235 121.49 l 1
 517 136 l 2
 531.987 138.076 549 133 549 122 c 0
 549 110 535.597 74.2031 511 71 c 2
 394.474 55.8246 l 1
 348 -116 l 2
 338.198 -152.237 306 -160 270 -160 c 0
 258 -160 254.228 -139.546 258 -126 c 2
 306.045 46.5264 l 1
 81 15 l 2
 52.0098 10.9385 49 31 49 41 c 0
 49 57 65 85 102 117 c 1
 420 405 l 2
324.127 111.455 m 1
 368 269 l 2
 372.571 285.374 362.071 288.147 347 275 c 2
 144 98 l 2
 136.462 91.4277 144.095 84.1973 156 86 c 2
 324.127 111.455 l 1
EndSplineSet
Validated: 33
Substitution2: "'tnum' Tabular Numbers lookup 44 subtable" four.taboldstyle
Substitution2: "'lnum' Lining Figures lookup 42 subtable" four.lnum
Substitution2: "Single Substitution lookup 41 subtable" four.ordn
Substitution2: "Single Substitution lookup 40 subtable" four.subs
Substitution2: "sups subtable" four.sups
Substitution2: "sinf subtable" four.sinf
Substitution2: "ordn subtable" four.ordn
Substitution2: "subs subtable" four.subs
EndChar
StartChar: five
Encoding: 53 53 22
Width: 243
Flags: W
HStem: -162 48<-32.2211 60.9503> 345 85<199 295.496>
VStem: 40 81<248.053 308.551> 121 84<-11.1339 141.885>
LayerCount: 2
Fore
SplineSet
284 430 m 2xe0
 307.958 431.423 312.339 420.65 310 413 c 2
 295 364 l 2
 289.737 346.787 280 345 263 345 c 0
 248.68 345 193 359 169 359 c 0
 153 359 121 327 121 308 c 0xe0
 121 299 128.869 279.107 133 270 c 2
 191 142 l 2
 200.501 121.054 205 102 205 82 c 0
 205 -35 91 -162 -3 -162 c 0
 -47 -162 -67 -145.2 -67 -114 c 0
 -67 -100.211 -59 -89 -42 -89 c 0
 -28 -89 -16 -114 15 -114 c 0
 60 -114 121 -42 121 57 c 0xd0
 121 99 94.8986 163.283 47 243 c 0
 41.3346 252.429 40 256 40 264 c 0
 40 282 62.745 314.247 101 354 c 0
 150.925 405.88 179.037 423.779 199 425 c 2
 284 430 l 2xe0
EndSplineSet
Validated: 1
Substitution2: "'tnum' Tabular Numbers lookup 44 subtable" five.taboldstyle
Substitution2: "'lnum' Lining Figures lookup 42 subtable" five.lnum
Substitution2: "Single Substitution lookup 41 subtable" five.ordn
Substitution2: "Single Substitution lookup 40 subtable" five.subs
Substitution2: "sups subtable" five.sups
Substitution2: "sinf subtable" five.sinf
Substitution2: "ordn subtable" five.ordn
Substitution2: "subs subtable" five.subs
EndChar
StartChar: six
Encoding: 54 54 23
Width: 390
Flags: W
HStem: -20 48<113.736 199.786> 342 46<238.277 284.817> 579 44<431.567 499.85>
VStem: 22 80<36.7851 211.121> 294 80<160.902 337.33>
LayerCount: 2
Fore
SplineSet
259 342 m 0
 169 342 102 198 102 112 c 0
 102 67 112 28 148 28 c 0
 223 28 294 155 294 263 c 0
 294 300 286 342 259 342 c 0
22 108 m 0
 22 310 300 623 486 623 c 0
 499 623 502 617 502 611 c 0
 502 593 485.914 585.156 469 579 c 0
 398.523 553.348 266.647 443.751 244 412 c 0
 224.256 384.32 230.193 378.041 240 380 c 0
 248.825 381.764 272 388 282 388 c 0
 338 388 374 332 374 279 c 0
 374 126 266 -20 119 -20 c 0
 64 -20 22 27 22 108 c 0
EndSplineSet
Validated: 33
Substitution2: "'tnum' Tabular Numbers lookup 44 subtable" six.taboldstyle
Substitution2: "'lnum' Lining Figures lookup 42 subtable" six.lnum
Substitution2: "Single Substitution lookup 41 subtable" six.ordn
Substitution2: "Single Substitution lookup 40 subtable" six.subs
Substitution2: "sups subtable" six.sups
Substitution2: "sinf subtable" six.sinf
Substitution2: "ordn subtable" six.ordn
Substitution2: "subs subtable" six.subs
EndChar
StartChar: seven
Encoding: 55 55 24
Width: 392
Flags: W
HStem: 343 79<89.4686 312.003>
LayerCount: 2
Fore
SplineSet
312 326 m 2
 321.154 339.122 312 343 293 343 c 2
 152 343 l 2
 131 343 99.4423 334.134 86 318 c 0
 70.6374 299.561 56 289 46 289 c 0
 34 289 26 296 26 309 c 0
 26 327 87 404 94 416 c 0
 99 425 103 427 114 427 c 0
 121 427 158.001 422.209 182 422 c 2
 309 422 l 2
 384 422 396 428 412 428 c 0
 418 428 426 416 426 405 c 0
 426 395 396.104 362.926 383 344 c 2
 45 -145 l 2
 36.791 -156.855 21 -165 12 -165 c 0
 0 -165 -4 -157 -4 -152 c 0
 -4 -147 -7.02539 -129.985 11 -105 c 2
 312 326 l 2
EndSplineSet
Validated: 33
Substitution2: "'tnum' Tabular Numbers lookup 44 subtable" seven.taboldstyle
Substitution2: "'lnum' Lining Figures lookup 42 subtable" seven.lnum
Substitution2: "Single Substitution lookup 41 subtable" seven.ordn
Substitution2: "Single Substitution lookup 40 subtable" seven.subs
Substitution2: "sups subtable" seven.sups
Substitution2: "sinf subtable" seven.sinf
Substitution2: "ordn subtable" seven.ordn
Substitution2: "subs subtable" seven.subs
EndChar
StartChar: eight
Encoding: 56 56 25
Width: 341
Flags: W
HStem: -20 48<129.443 218.328> 538 44<263.154 340.689>
VStem: 30 80<46.2507 161.17> 160 72<342.042 494.486> 242 85<69.9338 215.463> 360 76<404.863 519.441>
LayerCount: 2
Fore
SplineSet
360 449 m 0
 360 491 342 538 301 538 c 0
 261 538 232 472 232 428 c 0
 232 399 244 363 257 335 c 2
 263 322 l 1
 273 328 l 2
 317 356 360 395 360 449 c 0
110 116 m 0
 110 76 128 28 168 28 c 0
 208 28 242 51 242 113 c 0
 242 158 232 190 212 236 c 2
 207 247 l 1
 190 236 l 2
 144 207 110 171 110 116 c 0
278 290 m 1
 284 276 l 2
 307 226 327 190 327 134 c 0
 327 40 202 -20 133 -20 c 0
 70 -20 30 34 30 94 c 0
 30 172 108 223 184 272 c 2
 194 278 l 1
 186 297 l 2
 172 331 160 375 160 414 c 0
 160 514 248 582 335 582 c 0
 393 582 436 531 436 473 c 0
 436 393 356 338 288 296 c 2
 278 290 l 1
EndSplineSet
Validated: 1
Substitution2: "'tnum' Tabular Numbers lookup 44 subtable" eight.taboldstyle
Substitution2: "'lnum' Lining Figures lookup 42 subtable" eight.lnum
Substitution2: "Single Substitution lookup 41 subtable" eight.ordn
Substitution2: "Single Substitution lookup 40 subtable" eight.subs
Substitution2: "sups subtable" eight.sups
Substitution2: "sinf subtable" eight.sinf
Substitution2: "ordn subtable" eight.ordn
Substitution2: "subs subtable" eight.subs
EndChar
StartChar: nine
Encoding: 25 57 26
Width: 390
Flags: MW
LayerCount: 2
Fore
SplineSet
169 63 m 0
 263 63 300 146 300 246 c 0
 300 316 279 385 244 385 c 0
 175 385 118 263 118 165 c 0
 118 120 131 63 169 63 c 0
385 265 m 0
 385 25 180 -213 28 -213 c 0
 24 -213 18 -212 18 -205 c 0
 18 -193 32.3226 -180.34 48.5 -171 c 0
 159.351 -107 210.054 -33.9972 243 40 c 0
 247.474 50.049 246.251 52.3486 236.5 45 c 0
 225.319 36.5742 185 15 126 15 c 0
 70 15 33 89 33 144 c 0
 33 291 139 430 266 430 c 0
 334 430 385 342.774 385 265 c 0
EndSplineSet
Validated: 1
Substitution2: "'tnum' Tabular Numbers lookup 44 subtable" nine.taboldstyle
Substitution2: "'lnum' Lining Figures lookup 42 subtable" nine.lnum
Substitution2: "Single Substitution lookup 41 subtable" nine.ordn
Substitution2: "Single Substitution lookup 40 subtable" nine.subs
Substitution2: "sups subtable" nine.sups
Substitution2: "sinf subtable" nine.sinf
Substitution2: "ordn subtable" nine.ordn
Substitution2: "subs subtable" nine.subs
EndChar
StartChar: colon
Encoding: 58 58 27
Width: 341
Flags: W
HStem: -20 126<62.9294 153.098> 274 126<119.93 210.098>
VStem: 44 126<-3.0974 87.4166> 101 126<290.902 381.416>
LayerCount: 2
Fore
SplineSet
167 400 m 0xd0
 200.369 400 227 372.369 227 339 c 0
 227 303.149 197.851 274 162 274 c 0
 129.705 274 101 297.705 101 330 c 0
 101 367.521 129.479 400 167 400 c 0xd0
110 106 m 0
 143.369 106 170 78.3691 170 45 c 0
 170 9.14941 140.851 -20 105 -20 c 0
 72.7051 -20 44 3.70508 44 36 c 0xe0
 44 73.5215 72.4785 106 110 106 c 0
EndSplineSet
Validated: 1
Substitution2: "sups subtable" colon.sups
Substitution2: "sinf subtable" colon.sinf
Substitution2: "ordn subtable" colon.ordn
Substitution2: "subs subtable" colon.subs
EndChar
StartChar: semicolon
Encoding: 27 59 198
Width: 263
Flags: MW
LayerCount: 2
Fore
SplineSet
45 93 m 4
 45 117 70 137 105 137 c 4
 153 137 173 98 173 50 c 4
 173 -53 60 -125 -1 -125 c 4
 -11 -125 -24 -123 -24 -113 c 4
 -24 -103 -18 -99 1 -89 c 4
 52 -62 87 -44 87 12 c 4
 87 50 45 57 45 93 c 4
163 400 m 4
 196 400 223 372 223 339 c 4
 223 303 194 274 158 274 c 4
 126 274 97 298 97 330 c 4
 97 368 125 400 163 400 c 4
EndSplineSet
Validated: 1
Substitution2: "sups subtable" semicolon.sups
Substitution2: "sinf subtable" semicolon.sinf
Substitution2: "ordn subtable" semicolon.ordn
Substitution2: "subs subtable" semicolon.subs
EndChar
StartChar: less
Encoding: 28 60 28
Width: 578
Flags: MW
LayerCount: 2
Fore
SplineSet
136 210 m 2
 502 44 l 2
 521 35 528 -3 528 -12 c 0
 528 -17 523 -25 517 -25 c 0
 516 -25 515 -24 514 -24 c 2
 85 176 l 2
 68 184 44 197 44 203 c 0
 44 212 57 240 77 249 c 2
 514 449 l 2
 515 449 516 450 517 450 c 0
 523 450 527 446 527 440 c 0
 527 428 514 390 494 381 c 2
 135 219 l 2
 130 217 131 212 136 210 c 2
EndSplineSet
Validated: 1
Substitution2: "sups subtable" less.sups
Substitution2: "sinf subtable" less.sinf
Substitution2: "ordn subtable" less.ordn
Substitution2: "subs subtable" less.subs
EndChar
StartChar: greater
Encoding: 30 62 30
Width: 578
Flags: MW
LayerCount: 2
Fore
SplineSet
442 215 m 6
 76 381 l 6
 57 390 50 428 50 437 c 4
 50 442 55 450 61 450 c 4
 62 450 63 449 64 449 c 6
 493 249 l 6
 510 241 534 228 534 222 c 4
 534 213 521 185 501 176 c 6
 64 -24 l 6
 63 -24 62 -25 61 -25 c 4
 55 -25 51 -21 51 -15 c 4
 51 -3 64 35 84 44 c 6
 443 206 l 6
 448 208 447 213 442 215 c 6
EndSplineSet
Validated: 1
Substitution2: "sups subtable" greater.sups
Substitution2: "sinf subtable" greater.sinf
Substitution2: "ordn subtable" greater.ordn
Substitution2: "subs subtable" greater.subs
EndChar
StartChar: question
Encoding: 31 63 31
Width: 341
Flags: MW
LayerCount: 2
Fore
SplineSet
225 628 m 0
 300 628 355 560 355 485 c 0
 355 439 302.35 372.53 209 329 c 0
 172.884 312.159 141 293.27 141 258 c 0
 141 235.29 169 222 169 202 c 0
 169 184 155 174 139 174 c 0
 116.24 174 63 210 63 253 c 0
 63 331 130.87 377.5 207 413 c 0
 248.69 432.44 283 470 283 518 c 0
 283 553 247 571 213 571 c 0
 192 571 166 547 152 547 c 0
 127 547 114 561 114 581 c 0
 114 601 177 628 225 628 c 0
82 84 m 0
 110.968 84 136 61.9678 136 33 c 0
 136 3.49121 111.509 -20 82 -20 c 0
 52.4912 -20 28 3.49121 28 33 c 0
 28 61.9678 53.0322 84 82 84 c 0
EndSplineSet
Validated: 1
Substitution2: "sups subtable" question.sups
Substitution2: "sinf subtable" question.sinf
Substitution2: "ordn subtable" question.ordn
Substitution2: "subs subtable" question.subs
EndChar
StartChar: at
Encoding: 32 64 32
Width: 796
Flags: MW
LayerCount: 2
Fore
SplineSet
482 316 m 0
 441 316 301 228 301 126 c 0
 301 110 309 102 325 102 c 0
 400 102 506 237 506 286 c 0
 506 304 496.98 316 482 316 c 0
568 95 m 0
 653 95 735 165 735 261 c 0
 735 387 652 476 517 476 c 0
 309 476 128 332 128 124 c 0
 128 -60 258 -101 368 -101 c 0
 488 -101 620 -49 681 16 c 0
 687 23 694 25 699 25 c 0
 706 25 713 4 708 -2 c 0
 646 -78 495 -155 353 -155 c 0
 201 -155 55 -89 55 110 c 0
 55 338 288 526 534 526 c 0
 686 526 791 417 791 277 c 0
 791 154 684 44 504 44 c 0
 485 44 473 66 473 88 c 0
 473 115 477.603 136.375 493 162 c 0
 499.006 171.994 495 179 489 169 c 0
 440 99 378 41 287 41 c 0
 262 41 228 49 228 84 c 0
 228 222 413 367 515 367 c 0
 530 367 541 354 554 343 c 0
 563 335 566.735 343.1 569 349 c 0
 578.984 375.01 586 387 596 387 c 0
 620 387 622 366 622 356 c 0
 622 351 620.785 342.005 616 331 c 2
 540 131 l 2
 537.478 125.2 537 120 537 115 c 0
 537 98 552 95 568 95 c 0
EndSplineSet
Validated: 1
Substitution2: "sups subtable" at.sups
Substitution2: "sinf subtable" at.sinf
Substitution2: "ordn subtable" at.ordn
Substitution2: "subs subtable" at.subs
Substitution2: "at_alternates subtable" at.01
EndChar
StartChar: A
Encoding: 65 65 33
Width: 616
Flags: W
HStem: -2 46<0.104736 97.1861 209.372 270.884 357.105 438.068 562.051 627.884> 216 50<373 473.453> 577 20G<593.5 608.5>
AnchorPoint: "cedilla" 124 8 basechar 0
AnchorPoint: "ogonek" 524 18 basechar 0
AnchorPoint: "top_accent" 608 660 basechar 0
LayerCount: 2
Fore
SplineSet
486 280 m 2
 504 406 l 2
 506.818 425.801 499.406 430.1 481 409 c 2
 373 285 l 2
 365.111 275.957 365 266 373 266 c 10
 474 266 l 18
 484 266 484.873 272.08 486 280 c 2
301 203 m 2
 229 120 l 2
 204 91 202 53 225 45 c 0
 252 35 273 30 273 15 c 0
 273 5 258 -2 242 -2 c 0
 230 -2 167 4 119 4 c 0
 72 4 45 -2 30 -2 c 0
 14 -2 -3 5 -3 15 c 0
 -3 30 29 34 52 44 c 0
 85 59 123 72 176 132 c 2
 496 499 l 2
 513 517 517 552 526 560 c 0
 548 579 587 597 600 597 c 0
 617 597 623 591 620 571 c 2
 559 129 l 2
 553 84 559 53 582 45 c 0
 609 35 630 30 630 15 c 0
 630 5 615 -2 599 -2 c 0
 587 -2 526 4 478 4 c 0
 431 4 402 -2 387 -2 c 0
 371 -2 354 5 354 15 c 0
 354 30 386 34 409 44 c 0
 442 59 457 88 464 129 c 2
 475 205 l 2
 476.141 212.918 474 216 464 216 c 10
 325 216 l 18
 315 216 308.856 212.07 301 203 c 2
EndSplineSet
Validated: 33
Substitution2: "Swash subtable" A.sw
Substitution2: "c2sc subtable" A.sc
Substitution2: "sups subtable" A.sups
Substitution2: "sinf subtable" A.sinf
Substitution2: "ordn subtable" A.ordn
Substitution2: "subs subtable" A.subs
EndChar
StartChar: B
Encoding: 66 66 34
Width: 523
Flags: W
HStem: -6 51<-16.236 63.5527 191.631 307.082> 303 40<247.606 329.68> 553 52<290.844 397.137> 569 35<114.02 169.589>
VStem: 378 105<111.385 253.743> 422 94<402.677 529.557>
AnchorPoint: "top_accent" 302 650 basechar 0
LayerCount: 2
Fore
SplineSet
246 599 m 0xd8
 278 599 345 605 372 605 c 0
 438 605 516 547 516 471 c 0xe4
 516 395 447.383 345.386 375 330 c 0
 363.263 327.505 365.219 322.079 375 320 c 0
 435.646 307.109 483 242 483 179 c 0
 483 77 354.872 -6 252 -6 c 0
 189 -6 196 4 102 4 c 0
 55 4 28 -2 13 -2 c 0
 -3 -2 -20 5 -20 15 c 0
 -21 30 12 34 35 44 c 0
 68 59 80 88 90 129 c 2
 181 495 l 2
 192 539 182 554 130 569 c 0
 121 571 114 577 114 586 c 0
 114 598 134 604 149 604 c 0
 186 604 210 599 246 599 c 0xd8
251 394 m 2
 242 359 248 343 272 343 c 0
 349 343 422 392 422 461 c 0
 422 535 383 553 325 553 c 0
 303 553 286.612 536.574 275 490 c 2
 251 394 l 2
184 126 m 2
 172.146 78.4555 196 45 235 45 c 0
 304 45 378 106 378 175 c 0xc8
 378 269 324 303 258 303 c 0
 236 303 225 288 220 270 c 2
 184 126 l 2
EndSplineSet
Validated: 33
Substitution2: "Swash subtable" B.sw
Substitution2: "c2sc subtable" B.sc
Substitution2: "sups subtable" B.sups
Substitution2: "sinf subtable" B.sinf
Substitution2: "ordn subtable" B.ordn
Substitution2: "subs subtable" B.subs
EndChar
StartChar: C
Encoding: 67 67 35
Width: 595
Flags: W
HStem: -8 46<245.161 402.815> 576 44<331.797 500.638> 586 20G<610.5 626>
VStem: 38 113<156.567 371.236> 555 77<486.237 524.905>
AnchorPoint: "cedilla" 340 8 basechar 0
AnchorPoint: "top_accent" 449 660 basechar 0
LayerCount: 2
Fore
SplineSet
270 -8 m 0xd8
 131 -8 38 136 38 266 c 0
 38 487 254 620 442 620 c 0xd8
 505 620 549 589 580 587 c 0
 595 586 601 606 620 606 c 0xb8
 632 606 632 597 632 577 c 0
 632 562 598 414 575 414 c 0
 563 414 559 432 555 472 c 0
 549 532 492 576 422 576 c 0
 272 576 151 420 151 245 c 0
 151 144 215 38 321 38 c 0
 384 38 453 84 474 114 c 0
 486 131 499 151 519 151 c 0
 535 151 533 137 533 122 c 0
 533 107 479 -10 462 -10 c 0
 448 -10 450 -3 446 9 c 0
 444 15 437 21 427 15 c 0
 411 5 358 -8 270 -8 c 0xd8
EndSplineSet
Validated: 33
Substitution2: "Swash subtable" C.sw
Substitution2: "c2sc subtable" C.sc
Substitution2: "sups subtable" C.sups
Substitution2: "sinf subtable" C.sinf
Substitution2: "ordn subtable" C.ordn
Substitution2: "subs subtable" C.subs
EndChar
StartChar: D
Encoding: 36 68 36
Width: 735
Flags: MW
AnchorPoint: "cedilla" 412 8 basechar 0
AnchorPoint: "top_accent" 436 650 basechar 0
LayerCount: 2
Fore
SplineSet
205 495 m 2
 215.734375 538.701171875 205.985351562 554.387695312 154 569 c 0
 145.3359375 571.435546875 138 577 138 586 c 0
 138 598 158 604 173 604 c 0
 192 604 228 599 247 599 c 0
 317.697265625 599 365.740234375 609 428 609 c 0
 585 609 715 495 715 339 c 0
 715 124 489.75 -6 274 -6 c 0
 193.5 -6 174 4 126 4 c 0
 79 4 52 -2 37 -2 c 0
 21 -2 4 5 4 15 c 0
 4 30 36.232421875 33.6728515625 59 44 c 0
 91.7841796875 58.8720703125 103.866210938 88.2412109375 114 129 c 2
 205 495 l 2
297 481 m 2
 209 129 l 2
 200.775390625 96.009765625 208 47 296 47 c 0
 456 47 610 155 610 322 c 0
 610 473 534 564 371 564 c 0
 329 564 310.693359375 536.331054688 297 481 c 2
EndSplineSet
Substitution2: "Swash subtable" D.sw
Substitution2: "c2sc subtable" D.sc
Substitution2: "sups subtable" D.sups
Substitution2: "sinf subtable" D.sinf
Substitution2: "ordn subtable" D.ordn
Substitution2: "subs subtable" D.subs
EndChar
StartChar: E
Encoding: 69 69 37
Width: 579
Flags: W
HStem: 2 40<14.1047 90.3353 220.823 459.652> 290 48<273.785 412.025> 559 40<326.402 512.142> 569 35<145.02 200.589> 586 20G<539.5 566>
VStem: 521 41<477.655 552.588>
AnchorPoint: "cedilla" 332 8 basechar 0
AnchorPoint: "ogonek" 450 18 basechar 0
AnchorPoint: "top_accent" 405 650 basechar 0
LayerCount: 2
Fore
SplineSet
147 2 m 4xe4
 100 2 59 -2 44 -2 c 4
 28 -2 11 5 11 15 c 4
 11 30 43 34 66 44 c 4
 99 59 111 88 121 129 c 6
 212 495 l 6
 223 539 213 554 161 569 c 4xd4
 152 571 145 577 145 586 c 4xcc
 145 598 165 604 180 604 c 4xd4
 219 604 255 599 291 599 c 6
 466 599 l 6xe4
 502 599 523 606 556 606 c 4xcc
 576 606 582 600 582 580 c 4
 582 567 566.141 522.455 562 507 c 4
 556.306 485.75 549 477 536 477 c 4
 524 477 524.002 485.197 521 508 c 4
 515.388 550.632 499 559 476 559 c 6
 383 559 l 6
 346 559 321 552 307 495 c 6
 277 375 l 6
 270.179 347.844 269.978 338 292 338 c 6
 388 338 l 6
 425 338 450 380 462 380 c 4
 474 380 475.604 364.565 471 345 c 4
 463 311 453 242 439 242 c 4
 424 242 420 249 413 269 c 4
 407.776 283.924 396 290 371 290 c 6
 289 290 l 6
 260 290 252 272 248 257 c 6
 217 133 l 6
 202 71 224 42 259 42 c 6
 398 42 l 6
 430 42 458 59 476 74 c 4
 496 90 517 123 538 123 c 4
 550 123 551 119 551 105 c 4
 551 80 526 37 500 8 c 4
 492 -1 475 -5 461 -5 c 4
 347 -5 185 2 147 2 c 4xe4
EndSplineSet
Validated: 33
Substitution2: "Swash subtable" E.sw
Substitution2: "c2sc subtable" E.sc
Substitution2: "sups subtable" E.sups
Substitution2: "sinf subtable" E.sinf
Substitution2: "ordn subtable" E.ordn
Substitution2: "subs subtable" E.subs
EndChar
StartChar: F
Encoding: 38 70 38
Width: 541
Flags: MW
AnchorPoint: "top_accent" 368 650 basechar 0
LayerCount: 2
Fore
SplineSet
378 275 m 2
 280 275 l 2
 251 275 245 272 241 257 c 2
 208 125 l 10
 200.099609375 93.3984375 209 53 232 45 c 0
 259 35 280 30 280 15 c 0
 280 5 265 -2 249 -2 c 0
 237 -2 174 4 126 4 c 0
 79 4 52 -2 37 -2 c 0
 21 -2 4 5 4 15 c 0
 4 30 36 34 59 44 c 0
 92 59 104 88 114 129 c 2
 205 495 l 2
 216 539 206 554 154 569 c 0
 145 571 138 577 138 586 c 0
 138 598 158 604 174 604 c 0
 213 604 249 599 285 599 c 2
 479 599 l 2
 515 599 559 606 569 606 c 0
 589 606 595 600 595 580 c 0
 595 567 579 522 575 507 c 0
 569 486 562 477 549 477 c 0
 537 477 537 485 534 508 c 0
 528 551 512 559 489 559 c 2
 365 559 l 2
 328 559 314 552 300 495 c 2
 270 375 l 2
 263 348 261 323 283 323 c 2
 401 323 l 2
 438 323 463 365 475 365 c 0
 487 365 490.840820312 348.793945312 484 330 c 0
 476.284179688 308.80078125 465.5 269 461 242 c 0
 458.400390625 226.403320312 451 217 446 217 c 0
 431 217 430 224 423 244 c 0
 418 259 403 275 378 275 c 2
EndSplineSet
Substitution2: "Swash subtable" F.sw
Substitution2: "c2sc subtable" F.sc
Substitution2: "sups subtable" F.sups
Substitution2: "sinf subtable" F.sinf
Substitution2: "ordn subtable" F.ordn
Substitution2: "subs subtable" F.subs
EndChar
StartChar: G
Encoding: 71 71 39
Width: 653
Flags: W
HStem: -8 43<251.244 420.626> 257 42<601.41 665.665> 576 44<348.435 515.095>
VStem: 38 113<151.647 352.292> 570 77<472.215 524.905>
AnchorPoint: "top_accent" 456 660 basechar 0
LayerCount: 2
Fore
SplineSet
457 620 m 0
 520 620 580 594 611 592 c 0
 659 589 647 580 647 559 c 0
 647 529 613 414 590 414 c 0
 578 414 574 432 570 472 c 0
 564 532 507 576 437 576 c 0
 287 576 151 408 151 233 c 0
 151 132 225 35 331 35 c 0
 394 35 455.842 67.7397 462 93 c 2
 491 212 l 2
 497.868 240.175 470 251 451 264 c 0
 441 271 427 277 427 286 c 0
 427 298 435 302 459 302 c 0
 478 302 551 297 560 297 c 0
 636 297 631 299 641 299 c 0
 653 299 666 291 666 279 c 0
 666 275 647 260 637 257 c 0
 609 248 592.81 237.682 582 194 c 2
 552 73 l 2
 547.195 53.5857 549 57 500 30 c 0
 468 12 366 -8 278 -8 c 0
 139 -8 38 124 38 254 c 0
 38 475 269 620 457 620 c 0
EndSplineSet
Validated: 33
Substitution2: "Swash subtable" G.sw
Substitution2: "c2sc subtable" G.sc
Substitution2: "sups subtable" G.sups
Substitution2: "sinf subtable" G.sinf
Substitution2: "ordn subtable" G.ordn
Substitution2: "subs subtable" G.subs
EndChar
StartChar: J
Encoding: 42 74 42
Width: 346
Flags: MW
AnchorPoint: "top_accent" 281 650 basechar 0
LayerCount: 2
Fore
SplineSet
114 129 m 2
 205 495 l 2
 215.886 538.663 205.985 554.388 154 569 c 0
 145.336 571.436 138 577 138 586 c 0
 138 598 158 604 173 604 c 0
 212 604 248 599 284 599 c 0
 319 599 332 604 366 604 c 0
 381 604 401 598 401 586 c 0
 401 577 394.664 571.436 386 569 c 0
 329.201 553.034 312.096 543.515 300 495 c 2
 209 129 l 2
 165.174 -47.2626 68 -244 -115 -244 c 0
 -148 -244 -179 -219 -179 -174 c 0
 -179 -131 -148 -105 -116 -105 c 0
 -93 -105 -77 -168 -35 -168 c 0
 31 -168 77.4698 -17.5146 114 129 c 2
EndSplineSet
Validated: 33
Substitution2: "Swash subtable" J.sw
Substitution2: "c2sc subtable" J.sc
Substitution2: "sups subtable" J.sups
Substitution2: "sinf subtable" J.sinf
Substitution2: "ordn subtable" J.ordn
Substitution2: "subs subtable" J.subs
Substitution2: "historic_j subtable" J.hist
EndChar
StartChar: K
Encoding: 75 75 43
Width: 557
Flags: W
HStem: -17 58<485.022 562.908> -2 46<-46.8753 33.1948 157.37 223.906> 299 48<215.515 249.526> 569 35<84.0213 140.73 284.526 346.982 407.02 449.944 569.763 635.98>
AnchorPoint: "top_accent" 391 650 basechar 0
LayerCount: 2
Fore
SplineSet
261 263 m 28xb0
 248.101 282.523 229.303 299 213 299 c 4
 199 299 192.419 279.703 190 270 c 6
 155 129 l 6
 144.142 85.3291 155.447 53.208 178 45 c 4
 205.251 35.0811 226 30 226 15 c 4
 226 5 211 -2 195 -2 c 4
 183 -2 120 4 72 4 c 4
 25 4 -2 -2 -17 -2 c 4
 -33 -2 -50 5 -50 15 c 4
 -50 30 -17.7676 33.6729 5 44 c 4x70
 37.7842 58.8721 49.8662 88.2412 60 129 c 6
 151 495 l 6
 161.887 538.663 151.985 554.388 100 569 c 4
 91.3359 571.436 84 577 84 586 c 4
 84 598 104 604 119 604 c 4
 158 604 194 599 230 599 c 4
 265 599 278 604 312 604 c 4
 327 604 347 598 347 586 c 4
 347 577 340.664 571.436 332 569 c 4
 275.201 553.034 258.065 543.523 246 495 c 6
 217 379 l 6
 214.649 369.28 213 347 227 347 c 4
 252 347 291.462 380.028 321 407 c 6
 436 512 l 6
 454.461 528.858 466 557 423 569 c 4
 414 572 407 577 407 586 c 4
 407 598 427 604 442 604 c 4
 481 604 493 599 529 599 c 4
 564 599 567 604 601 604 c 4
 616 604 636 598 636 586 c 4
 636 577 629 571 621 569 c 4
 539 546 518.762 525.496 476 485 c 6
 325 342 l 6
 316.825 334.64 322.095 328.764 326 322 c 20
 368.975 247.565 419 156.981 434 131 c 4
 471 66.9141 491 49 537 41 c 4
 559.66 37.0596 570 34 570 22 c 4
 570 2.96387 551 -17 463 -17 c 4
 417 -17 379.309 40.565 361 75 c 4
 325.79 141.221 306.78 193.711 261 263 c 28xb0
EndSplineSet
Validated: 33
Substitution2: "Swash subtable" K.sw
Substitution2: "c2sc subtable" K.sc
Substitution2: "sups subtable" K.sups
Substitution2: "sinf subtable" K.sinf
Substitution2: "ordn subtable" K.ordn
Substitution2: "subs subtable" K.subs
EndChar
StartChar: L
Encoding: 44 76 44
Width: 609
Flags: MW
AnchorPoint: "cedilla" 183 8 basechar 0
AnchorPoint: "top_accent" 321 650 basechar 0
LayerCount: 2
Fore
SplineSet
209 131 m 2
 300 495 l 2
 312 544 329 553 386 569 c 0
 395 571 401 577 401 586 c 0
 401 598 381 604 366 604 c 0
 332 604 319 599 284 599 c 0
 248 599 212 604 173 604 c 0
 158 604 138 598 138 586 c 0
 138 577 145 571 154 569 c 0
 206 554 216 539 205 495 c 2
 114 129 l 2
 104 88 92 59 59 44 c 0
 36 34 4 30 4 15 c 0
 4 5 21 -2 36 -2 c 0
 51 -2 92 2 139 2 c 0
 177 2 372 -5 486 -5 c 0
 500 -5 517 -1 525 8 c 0
 551 37 576 88 576 113 c 0
 576 127 575 131 563 131 c 0
 542 131 521 98 501 82 c 0
 483 67 455 50 423 50 c 2
 251 50 l 2
 216 50 194 69 209 131 c 2
EndSplineSet
Substitution2: "Swash subtable" L.sw
Substitution2: "c2sc subtable" L.sc
Substitution2: "sups subtable" L.sups
Substitution2: "sinf subtable" L.sinf
Substitution2: "ordn subtable" L.ordn
Substitution2: "subs subtable" L.subs
Substitution2: "loclCAT subtable" L.CAT
EndChar
StartChar: M
Encoding: 77 77 45
Width: 833
Flags: W
HStem: -2 46<18.1247 110.725 521.125 601.195 725.37 791.906> 569 35<162.021 216.245 853.767 914.982>
AnchorPoint: "top_accent" 581 650 basechar 0
LayerCount: 2
Fore
SplineSet
814 495 m 6
 723 129 l 6
 712.142 85.3291 723.447 53.209 746 45 c 4
 773.251 35.0811 794 30 794 15 c 4
 794 5 779 -2 763 -2 c 4
 751 -2 688 4 640 4 c 4
 593 4 566 -2 551 -2 c 4
 535 -2 518 5 518 15 c 4
 518 30 550.232 33.6729 573 44 c 4
 605.784 58.8721 617.867 88.2461 628 129 c 6
 688 370 l 6
 700.58 420.455 663.05 371.001 654 359 c 6
 516 176 l 6
 472.669 118.498 430 24 396 24 c 4
 381.2 24 374.538 55.1045 373 62 c 6
 309 349 l 6
 304.159 368.294 301.398 374.824 295 358 c 6
 201 95 l 6
 191.242 67.6982 216.146 51.4984 234 45 c 4
 251.854 38.5016 262 30 262 15 c 4
 262 5 247 -2 231 -2 c 4
 219 -2 185 4 137 4 c 4
 90 4 63 -2 48 -2 c 4
 32 -2 15 5 15 15 c 4
 15 30 47.2324 33.6729 70 44 c 4
 102.784 58.8721 110.779 53.5127 128 98 c 6
 260 439 l 6
 270.475 467.395 260.314 481.216 254 497 c 4
 242 527 229.985 554.388 178 569 c 4
 169.336 571.436 162 577 162 586 c 4
 162 598 182 604 197 604 c 4
 236 604 257.341 599 296 599 c 20
 349 599 356.667 585.825 367 541 c 6
 441 220 l 6
 450.979 175.096 459.385 191.463 476 214 c 6
 724 552 l 6
 761.27 602.795 772 599 798 599 c 4
 833 599 846 604 880 604 c 4
 895 604 915 598 915 586 c 4
 915 577 908.664 571.436 900 569 c 4
 843.201 553.034 824.715 538.095 814 495 c 6
EndSplineSet
Validated: 33
Substitution2: "Swash subtable" M.sw
Substitution2: "c2sc subtable" M.sc
Substitution2: "sups subtable" M.sups
Substitution2: "sinf subtable" M.sinf
Substitution2: "ordn subtable" M.ordn
Substitution2: "subs subtable" M.subs
EndChar
StartChar: N
Encoding: 78 78 46
Width: 661
Flags: W
HStem: -2 46<-16.9827 59.8437 148.994 218.906> 569 35<76.0213 136.098 483.021 530.648 659.997 711.981>
AnchorPoint: "top_accent" 426 660 basechar 0
LayerCount: 2
Fore
SplineSet
499 569 m 20
 490.243 571.511 483 577 483 586 c 4
 483 598 503 604 518 604 c 4
 557 604 569 599 605 599 c 4
 640 599 643 604 677 604 c 4
 692 604 712 598 712 586 c 4
 712 577 705.498 571.437 697 569 c 4
 638.363 552.186 630.354 518.909 620 479 c 6
 527 125 l 6
 524.395 115.345 522 109 522 102 c 4
 522 81.208 534 29 534 25 c 4
 534 4 529 0 510 0 c 6
 463 0 l 6
 444 0 427.492 10.4902 407 55 c 6
 250 396 l 6
 235.793 426.889 219.141 425.517 215 408 c 6
 145 113 l 6
 136.688 77.9717 150.447 53.209 173 45 c 4
 200.251 35.0811 221 30 221 15 c 4
 221 5 206 -2 190 -2 c 4
 178 -2 151 4 103 4 c 4
 56 4 29 -2 14 -2 c 4
 -2 -2 -19 5 -19 15 c 4
 -19 30 1.23291 33.6724 24 44 c 4
 60.4273 60.5242 75.8486 75.9648 83 102 c 6
 172 426 l 6
 178.615 449.07 184.298 489.061 175 509 c 4
 161.476 538.002 143.985 554.388 92 569 c 4
 83.3359 571.436 76 577 76 586 c 4
 76 598 96 604 111 604 c 4
 150 604 171.341 599 210 599 c 20
 263 599 271.798 582.437 292 540 c 6
 463 185 l 6
 472.981 164.278 483.91 161.785 490 185 c 6
 564 472 l 6
 573.737 509.766 542.774 556.449 499 569 c 20
EndSplineSet
Validated: 33
Substitution2: "Swash subtable" N.sw
Substitution2: "c2sc subtable" N.sc
Substitution2: "sups subtable" N.sups
Substitution2: "sinf subtable" N.sinf
Substitution2: "ordn subtable" N.ordn
Substitution2: "subs subtable" N.subs
EndChar
StartChar: O
Encoding: 79 79 47
Width: 585
Flags: W
HStem: -20 45<175.156 316.453> 573 47<301.854 435.529>
VStem: 20 99<117.205 317.368> 488 99<266.09 505.203>
AnchorPoint: "cedilla" 272 8 basechar 0
AnchorPoint: "ogonek" 346 18 basechar 0
AnchorPoint: "top_accent" 404 660 basechar 0
LayerCount: 2
Fore
SplineSet
393 620 m 0
 508 620 587 519 587 404 c 0
 587 185 435 -20 243 -20 c 0
 115 -20 20 93 20 219 c 0
 20 435 198 620 393 620 c 0
119 169 m 0
 119 105 162 25 234 25 c 0
 386 25 488 213.6 488 393 c 0
 488 479.016 464.02 573 378 573 c 0
 233 573 119 371 119 169 c 0
EndSplineSet
Validated: 1
Substitution2: "Swash subtable" O.sw
Substitution2: "c2sc subtable" O.sc
Substitution2: "sups subtable" O.sups
Substitution2: "sinf subtable" O.sinf
Substitution2: "ordn subtable" O.ordn
Substitution2: "subs subtable" O.subs
EndChar
StartChar: P
Encoding: 80 80 48
Width: 499
Flags: W
HStem: -2 46<-11.8753 68.1948 192.37 258.906> 256 40<298.123 381.237> 556 44<294.459 383.207> 569 35<119.021 175.73>
VStem: 425 92<356.068 511.715>
AnchorPoint: "top_accent" 311 650 basechar 0
LayerCount: 2
Fore
SplineSet
281 495 m 2xe8
 190 129 l 2
 179.142 85.3291 190.447 53.208 213 45 c 0
 240.251 35.0811 261 30 261 15 c 0
 261 5 246 -2 230 -2 c 0
 218 -2 155 4 107 4 c 0
 60 4 33 -2 18 -2 c 0
 2 -2 -15 5 -15 15 c 0
 -15 30 17.2324 33.6729 40 44 c 0
 72.7842 58.8721 84.8662 88.2412 95 129 c 2
 186 495 l 2
 196.887 538.663 186.985 554.388 135 569 c 0
 126.336 571.436 119 577 119 586 c 0
 119 598 139 604 154 604 c 0xd8
 193 604 215 600 230 600 c 0
 279 600 303 605 349 605 c 0
 443 605 517 532 517 437 c 0
 517 324 412 256 329 256 c 0
 317 256 298 262 298 275 c 0
 298 284 314.349 292.006 337 296 c 0
 396.088 306.419 425 359 425 435 c 0
 425 498 388 556 323 556 c 0
 302 556 291.403 536.723 281 495 c 2xe8
EndSplineSet
Validated: 33
Substitution2: "Swash subtable" P.sw
Substitution2: "c2sc subtable" P.sc
Substitution2: "sups subtable" P.sups
Substitution2: "sinf subtable" P.sinf
Substitution2: "ordn subtable" P.ordn
Substitution2: "subs subtable" P.subs
EndChar
StartChar: Q
Encoding: 81 81 49
Width: 830
Flags: W
HStem: -273 56<943.133 1198.62> -92 59<119.043 294.591> 62 53<124.862 320.981> 223 50<325.987 442.978> 365 104<409.492 487.5> 633 58<434.435 597.977>
VStem: 39 68<-17.8635 42.9842> 188 105<306.626 475.312> 463 78<294.902 404> 672 100<309.481 533.679>
AnchorPoint: "top_accent" 529 726 basechar 0
LayerCount: 2
Fore
SplineSet
530 691 m 0
 653 691 772 569 772 439 c 0
 772 261.32 665 129 517 41 c 0
 508.405 35.8892 505.628 34.1622 513 29 c 0
 702.224 -103.496 920 -217 1070 -217 c 0
 1182 -217 1238 -174 1258 -174 c 0
 1265.03 -174 1268 -178 1268 -189 c 0
 1268 -240 1160 -273 1092 -273 c 0
 820 -273 673.149 -164.09 440 -24 c 0
 428 -16.7895 422.692 -16.5521 412 -22 c 0
 330.027 -63.7671 253 -92 125 -92 c 0
 83 -92 39 -54 39 -14 c 0
 39 47 119 115 219 115 c 0
 307 115 368.342 99.6255 436 75 c 0
 447.276 70.8958 452.97 69.7188 462 76 c 0
 554 140 672 274 672 416 c 0
 672 518.66 637 633 523 633 c 0
 408 633 293 527.643 293 402 c 0
 293 298.456 332.826 273 393 273 c 0
 430.521 273 463 303 463 339 c 0
 463 354 453 365 438 365 c 0
 420 365 412 354 400 354 c 0
 384 354 373 368 373 383 c 0
 373 422 418 469 466 469 c 0
 509 469 541 426 541 382 c 0
 541 261 453 223 342 223 c 0
 258 223 188 289 188 371 c 0
 188 552 380 691 530 691 c 0
107 10 m 0
 107 -19 158.747 -33 198 -33 c 0
 264.968 -33 368 -1 368 14 c 0
 368 29 270 62 207 62 c 0
 164 62 107 50 107 10 c 0
EndSplineSet
Validated: 1
Substitution2: "Swash subtable" Q.sw
Substitution2: "Single Substitution lookup 57 subtable" Q.long
Substitution2: "Single Substitution lookup 56 subtable" Q.long
Substitution2: "c2sc subtable" Q.sc
Substitution2: "sups subtable" Q.sups
Substitution2: "sinf subtable" Q.sinf
Substitution2: "ordn subtable" Q.ordn
Substitution2: "subs subtable" Q.subs
EndChar
StartChar: R
Encoding: 82 82 50
Width: 557
Flags: W
HStem: -13 57<492.116 563.455> -2 46<2.12465 82.1948 205.93 272.906> 287 38<260.664 312.449> 556 49<308.933 438.501> 569 35<133.021 189.73>
VStem: 465 97<406.992 530.129>
AnchorPoint: "top_accent" 380 650 basechar 0
LayerCount: 2
Fore
SplineSet
204 129 m 2xb4
 193.534 85.2334 204.447 53.208 227 45 c 0
 254.251 35.0811 275 30 275 15 c 0
 275 5 260 -2 244 -2 c 0
 232 -2 169 4 121 4 c 0
 74 4 47 -2 32 -2 c 0
 16 -2 -1 5 -1 15 c 0
 -1 30 31.2324 33.6729 54 44 c 0
 86.7842 58.8721 98.8662 88.2412 109 129 c 2
 200 495 l 2
 210.887 538.663 200.985 554.388 149 569 c 0
 140.336 571.436 133 577 133 586 c 0
 133 598 153 604 168 604 c 0x6c
 183 604 207 599.002 231 599.002 c 0
 256 599.002 325 605 386 605 c 0
 473 605 562 564 562 475 c 0
 562 399.018 483 329 419 314 c 0
 404.396 310.577 409.341 299.387 414 282 c 0
 420.471 257.852 448.739 159.19 459 131 c 0
 484.31 61.4629 497 52 543 44 c 0
 565.66 40.0592 576 37 576 25 c 0
 576 5.96387 524 -13 466 -13 c 0
 428 -13 401.09 33.5408 386 75 c 8
 364.316 134.575 349 194 337 230 c 0
 322.77 272.69 299 287 269 287 c 0
 244 287 242.759 287.149 227 221 c 2
 204 129 l 2xb4
264 369 m 2
 258.514 346.664 257 325 278 325 c 0
 370 325 465 366 465 470 c 0
 465 535 427 556 341 556 c 0x34
 318 556 305.973 539.672 295 495 c 2
 264 369 l 2
EndSplineSet
Validated: 33
Substitution2: "Swash subtable" R.sw
Substitution2: "c2sc subtable" R.sc
Substitution2: "sups subtable" R.sups
Substitution2: "sinf subtable" R.sinf
Substitution2: "ordn subtable" R.ordn
Substitution2: "subs subtable" R.subs
EndChar
StartChar: S
Encoding: 83 83 51
Width: 497
Flags: W
HStem: -20 44<155.594 295.327> 580 40<298.558 427.404>
VStem: 53 47<88.6484 207.796> 172 88<431.168 532.101> 348 104<92.8612 205.927> 465 52<469.358 543.672>
AnchorPoint: "cedilla" 277 8 basechar 0
AnchorPoint: "top_accent" 385 660 basechar 0
LayerCount: 2
Fore
SplineSet
381 620 m 0
 442 620 466 602 500 596 c 8
 510.377 594.169 517 583 517 575 c 0
 517 527 503 462 485 462 c 0
 473 462 471 468 465 496 c 0
 454 544 421 580 371 580 c 0
 309 580 260 548 260 481 c 0
 260 453 293 414 323 376 c 2
 399 280 l 2
 428 243 452 197 452 173 c 0
 452 54 331 -20 211 -20 c 0
 148 -20 85 11 59 26 c 0
 48 32 39 40 39 57 c 0
 39 78 48 146 53 176 c 0
 56 193 63 208 75 208 c 0
 91 208 96 197 100 170 c 0
 111 90 138 24 227 24 c 0
 293 24 348 76 348 142 c 0
 348 178 333 202 299 239 c 2
 225 327 l 2
 190 369 172 401 172 456 c 0
 172 563 275 620 381 620 c 0
EndSplineSet
Validated: 1
Substitution2: "Swash subtable" S.sw
Substitution2: "c2sc subtable" S.sc
Substitution2: "sups subtable" S.sups
Substitution2: "sinf subtable" S.sinf
Substitution2: "ordn subtable" S.ordn
Substitution2: "subs subtable" S.subs
EndChar
StartChar: T
Encoding: 52 84 52
Width: 656
Flags: MW
AnchorPoint: "cedilla" 356 18 basechar 0
AnchorPoint: "top_accent" 377 650 basechar 0
LayerCount: 2
Fore
SplineSet
457 495 m 2
 366 129 l 2
 355.141601562 85.3291015625 366.447265625 53.2080078125 389 45 c 0
 416.250976562 35.0810546875 437 30 437 15 c 0
 437 5 422 -2 406 -2 c 0
 394 -2 331 4 283 4 c 0
 236 4 209 -2 194 -2 c 0
 178 -2 161 5 161 15 c 0
 161 30 193.232421875 33.6728515625 216 44 c 0
 248.784179688 58.8720703125 260.866210938 88.2412109375 271 129 c 6
 362 495 l 2
 367.791015625 518.291015625 370 545 318 545 c 2
 230 545 l 2
 189 545 128 490 112 490 c 0
 102 490 100 500 100 511 c 0
 100 523 122 554 140 598 c 0
 144.54336354 609.105999765 155 624 164 624 c 0
 182.505859375 624 189.665039062 589 232 589 c 2
 596 589 l 2
 654 589 690 625 705 625 c 0
 716 625 719.514661184 620.349848025 715 605 c 0
 710 588 699 543 692 504 c 0
 689.526686243 490.220109067 680 483 670 483 c 0
 649 483 651.33984375 545 601 545 c 2
 518 545 l 2
 489 545 463.774414062 522.16796875 457 495 c 2
EndSplineSet
Substitution2: "Swash subtable" T.sw
Substitution2: "c2sc subtable" T.sc
Substitution2: "sups subtable" T.sups
Substitution2: "sinf subtable" T.sinf
Substitution2: "ordn subtable" T.ordn
Substitution2: "subs subtable" T.subs
EndChar
StartChar: U
Encoding: 85 85 53
Width: 689
Flags: W
HStem: -20 51<243.658 407.071> 567 37<99.0204 158.988 293.589 361.983 528.03 592.566 697.245 764.976>
AnchorPoint: "cedilla" 338 8 basechar 0
AnchorPoint: "ogonek" 416 18 basechar 0
AnchorPoint: "top_accent" 452 650 basechar 0
LayerCount: 2
Fore
SplineSet
550 567 m 0
 538.356 569.903 528 577 528 586 c 0
 528 598 548 604 563 604 c 0
 582 604 614 599 650 599 c 0
 685 599 696 604 730 604 c 0
 745 604 765 598 765 586 c 0
 765 577 756.627 569.706 747 567 c 0
 700.791 554.011 677.161 546.752 667 506 c 2
 608 270 l 2
 567.739 112.051 478 -20 294 -20 c 0
 175 -20 60 69 102 238 c 2
 166 495 l 2
 177 539 167 554 115 569 c 0
 106 571 99 577 99 586 c 0
 99 598 119 604 134 604 c 0
 173 604 209 599 245 599 c 0
 280 599 293 604 327 604 c 0
 342 604 362 598 362 586 c 0
 362 577 356 571 347 569 c 0
 290 553 273 544 261 495 c 2
 201 254 l 2
 163 105 224 31 322 31 c 0
 458 31 517.325 156.871 557 316 c 2
 604 505 l 2
 612.892 539.885 592.693 556.355 550 567 c 0
EndSplineSet
Validated: 33
Substitution2: "Swash subtable" U.sw
Substitution2: "c2sc subtable" U.sc
Substitution2: "sups subtable" U.sups
Substitution2: "sinf subtable" U.sinf
Substitution2: "ordn subtable" U.ordn
Substitution2: "subs subtable" U.subs
Substitution2: "Single Substitution lookup 26 subtable" U.LAT
Substitution2: "loclLAT subtable" U.LAT
EndChar
StartChar: V
Encoding: 86 86 54
Width: 510
Flags: W
HStem: -16 21G<111.5 130.5> 569 35<5.01858 50.999 211.969 267.981 376.021 421.52 548.806 604.981>
VStem: 83 94<208.25 535.762> 92 93<149.703 309.778>
AnchorPoint: "top_accent" 334 650 basechar 0
LayerCount: 2
Fore
SplineSet
392 569 m 0xd0
 383.243 571.511 376 577 376 586 c 0
 376 598 396 604 411 604 c 0
 450 604 462 599 498 599 c 0
 533 599 536 604 570 604 c 0
 585 604 605 598 605 586 c 0
 605 577 598.498 571.437 590 569 c 0
 508.293 545.571 478.806 500.164 389 357 c 2
 249 134 l 2
 224.692 94.9473 200.968 63.3308 181 31 c 0
 163.659 2.92323 140 -16 121 -16 c 256
 102 -16 94 -2 94 26 c 0
 94 38 92.4707 60.0059 92 78 c 2xd0
 83 376 l 2
 78.7578 518.938 67.2092 556.011 21 569 c 0
 11.3731 571.706 5 577 5 586 c 0
 5 598 25 604 40 604 c 0
 79 604 115 599 151 599 c 0
 186 599 199 604 233 604 c 0
 248 604 268 598 268 586 c 0
 268 577 261.498 571.437 253 569 c 0
 193.402 551.91 174.656 526.965 177 448 c 2xe0
 185 174 l 2
 186.068 138.016 209.068 139.746 230 175 c 2
 393 449 l 2
 440.48 528.966 438.515 555.662 392 569 c 0xd0
EndSplineSet
Validated: 33
Substitution2: "Swash subtable" V.sw
Substitution2: "c2sc subtable" V.sc
Substitution2: "sups subtable" V.sups
Substitution2: "sinf subtable" V.sinf
Substitution2: "ordn subtable" V.ordn
Substitution2: "subs subtable" V.subs
EndChar
StartChar: W
Encoding: 55 87 55
Width: 978
Flags: MW
AnchorPoint: "top_accent" 433 650 basechar 0
LayerCount: 2
Back
SplineSet
433 584 m 4xd8
 433 596 440 602 455 602 c 4
 463 602 483 599 498 599 c 4
 513 599 537 602 557 602 c 4
 572 602 579 598 579 586 c 4
 579 577 572.498 571.437 564 569 c 4
 482.293 545.57 478.806 500.164 389 357 c 6
 370.517 327.559 l 5
 375 174 l 6
 376.068 138.016 399.067 139.746 420 175 c 6
 583 449 l 6
 641.712 547.883 614 552 614 581 c 4
 614 595 631 600 646 600 c 4
 655 600 677 599 688 599 c 4
 723 599 726 604 760 604 c 4
 775 604 795 598 795 586 c 4
 795 577 788.498 571.437 780 569 c 4
 698.293 545.57 668.807 500.164 579 357 c 6
 439 134 l 6
 414.691 94.9473 390.968 63.3311 371 31 c 4
 353.659 2.92285 330 -16 311 -16 c 4
 292 -16 284 -2 284 26 c 4
 284 38 282.471 60.0059 282 78 c 6
 278.872 181.581 l 5
 249 134 l 6
 224.692 94.9473 200.968 63.3308 181 31 c 4
 163.659 2.92323 140 -16 121 -16 c 4
 102 -16 94 -2 94 26 c 4
 94 38 92.4707 60.0059 92 78 c 6xd8
 83 376 l 6
 78.7578 518.938 67.2092 556.011 21 569 c 4
 11.3731 571.706 5 577 5 586 c 4
 5 598 25 604 40 604 c 4
 79 604 73 599 109 599 c 4
 144 599 177 602 191 602 c 4
 206 602 215 598 215 586 c 4
 215 577 204.651 565.481 196 563 c 4
 175.813 557.212 174.656 526.965 177 448 c 6xe8
 185 174 l 6
 186.068 138.016 209.068 139.746 230 175 c 6
 276.7 253.501 l 5
 273 376 l 6
 268.817 516.938 260.618 549.863 246 562 c 4
 238.306 568.388 232 575.977 232 586 c 4
 232 598.34 247.99 602 263 602 c 4
 273 602 307 599 324 599 c 4
 347 599 371 602 388 602 c 4
 403 602 411 598 411 586 c 4
 411 577 403.69 571.205 396 569 c 4
 368.123 561.007 364.656 526.965 367 448 c 6
 368.189 407.292 l 5
 393 449 l 6
 458.846 559.686 433 564 433 584 c 4xd8
EndSplineSet
Fore
SplineSet
495 392 m 2
 237 96 l 2
 221.22265625 77.9140625 166 -16 117 -16 c 0
 103 -16 95 2 98 24 c 2
 159 466 l 2
 165 511 154 551 131 559 c 0
 104 569 83 572 83 587 c 0
 83 597 98 604 114 604 c 0
 126 604 187 599 235 599 c 0
 282 599 311 604 326 604 c 0
 342 604 359 597 359 587 c 0
 359 572 327 570 304 560 c 0
 271 545 261 515 254 466 c 2
 212 174 l 2
 207.150616254 140.347608149 220.738812334 148.300982048 243 174 c 2
 500 471 l 2
 526.189632549 501.234138767 528.886302069 546.503067424 493 559 c 0
 465.811404301 568.46807076 445 572 445 587 c 0
 445 597 460 604 476 604 c 0
 488 604 549 599 597 599 c 0
 644 599 702 604 717 604 c 0
 733 604 750 597 750 587 c 0
 750 572 724.729495991 561.019585563 695 557 c 0
 646.441823214 550.434676915 624.415107089 524.396797624 616 466 c 2
 574 174 l 2
 569.150616254 140.347608149 582.738812334 148.300982048 605 174 c 2
 880 492 l 2
 902.260742188 517.69921875 906.881835938 545.671875 884 554 c 0
 852.990234375 565.287109375 836 572 836 587 c 0
 836 597 851 604 867 604 c 0
 879 604 942 599 990 599 c 0
 1037 599 1064 604 1079 604 c 0
 1095 604 1112 597 1112 587 c 0
 1112 572 1086.5 561 1057 557 c 0
 1021.07910156 552.129882812 972 523 919 463 c 2
 599 96 l 2
 583.22265625 77.9140625 528 -16 479 -16 c 0
 465 -16 457 2 460 24 c 2
 508 372 l 2
 512.535670019 404.686812287 502.231127704 400.289197315 495 392 c 2
EndSplineSet
Substitution2: "Swash subtable" W.sw
Substitution2: "c2sc subtable" W.sc
Substitution2: "sups subtable" W.sups
Substitution2: "sinf subtable" W.sinf
Substitution2: "ordn subtable" W.ordn
Substitution2: "subs subtable" W.subs
EndChar
StartChar: X
Encoding: 56 88 56
Width: 622
Flags: MW
AnchorPoint: "cedilla" 426 8 basechar 0
AnchorPoint: "top_accent" 464 650 basechar 0
LayerCount: 2
Fore
SplineSet
196 490 m 2
 178 532 155 555 108 567 c 0
 91 571 82 577 82 586 c 0
 82 598 102 604 117 604 c 0
 156 604 180 599 216 599 c 0
 251 599 284 604 318 604 c 0
 333 604 353 598 353 586 c 0
 353 577 338 571 330 569 c 0
 301 562 276 543 291 507 c 2
 348 374 l 1
 456 512 l 2
 471 532 482 557 439 569 c 0
 430 572 423 577 423 586 c 0
 423 598 443 604 458 604 c 0
 497 604 513 599 549 599 c 0
 584 599 587 604 621 604 c 0
 636 604 656 598 656 586 c 0
 656 577 649 571 641 569 c 0
 559 546 536 531 500 485 c 2
 371 321 l 1
 453 129 l 2
 471 87 515 53 538 45 c 0
 565 35 586 30 586 15 c 0
 586 5 571 -2 555 -2 c 0
 543 -2 480 4 432 4 c 0
 385 4 338 -2 323 -2 c 0
 307 -2 290 5 290 15 c 0
 290 30 318 38 342 44 c 0
 383 55 374 72 350 129 c 2
 304 237 l 1
 212 120 l 2
 178.916992188 77.9267578125 180 53 203 45 c 0
 230 35 245 30 245 15 c 0
 245 5 230 -2 214 -2 c 0
 202 -2 150 4 102 4 c 0
 55 4 28 -2 13 -2 c 0
 -3 -2 -20 5 -20 15 c 0
 -20 30 12 34 35 44 c 0
 68 59 110 69 159 132 c 2
 282 289 l 1
 196 490 l 2
EndSplineSet
Substitution2: "Swash subtable" X.sw
Substitution2: "c2sc subtable" X.sc
Substitution2: "sups subtable" X.sups
Substitution2: "sinf subtable" X.sinf
Substitution2: "ordn subtable" X.ordn
Substitution2: "subs subtable" X.subs
EndChar
StartChar: Y
Encoding: 89 89 57
Width: 510
Flags: W
HStem: -2 46<8.10474 88.3235 211.581 278.884> 569 35<5.01752 62.8764 212.591 263.98 346.02 388.827 508.719 574.98>
AnchorPoint: "top_accent" 317 650 basechar 0
LayerCount: 2
Fore
SplineSet
108 489 m 2
 98 534 67 556 21 569 c 0
 11 572 5 577 5 586 c 0
 5 598 25 604 40 604 c 0
 79 604 103 599 139 599 c 0
 174 599 195 604 229 604 c 0
 244 604 264 598 264 586 c 0
 264 577 257 571 249 569 c 0
 220 562 190 545 198 507 c 2
 231 359 l 2
 233 348 242 348 247 355 c 10
 375 512 l 2
 391 531 405 557 362 569 c 0
 353 572 346 577 346 586 c 0
 346 598 366 604 381 604 c 0
 420 604 432 599 468 599 c 0
 503 599 506 604 540 604 c 0
 555 604 575 598 575 586 c 0
 575 577 568 571 560 569 c 0
 478 546 457 530 419 485 c 2
 267 305 l 2
 258 293 247 278 237 239 c 2
 210 129 l 2
 199 85 210 53 233 45 c 0
 260 35 281 30 281 15 c 0
 281 5 266 -2 250 -2 c 0
 238 -2 175 4 127 4 c 0
 80 4 53 -2 38 -2 c 0
 22 -2 5 5 5 15 c 0
 5 30 37 34 60 44 c 0
 93 59 105 88 115 129 c 2
 142 238 l 2
 151 276 151 291 146 313 c 2
 108 489 l 2
EndSplineSet
Validated: 33
Substitution2: "Swash subtable" Y.sw
Substitution2: "c2sc subtable" Y.sc
Substitution2: "sups subtable" Y.sups
Substitution2: "sinf subtable" Y.sinf
Substitution2: "ordn subtable" Y.ordn
Substitution2: "subs subtable" Y.subs
EndChar
StartChar: Z
Encoding: 90 90 58
Width: 594
Flags: W
HStem: -5 51<185.76 464.482> 2 44<185.76 462.628> 547 52<215.925 472.004>
AnchorPoint: "top_accent" 421 650 basechar 0
LayerCount: 2
Fore
SplineSet
591 599 m 2x60
 608 599 621 585 621 567 c 0
 621 540 583.074 502.194 527 441 c 2
 193 76 l 2
 174.592 55.8838 175 46 197 46 c 2
 405 46 l 2
 437 46 465 67 483 82 c 0
 503 98 524 131 545 131 c 0
 557 131 558 127 558 113 c 0
 558 88 533 37 507 8 c 0
 499 -1 482 -5 468 -5 c 0xa0
 354 -5 200 2 162 2 c 0
 144 2 81 -3 58 -3 c 0
 48 -3 36 11 36 21 c 0
 36 40 74.5615 87.9463 89.999 105 c 2
 472 527 l 2
 484.763 541.075 488 547 457 547 c 2
 258 547 l 2
 217 547 165 465 154 465 c 0
 139 465 129 474 129 492 c 0
 129 504 149 545.431 173 587 c 0
 179 597.393 188 606 197 606 c 0
 215.506 606 249.665 599 292 599 c 2
 591 599 l 2x60
EndSplineSet
Validated: 1
Substitution2: "Swash subtable" Z.sw
Substitution2: "c2sc subtable" Z.sc
Substitution2: "sups subtable" Z.sups
Substitution2: "sinf subtable" Z.sinf
Substitution2: "ordn subtable" Z.ordn
Substitution2: "subs subtable" Z.subs
EndChar
StartChar: a
Encoding: 97 97 65
Width: 497
Flags: W
HStem: -14 76<77.0297 178.221 329.5 400.117> 347 55<280.386 364.061>
VStem: 14 95<24 125.298>
AnchorPoint: "ogonek" 401 18 basechar 0
AnchorPoint: "top_accent" 400 570 basechar 0
LayerCount: 2
Fore
SplineSet
462 407 m 6
 380 79 l 6
 377 67 379 62 388 62 c 4
 424 62 455 110 470 110 c 4
 476 110 477 103 477 97 c 4
 477 62 397 -14 337 -14 c 4
 279 -14 304 73 315 121 c 4
 317 131 311 131 307 125 c 4
 252 51 184 -14 86 -14 c 4
 45 -14 14 5 14 43 c 4
 14 188 255 402 345 402 c 4
 359 402 366 396 372 396 c 4
 379 396 385 403 397 430 c 4
 400 437 408 442 415 442 c 4
 456 442 466 423 462 407 c 6
109 86 m 4
 109 72 114 58 127 58 c 4
 210 58 360 249 360 313 c 4
 360 326 344 347 321 347 c 4
 273 347 109 161 109 86 c 4
EndSplineSet
Validated: 33
Substitution2: "Smallcaps subtable" a.sc
Substitution2: "sups subtable" a.sups
Substitution2: "sinf subtable" a.sinf
Substitution2: "ordn subtable" a.ordn
Substitution2: "subs subtable" a.subs
EndChar
StartChar: b
Encoding: 98 98 66
Width: 396
Flags: W
HStem: -14 60<124.172 207.925> 366 64<280.172 374.5> 662 20G<202 229>
VStem: 35 77<58.1604 186.135> 157 85<545.438 666.709> 342 85<230.097 364.168>
AnchorPoint: "top_accent" 275 749 basechar 0
LayerCount: 2
Fore
SplineSet
184.812 344 m 0
 240.218 394.948 312 430 354 430 c 0
 395 430 427 386 427 340 c 8
 427 159.54 249 -14 129 -14 c 0
 79 -14 35 32 35 82 c 0
 35 107 39.9843 125.861 47 154 c 2
 148 558 l 2
 154.29 583.228 157 593 157 604 c 0
 157 612 87 626 87 641 c 0
 87 656 186 682 218 682 c 0
 240 682 242 670 242 657 c 0
 242 635 236.372 608.826 227 572 c 2
 174 360 l 2
 171.077 348.362 167.882 328.432 184.812 344 c 0
112 105 m 0
 112 71 139 46 161 46 c 256
 244 46 342 189 342 320 c 0
 342 344 336 366 313 366 c 0
 213 366 112 177 112 105 c 0
EndSplineSet
Validated: 1
Substitution2: "Smallcaps subtable" b.sc
Substitution2: "sups subtable" b.sups
Substitution2: "sinf subtable" b.sinf
Substitution2: "ordn subtable" b.ordn
Substitution2: "subs subtable" b.subs
EndChar
StartChar: c
Encoding: 99 99 67
Width: 346
Flags: W
HStem: -14 67<102.25 211.379> 386 44<211.076 305.442>
VStem: 36 88<63.3684 241.014>
AnchorPoint: "cedilla" 197 8 basechar 0
AnchorPoint: "top_accent" 305 570 basechar 0
LayerCount: 2
Fore
SplineSet
288 430 m 4
 322 430 365 415 365 381 c 4
 365 366 345 332 330 332 c 4
 317 332 307 334.6 288 366 c 4
 282.306 375.411 264 386 253 386 c 4
 195 386 124 242 124 130 c 4
 124 84 140 53 176 53 c 4
 221 53 268 131 278 131 c 4
 288 131 303 124 303 106 c 4
 303 81 224 -14 139 -14 c 4
 68 -14 36 58 36 126 c 4
 36 187 50.9773 239.168 82 294 c 4
 128.288 375.813 201 430 288 430 c 4
EndSplineSet
Validated: 1
Substitution2: "Smallcaps subtable" c.sc
Substitution2: "sups subtable" c.sups
Substitution2: "sinf subtable" c.sinf
Substitution2: "ordn subtable" c.ordn
Substitution2: "subs subtable" c.subs
EndChar
StartChar: d
Encoding: 100 100 68
Width: 416
Flags: W
HStem: -14 70<78.8371 175.005 310.86 369.117> 384 46<250.969 331.575> 662 20G<447 474>
VStem: 20 86<59.0427 189.706> 402 85<547.07 666.709>
LayerCount: 2
Fore
SplineSet
333 353 m 0
 333 370 320 384 302 384 c 0
 233 384 106 220 106 90 c 0
 106 68 120 56 141 56 c 256
 241 56 333 245 333 353 c 0
359 422 m 2
 393 558 l 2
 399.22 582.946 402 593 402 604 c 0
 402 612 332 626 332 641 c 0
 332 656 431 682 463 682 c 0
 485 682 487 670 487 657 c 0
 487 635 481.193 608.871 472 572 c 2
 349 79 l 2
 345.855 66.3857 348 62 357 62 c 0
 393 62 424 110 439 110 c 0
 445 110 446 103 446 97 c 0
 446 62 366 -14 306 -14 c 0
 273 -14 257.042 31.3428 270 66 c 0
 273.502 75.3672 268.932 84.2998 261 74 c 0
 230.98 35.0195 156 -14 102 -14 c 0
 50 -14 20 45 20 97 c 0
 20 261 193 430 300 430 c 0
 316 430 330.571 425.665 340 420 c 0
 348.571 414.85 356.581 412.297 359 422 c 2
EndSplineSet
Validated: 33
Substitution2: "Smallcaps subtable" d.sc
Substitution2: "sups subtable" d.sups
Substitution2: "sinf subtable" d.sinf
Substitution2: "ordn subtable" d.ordn
Substitution2: "subs subtable" d.subs
EndChar
StartChar: e
Encoding: 101 101 69
Width: 353
Flags: W
HStem: -12 67<96.5 214.854> 200 37<135.001 204.062> 390 40<212.843 282.517>
VStem: 26 88<73.8621 220.948> 283 75<308.229 388.388>
AnchorPoint: "cedilla" 191 8 basechar 0
AnchorPoint: "ogonek" 218 18 basechar 0
AnchorPoint: "top_accent" 298 570 basechar 0
LayerCount: 2
Fore
SplineSet
262 430 m 4
 328 430 358 400 358 353 c 4
 358 272 209 200 131 200 c 4
 121 200 114 170.6 114 150 c 4
 114 105 130 55 175 55 c 4
 221 55 267 102 276 102 c 4
 288 102 290 89 290 78 c 4
 290 50 207 -12 131 -12 c 4
 62 -12 26 63 26 133 c 4
 26 281 148 430 262 430 c 4
135 244 m 4
 135 240 137 237 141 237 c 4
 218 237 283 314 283 366 c 4
 283 384 264 390 247 390 c 4
 216 390 135 295 135 244 c 4
EndSplineSet
Validated: 1
Substitution2: "Smallcaps subtable" e.sc
Substitution2: "sups subtable" e.sups
Substitution2: "sinf subtable" e.sinf
Substitution2: "ordn subtable" e.ordn
Substitution2: "subs subtable" e.subs
EndChar
StartChar: f
Encoding: 102 102 70
Width: 280
Flags: W
HStem: -267 59<-96.5 -13.0655> 391 39<197.828 322.665> 542 21G<401 424.5> 648 47<285.511 370.253>
VStem: 392 73<552.506 626.056>
LayerCount: 2
Fore
SplineSet
353 695 m 4
 414 695 465 654 465 603 c 4
 465 561 438 542 411 542 c 4
 391 542 392 555 392 582 c 4
 392 608 362 648 329 648 c 4
 265.753 648 204.143 504.714 197 444 c 4
 196 437 191.271 425.358 207 426 c 6
 311 430 l 6
 321.991 430.423 324 427 324 417 c 4
 324 407 312.988 391.516 301 391 c 6
 195 385 l 6
 183.019 384.33 180.588 379.921 178.999 364 c 4
 174.008 313.998 130 34 110 -48 c 4
 90 -129 23 -267 -81 -267 c 4
 -112 -267 -154 -250 -154 -219 c 4
 -154 -189 -140 -159 -112 -159 c 4
 -98 -159 -66 -208 -41 -208 c 4
 -8 -208 5.6702 -164.672 19 -109 c 4
 36 -38 86.8882 239.495 98 364 c 4
 98.8889 373.96 99.9932 379.384 89 379 c 6
 32 376 l 6
 22.0156 375.475 16 377 16 387 c 4
 16 397 29.0229 417.29 40 418 c 6
 96 421 l 6
 105.985 421.541 106.244 423.387 109 433 c 4
 160.544 612.756 286 695 353 695 c 4
EndSplineSet
Validated: 33
Substitution2: "Single Substitution lookup 64 subtable" f.short
Substitution2: "Single Substitution lookup 63 subtable" f.short
Substitution2: "Smallcaps subtable" f.sc
Substitution2: "sups subtable" f.sups
Substitution2: "sinf subtable" f.sinf
Substitution2: "ordn subtable" f.ordn
Substitution2: "subs subtable" f.subs
Substitution2: "loclDEU subtable" f.DEU
EndChar
StartChar: g
Encoding: 103 103 71
Width: 422
Flags: W
HStem: -273 50<57.0303 238.823> 361 63<352.315 464.298> 363 52<336.137 423.812> 384 46<184.802 255.69>
VStem: -84 81<-178.769 -113.305> 28 80<135.798 278.425> 76 76<32.6362 79.1407> 260 78<228.555 362.604> 292 80<-185.074 -111.293>
AnchorPoint: "top_accent" 274 570 basechar 0
LayerCount: 2
Fore
SplineSet
252 430 m 0x9c
 264 430 310 415 352 415 c 0xac
 358 415 411 424 427 424 c 0
 454.46 424 466 412 466 393 c 0
 466 374 451 361 425 361 c 0xcc
 400 361 353 363 342 363 c 0
 328 363 338 328 338 305 c 0xad
 338 204 263.001 117.776 178 95 c 0
 155.784 89.0472 152 80 152 68 c 0
 152 41 185 24 212 8 c 0
 284 -35 372 -73 372 -133 c 0
 372 -217 224 -273 107 -273 c 0
 23 -273 -84 -247 -84 -162 c 0
 -84 -111 8.05318 -41.5623 92 -12 c 0
 100.489 -9.01055 98.6883 -3.02217 92 3 c 0
 83.0823 11.0296 76 25 76 36 c 0xaa80
 76 56 89.8327 74.5564 109 89 c 0
 115.389 93.8145 113.233 95.2653 99 100 c 0
 63.8916 111.679 28 151 28 189 c 0
 28 300 99 430 252 430 c 0x9c
108 175 m 0
 108 153 120 130 142 130 c 0
 196 130 260 236 260 326 c 0
 260 352 257 384 231 384 c 0x9d
 170 384 108 269 108 175 c 0
-3 -142 m 0
 -3 -186 80 -223 170 -223 c 0
 221 -223 292 -207 292 -156 c 0x8880
 292 -126 276.211 -115.698 263 -105 c 0
 237.626 -84.4527 182 -54 140 -39 c 0
 131 -36 126 -36 117 -39 c 0
 85 -50 -3 -99 -3 -142 c 0
EndSplineSet
Validated: 33
Substitution2: "Smallcaps subtable" g.sc
Substitution2: "sups subtable" g.sups
Substitution2: "sinf subtable" g.sinf
Substitution2: "ordn subtable" g.ordn
Substitution2: "subs subtable" g.subs
EndChar
StartChar: h
Encoding: 72 104 72
Width: 502
Flags: MW
LayerCount: 2
Fore
SplineSet
59 109 m 2
 171 558 l 2
 177 583 180 593 180 604 c 0
 180 612 110 626 110 641 c 0
 110 656 209 682 241 682 c 0
 263 682 265 670 265 657 c 0
 265 635 259 609 250 572 c 2
 183 306 l 2
 180 294 181 270 194 290 c 0
 268 403 363 430 405 430 c 0
 446 430 478 386 478 340 c 0
 478 255 450 165 424 95 c 0
 415 72 327 -14 289 -14 c 0
 268 -14 243 -2 243 20 c 0
 243 32 272 72 287 72 c 0
 300 72 318 57 331 57 c 0
 337 57 346 62 350 75 c 0
 383 174 398 239 398 320 c 0
 398 344 381 366 358 366 c 0
 269 366 164 170 108 17 c 0
 105 8 95 -13 84 -14 c 0
 67 -16 51 5 50 11 c 0
 47 29 42 39 59 109 c 2
EndSplineSet
Substitution2: "Smallcaps subtable" h.sc
Substitution2: "sups subtable" h.sups
Substitution2: "sinf subtable" h.sinf
Substitution2: "ordn subtable" h.ordn
Substitution2: "subs subtable" h.subs
EndChar
StartChar: k
Encoding: 107 107 75
Width: 453
Flags: W
HStem: -14 74<313.41 378.375> 148 36<152.026 184.862> 364 66<294.31 374.5> 662 20G<202 229>
VStem: 27 58<-11.7812 85.4297> 157 85<548.93 666.709> 334 84<289.283 363.071>
LayerCount: 2
Fore
SplineSet
144 148 m 0
 135 148 129 148 119 122 c 0
 106 89 106 81 85 17 c 0
 82 8 72 -13 61 -14 c 0
 44 -16 28 5 27 11 c 0
 24 29 19 39 36 109 c 2
 148 558 l 2
 154 583 157 593 157 604 c 0
 157 612 87 626 87 641 c 0
 87 656 186 682 218 682 c 0
 240 682 242 670 242 657 c 0
 242 635 236 609 227 572 c 2
 160 304 l 2
 155.746 287.066 164 293 172 301 c 0
 186 315 288 430 351 430 c 0
 398 430 418 391 418 349 c 0
 418 287 340.461 214.253 250 178 c 0
 241.646 174.652 241.105 168.785 248 163 c 0
 280.939 135.36 315 60 346 60 c 0
 382 60 411 114 426 114 c 0
 432 114 433 107 433 101 c 0
 433 63 388 -14 317 -14 c 0
 282 -14 241.995 65.3769 197 119 c 0
 182.859 135.853 159 148 144 148 c 0
152 203 m 0
 152 194 156 184 165 184 c 0
 222 184 334 254 334 326 c 0
 334 345 326 364 307 364 c 0
 266 364 152 228 152 203 c 0
EndSplineSet
Validated: 33
Substitution2: "Smallcaps subtable" k.sc
Substitution2: "sups subtable" k.sups
Substitution2: "sinf subtable" k.sinf
Substitution2: "ordn subtable" k.ordn
Substitution2: "subs subtable" k.subs
EndChar
StartChar: l
Encoding: 108 108 76
Width: 195
Flags: W
HStem: -14 76<40.7792 124.117> 662 20G<202 229>
VStem: 157 85<549.539 666.709>
LayerCount: 2
Fore
SplineSet
104 79 m 2
 101.097 67.3565 103 62 112 62 c 0
 148 62 179 110 194 110 c 0
 200 110 201 103 201 97 c 0
 201 62 121 -14 61 -14 c 0
 28 -14 17 5 17 27 c 0
 17 39 21 50 23 58 c 2
 148 558 l 2
 154.371 583.485 157 593 157 604 c 0
 157 612 87 626 87 641 c 0
 87 656 186 682 218 682 c 0
 240 682 242 670 242 657 c 0
 242 635 236.198 608.869 227 572 c 2
 104 79 l 2
EndSplineSet
Validated: 1
Substitution2: "Smallcaps subtable" l.sc
Substitution2: "sups subtable" l.sups
Substitution2: "sinf subtable" l.sinf
Substitution2: "ordn subtable" l.ordn
Substitution2: "subs subtable" l.subs
Substitution2: "loclCAT subtable" l.CAT
EndChar
StartChar: m
Encoding: 109 109 77
Width: 721
Flags: W
HStem: -14 76<531.779 615.796> 374 56<317.844 405.538 555.274 651.713>
VStem: 18 71<-7.10395 69.8906> 260 71<-7.10395 69.4375>
AnchorPoint: "top_accent" 465 570 basechar 0
LayerCount: 2
Fore
SplineSet
443 332 m 0
 440.26 322.383 446.515 323.515 455 332 c 0
 532.075 409.075 587 430 645 430 c 0
 693 430 697 363 677 300 c 1
 600 79 l 2
 596 68 599 62 608 62 c 0
 644 62 675 110 690 110 c 0
 696 110 697 103 697 97 c 0
 697 62 612 -14 552 -14 c 0
 519 -14 508 5 508 27 c 0
 508 39 511 50 514 58 c 2
 594 286 l 2
 613 339 619 374 593 374 c 0
 497 374 382 157 331 17 c 0
 328 8 318 -13 307 -14 c 0
 290 -16 260 5 260 11 c 0
 260 29 267 43 275 66 c 2
 352 286 l 2
 370 339 377 374 351 374 c 0
 255 374 140 157 89 17 c 0
 86 8 76 -13 65 -14 c 0
 48 -16 18 5 18 11 c 0
 18 29 25 43 33 66 c 2
 122 315 l 10
 128 331 131 357 115 357 c 0
 77 357 48 312 34 312 c 0
 27 312 23 325 23 333 c 0
 23 356 94 430 159 430 c 0
 200 430 207 390 193 330 c 0
 191 323 199 320 204 324 c 0
 281 400 345 430 403 430 c 0
 443 430 457.52 382.972 443 332 c 0
EndSplineSet
Validated: 33
Substitution2: "Smallcaps subtable" m.sc
Substitution2: "sups subtable" m.sups
Substitution2: "sinf subtable" m.sinf
Substitution2: "ordn subtable" m.ordn
Substitution2: "subs subtable" m.subs
EndChar
StartChar: n
Encoding: 110 110 78
Width: 479
Flags: W
HStem: -14 76<289.779 373.796> 374 56<317.844 409.627>
VStem: 18 71<-7.10395 69.8906>
AnchorPoint: "top_accent" 343 570 basechar 0
LayerCount: 2
Fore
SplineSet
33 66 m 2
 122 315 l 10
 127.589 330.637 131 357 115 357 c 0
 77 357 48 312 34 312 c 0
 27 312 23 325 23 333 c 0
 23 356 94 430 159 430 c 0
 200 430 207 390 193 330 c 0
 191 323 199.442 319.502 204 324 c 0
 281 400 345 430 403 430 c 0
 451 430 455.066 362.876 435 300 c 1
 358 79 l 2
 354.148 67.9463 357 62 366 62 c 0
 402 62 433 110 448 110 c 0
 454 110 455 103 455 97 c 0
 455 62 370 -14 310 -14 c 0
 277 -14 266 5 266 27 c 0
 266 39 269.171 49.9375 272 58 c 2
 352 286 l 2
 370.509 338.853 377 374 351 374 c 0
 255 374 140 157 89 17 c 0
 86 8 76 -13 65 -14 c 0
 48 -16 18 5 18 11 c 0
 18 29 24.6875 42.7432 33 66 c 2
EndSplineSet
Validated: 33
Substitution2: "Smallcaps subtable" n.sc
Substitution2: "sups subtable" n.sups
Substitution2: "sinf subtable" n.sinf
Substitution2: "ordn subtable" n.ordn
Substitution2: "subs subtable" n.subs
EndChar
StartChar: o
Encoding: 111 111 79
Width: 368
Flags: W
HStem: -14 46<125.492 196.475> 384 46<200.547 272.067>
VStem: 35 80<49.4687 242.436> 278 80<177.491 373.885>
AnchorPoint: "ogonek" 221 18 basechar 0
AnchorPoint: "top_accent" 280 570 basechar 0
LayerCount: 2
Fore
SplineSet
241 430 m 4
 310.67 430 358 365 358 295 c 4
 358 152 267 -14 155 -14 c 4
 83 -14 35 59 35 131 c 4
 35 271 134 430 241 430 c 4
115 105 m 4
 115 71 124 32 157 32 c 260
 220 32 278 198 278 320 c 4
 278 352 273 384 243 384 c 4
 174 384 115 228 115 105 c 4
EndSplineSet
Validated: 1
Substitution2: "Smallcaps subtable" o.sc
Substitution2: "sups subtable" o.sups
Substitution2: "sinf subtable" o.sinf
Substitution2: "ordn subtable" o.ordn
Substitution2: "subs subtable" o.subs
EndChar
StartChar: p
Encoding: 112 112 80
Width: 416
Flags: W
HStem: -269 38<66.4845 128.922> -262 39<-86.8014 -24.2969> -11 49<134.972 219.711> 380 50<210.985 326.098>
VStem: 132 78<418.081 462.923> 336 82<223.993 372.617>
AnchorPoint: "top_accent" 316 570 basechar 0
LayerCount: 2
Fore
SplineSet
190 341 m 6x3c
 129 96 l 6
 121 64 145 38 179 38 c 4
 244 38 336 216 336 327 c 4
 336 354 318 380 292 380 c 4
 234 380 196.048 365.257 190 341 c 6x3c
222 415 m 4
 249.251 424.919 281 430 309 430 c 4
 399 430 418 380 418 322 c 4
 418 182 262 -11 154 -11 c 4
 148 -11 120 0 115 0 c 4
 110 0 104 -1 100 -17 c 6
 58 -186 l 6
 52 -208 78 -225 103 -231 c 4
 117 -234 129 -241 129 -251 c 4
 129 -265 113 -269 98 -269 c 4xbc
 85 -269 -1 -262 -60 -262 c 4
 -76 -262 -87 -257 -87 -245 c 4
 -87 -231 -72 -225 -60 -223 c 4x7c
 -27 -216 -23 -207 -16 -181 c 6
 109 317 l 6
 113.385 334.458 111.927 337.571 98 332 c 4
 79.4303 324.573 52 314 49 314 c 4
 39 314 37 316 37 326 c 4
 37 346 95.9215 377.388 107 382 c 4
 124.541 389.302 126.6 392.706 132 413 c 4
 140.228 443.924 172 509 201 509 c 4
 217 509 213.796 453.685 210 431 c 4
 205.709 405.357 211.663 411.238 222 415 c 4
EndSplineSet
Validated: 33
Substitution2: "Smallcaps subtable" p.sc
Substitution2: "sups subtable" p.sups
Substitution2: "sinf subtable" p.sinf
Substitution2: "ordn subtable" p.ordn
Substitution2: "subs subtable" p.subs
EndChar
StartChar: q
Encoding: 113 113 81
Width: 416
Flags: W
HStem: -272 40<116.298 201.432> -262 41<295.367 350.991> -14 70<82 175.775> 384 46<240.043 319.933>
VStem: 26 86<59.0427 196.589>
AnchorPoint: "top_accent" 334 570 basechar 0
LayerCount: 2
Fore
SplineSet
341 317 m 0x38
 341 344 307 384 289 384 c 0
 220 384 112 220 112 90 c 0
 112 68 126 56 147 56 c 256
 247 56 341 249 341 317 c 0x38
287 89 m 2
 289.385 98.7113 282.932 98.2998 275 88 c 0
 244.98 49.0195 162 -14 108 -14 c 0
 56 -14 26 45 26 97 c 0
 26 261 199 430 306 430 c 0
 325.774 430 348 414 361 389.656 c 0
 365.303 381.598 367.902 380.435 370 384 c 0
 392 421.374 402 438 415 438 c 0
 440 438 439 425 439 412 c 0
 439 390 429.193 356.871 420 320 c 2
 294 -187 l 2
 288.91 -207.481 303 -215 328 -221 c 0
 342.49 -224.478 351 -234 351 -241 c 0
 351 -255 338 -262 323 -262 c 0x78
 251 -262 162 -272 140 -272 c 0
 124 -272 116 -267 116 -255 c 0
 116 -241 132.848 -234.532 145 -232 c 0xb8
 193 -222 211.413 -214.961 220 -180 c 2
 287 89 l 2
EndSplineSet
Validated: 33
Substitution2: "Smallcaps subtable" q.sc
Substitution2: "sups subtable" q.sups
Substitution2: "sinf subtable" q.sinf
Substitution2: "ordn subtable" q.ordn
Substitution2: "subs subtable" q.subs
EndChar
StartChar: r
Encoding: 82 114 82
Width: 384
Flags: MW
AnchorPoint: "top_accent" 298 570 basechar 0
LayerCount: 2
Fore
SplineSet
309 332 m 0
 270 332 138 83 108 17 c 0
 104 8 95 -13 84 -14 c 0
 67 -16 37 5 37 11 c 0
 37 29 44 43 52 66 c 2
 141 315 l 10
 146.589 330.637 150 357 134 357 c 0
 96 357 67 312 53 312 c 0
 46 312 42 325 42 333 c 0
 42 356 113 430 178 430 c 0
 201 430 218.467 400.498 213 371 c 0
 208.262 345.435 189.5 287.6 181 267 c 0
 178.095 259.96 189 256 193 261 c 0
 291 401 319 430 364 430 c 0
 386 430 414 418 414 397 c 0
 414 357 377 311 358 311 c 0
 335 311 326 332 309 332 c 0
EndSplineSet
Validated: 33
Substitution2: "Smallcaps subtable" r.sc
Substitution2: "sups subtable" r.sups
Substitution2: "sinf subtable" r.sinf
Substitution2: "ordn subtable" r.ordn
Substitution2: "subs subtable" r.subs
EndChar
StartChar: s
Encoding: 115 115 83
Width: 290
Flags: W
HStem: -14 58<65.7236 156.938> 376 54<145.34 225.593>
VStem: 75 68<285.379 364.793> 165 72<57.1476 152.735>
AnchorPoint: "cedilla" 141 8 basechar 0
AnchorPoint: "top_accent" 243 570 basechar 0
LayerCount: 2
Fore
SplineSet
219 430 m 4
 253 430 288 402 288 372 c 4
 288 360 272 336 257 336 c 4
 245 336 208 376 167 376 c 4
 153 376 143 357 143 343 c 4
 143 320 180.643 255.496 213 196 c 4
 230 165 237 148 237 123 c 4
 237 40 144 -14 75 -14 c 4
 35 -14 4 15 4 54 c 4
 4 70 19 84 37 84 c 4
 47 84 81 44 127 44 c 4
 151 44 165 67 165 91 c 4
 165 114 134.413 176.426 86 257 c 4
 80.8496 265.571 75 285 75 300 c 4
 75 366 143 430 219 430 c 4
EndSplineSet
Validated: 1
Substitution2: "Smallcaps subtable" s.sc
Substitution2: "sups subtable" s.sups
Substitution2: "sinf subtable" s.sinf
Substitution2: "ordn subtable" s.ordn
Substitution2: "subs subtable" s.subs
Substitution2: "Single Substitution lookup 29 subtable" longs
EndChar
StartChar: t
Encoding: 116 116 84
Width: 301
Flags: W
HStem: -14 76<73.7792 157.117> 354 56<71.8141 134 220 339.056> 497 20G<202 225>
VStem: 158 77<438 498.444>
AnchorPoint: "cedilla" 141 8 basechar 0
LayerCount: 2
Fore
SplineSet
218 517 m 0
 232 517 235 505 235 492 c 0
 235 471 229 445 220 410 c 1
 323 410 l 2
 335 410 349 405 349 395 c 0
 349 383 324 354 303 354 c 2
 210 354 l 1
 137 79 l 2
 133.827 67.0479 136 62 145 62 c 0
 181 62 212 110 227 110 c 0
 233 110 234 103 234 97 c 0
 234 62 154 -14 94 -14 c 0
 61 -14 50 5 50 27 c 0
 50 39 53.8994 50.0293 56 58 c 2
 134 354 l 1
 87 354 l 2
 75 354 64 358 64 368 c 0
 64 384 85 410 106 410 c 2
 144 410 l 1
 158 466 l 2
 160 476 186 517 218 517 c 0
EndSplineSet
Validated: 1
Substitution2: "Smallcaps subtable" t.sc
Substitution2: "sups subtable" t.sups
Substitution2: "sinf subtable" t.sinf
Substitution2: "ordn subtable" t.ordn
Substitution2: "subs subtable" t.subs
EndChar
StartChar: u
Encoding: 117 117 85
Width: 475
Flags: W
HStem: -14 75<98.6588 164.435 327.182 384.117> 352 78<119.34 197.177>
VStem: 389 59<354.917 426.757>
AnchorPoint: "ogonek" 385 18 basechar 0
AnchorPoint: "top_accent" 323 570 basechar 0
LayerCount: 2
Fore
SplineSet
310 163.934 m 0
 248.62 71.8643 170 -14 99 -14 c 0
 63 -14 43 36 49 62 c 2
 122 315 l 2
 127 331 132 352 120 352 c 0
 92 352 53 304 39 304 c 0
 32 304 28 320 28 328 c 0
 28 348 129 430 182 430 c 0
 223 430 216 383 210 363 c 2
 137 110 l 2
 132 89 132 61 150 61 c 0
 201 61 290 191.934 326 251.934 c 0
 352 296.934 364 326 389 418 c 0
 391 426 400 430 407 430 c 0
 448 430 452 396 448 380 c 2
 364 79 l 2
 361 67 363 62 372 62 c 0
 408 62 439 110 454 110 c 0
 460 110 461 103 461 97 c 0
 461 62 381 -14 321 -14 c 0
 263 -14 290 80.8662 318 159.934 c 0
 321.404 169.546 312 166.934 310 163.934 c 0
EndSplineSet
Validated: 33
Substitution2: "Smallcaps subtable" u.sc
Substitution2: "sups subtable" u.sups
Substitution2: "sinf subtable" u.sinf
Substitution2: "ordn subtable" u.ordn
Substitution2: "subs subtable" u.subs
Substitution2: "Single Substitution lookup 24 subtable" u.LAT
Substitution2: "loclLAT subtable" u.LAT
EndChar
StartChar: v
Encoding: 118 118 86
Width: 454
Flags: W
HStem: -14 75<95.5 201.316> 352 78<119.34 197.12>
VStem: 357 72<241.244 346.53>
AnchorPoint: "top_accent" 303 570 basechar 0
LayerCount: 2
Fore
SplineSet
126 -14 m 0
 65 -14 52.0779 62.5278 78 156 c 2
 122 315 l 2
 126.472 331.158 132 352 120 352 c 0
 92 352 53 304 39 304 c 0
 32 304 28 320 28 328 c 0
 28 348 129 430 182 430 c 0
 223 430 215.647 383.226 210 363 c 2
 148 141 l 2
 138.857 108.252 144 61 180 61 c 0
 259 61 357 210 357 290 c 0
 357 330 323 355 323 374 c 0
 323 391 352 430 374 430 c 0
 404 430 429 384 429 337 c 0
 429 192 250 -14 126 -14 c 0
EndSplineSet
Validated: 33
Substitution2: "Smallcaps subtable" v.sc
Substitution2: "sups subtable" v.sups
Substitution2: "sinf subtable" v.sinf
Substitution2: "ordn subtable" v.ordn
Substitution2: "subs subtable" v.subs
AlternateSubs2: "v_alternates subtable" v.init v.alt v.initalt
Substitution2: "ss03 subtable" v.alt
Substitution2: "Single Substitution lookup 25 subtable" v.LATmedi
Substitution2: "loclLAT subtable" v.LAT
EndChar
StartChar: w
Encoding: 119 119 87
Width: 685
Flags: W
HStem: -14 75<95.5 189.92 353.5 447.979> 352 78<119.34 197.177>
VStem: 313 59<69.9768 113.367> 341 98<264.779 350.763> 588 72<235.209 346.53>
AnchorPoint: "top_accent" 439 570 basechar 0
LayerCount: 2
Fore
SplineSet
307 113 m 0xe8
 254 39 172 -14 126 -14 c 0
 65 -14 52 63 78 156 c 2
 122 315 l 2
 126 331 132 352 120 352 c 0
 92 352 53 304 39 304 c 0
 32 304 28 320 28 328 c 0
 28 348 129 430 182 430 c 0
 223 430 216 383 210 363 c 2
 148 141 l 2
 139 108 144 61 180 61 c 0
 235 61 292 142 327 212 c 0
 328 214 328 262 341 305 c 0
 354 347 379 383 411 383 c 0
 422 383 439 384 439 337 c 0xd8
 439 311 424 273 400 233 c 0
 377 194 372 148 372 128 c 0
 372 98 386 61 416 61 c 0
 507 61 588 210 588 290 c 0
 588 330 554 355 554 374 c 0
 554 391 583 430 605 430 c 0
 635 430 660 384 660 337 c 0
 660 192 498 -14 374 -14 c 0
 333 -14 313 37 313 83 c 0
 313 92 314 100 315 108 c 0
 317 118 313 121 307 113 c 0xe8
EndSplineSet
Validated: 33
Substitution2: "Smallcaps subtable" w.sc
Substitution2: "sups subtable" w.sups
Substitution2: "sinf subtable" w.sinf
Substitution2: "ordn subtable" w.ordn
Substitution2: "subs subtable" w.subs
Substitution2: "ss03 subtable" w.alt
EndChar
StartChar: x
Encoding: 88 120 88
Width: 531
Flags: MW
AnchorPoint: "top_accent" 361 570 basechar 0
LayerCount: 2
Fore
SplineSet
161 352 m 0
 124 352 88 279 74 279 c 0
 67 279 63 295 63 303 c 0
 63 323 116 430 185 430 c 0
 226 430 253 389 273 332 c 2
 290 284 l 1
 353 371 412 430 480 430 c 0
 512 430 534 399 534 366 c 0
 534 326 510 304 470 304 c 0
 456 304 455 355 425 355 c 0
 397 355 346 295 306 237 c 1
 319 200 l 2
 357 90 365 69 400 69 c 0
 436 69 465 114 480 114 c 0
 486 114 487 107 487 101 c 0
 487 63 431 -14 360 -14 c 0
 325 -14 290 32 269 96 c 2
 251 152 l 1
 195 69 126 -14 72 -14 c 0
 41 -14 13 10 13 41 c 0
 13 77 39 103 61 103 c 0
 75 103 83 62 110 62 c 0
 146 62 197 146 230 196 c 0
 231 198 233 201 234 203 c 1
 202 302 l 2
 191 335 173 352 161 352 c 0
EndSplineSet
Validated: 1
Substitution2: "Smallcaps subtable" x.sc
Substitution2: "sups subtable" x.sups
Substitution2: "sinf subtable" x.sinf
Substitution2: "ordn subtable" x.ordn
Substitution2: "subs subtable" x.subs
EndChar
StartChar: y
Encoding: 121 121 89
Width: 437
Flags: W
HStem: -270 62<-5.60067 99.2246> 352 78<122.944 182.951>
VStem: 364 68<304.202 427.875>
AnchorPoint: "top_accent" 339 570 basechar 0
LayerCount: 2
Fore
SplineSet
192.001 302 m 0
 186.792 331.544 175 352 153 352 c 0
 116 352 80 279 66 279 c 0
 59 279 55 295 55 303 c 0
 55 323 108 430 177 430 c 0
 218 430 253.89 393.977 267 332 c 0
 278 280 276.765 198.324 270 121 c 0
 269.129 111.038 277.444 98.2695 285 115 c 0
 327 208 358.572 329.38 364 368 c 0
 369.872 409.779 383 435 401 435 c 0
 415 435 432 409 432 385 c 0
 432 365 373.839 166.186 291 5 c 0
 232.619 -108.596 148.293 -270 24 -270 c 0
 -27.4053 -270 -45 -246 -45 -217 c 0
 -45 -196 -19 -171 2 -171 c 0
 17 -171 39 -208 69 -208 c 0
 151 -208 207 -2.07 207 118 c 0
 207 203.3 204.493 231.153 192.001 302 c 0
EndSplineSet
Validated: 33
Substitution2: "Smallcaps subtable" y.sc
Substitution2: "sups subtable" y.sups
Substitution2: "sinf subtable" y.sinf
Substitution2: "ordn subtable" y.ordn
Substitution2: "subs subtable" y.subs
EndChar
StartChar: z
Encoding: 122 122 90
Width: 455
Flags: W
HStem: -35 83<265.564 339.744> -14 21G<31.5 47> 50 56<127 191> 365 65<129.518 235.136>
VStem: 44 71<270.295 355.852> 369 58<59.3397 151.693>
AnchorPoint: "top_accent" 306 570 basechar 0
LayerCount: 2
Fore
SplineSet
324 387 m 0x7c
 353 387 372.019 401.717 395 421 c 0
 402.66 427.428 414 440 422 440 c 0
 436.98 440 450 426 450 416 c 0
 450 411 426.632 384.637 413 370 c 2
 195.999 137 l 2
 172.219 112.698 179 106 191 106 c 0
 249 106 263 48 317 48 c 0
 336 48 369 67 369 95 c 0
 369 126 355 144 355 149 c 0
 355 164 362.94 170 371 170 c 0
 405 170 427 133 427 103 c 0
 427 45 343 -35 270 -35 c 0xbc
 225 -35 175 50 127 50 c 0
 81 50 56 -14 38 -14 c 0
 25 -14 15 -2 15 14 c 0
 15 30 41.3154 68.6455 103 130 c 2
 290 316 l 2
 293.562 319.507 293.945 329.955 284 331 c 0
 238.252 335.809 196 365 153 365 c 0
 132 365 115 352 115 333 c 0
 115 317 121 303 121 288 c 0
 121 273 97.0215 261 86 261 c 0
 72.7119 261 44 282 44 315 c 0
 44 347 125 430 201 430 c 0
 259 430 302 387 324 387 c 0x7c
EndSplineSet
Validated: 33
Substitution2: "Smallcaps subtable" z.sc
Substitution2: "sups subtable" z.sups
Substitution2: "sinf subtable" z.sinf
Substitution2: "ordn subtable" z.ordn
Substitution2: "subs subtable" z.subs
EndChar
StartChar: exclamdown
Encoding: 161 161 95
Width: 203
Flags: W
HStem: 395 109<106.538 193.323>
VStem: 35 116<-99.6758 37.5596> 93 115<409.75 490.275>
LayerCount: 2
Fore
SplineSet
148 395 m 0xa0
 118 395 93 417 93 447 c 0
 93 479 121 504 153 504 c 0
 181 504 208 484 208 456 c 0
 208 423 181 395 148 395 c 0xa0
74 -137 m 0
 49 -137 35 -109 35 -85 c 0
 35 -25 109 266 129 266 c 0
 146 266 147 230 149 207 c 0
 152 174 151 38 151 4 c 0xc0
 151 -58 133 -137 74 -137 c 0
EndSplineSet
Validated: 33
EndChar
StartChar: uni00AD
Encoding: 2117 173 2135
Width: 386
Flags: HW
LayerCount: 2
Fore
SplineSet
320 271 m 2
 334 272 351 266 351 243 c 0
 351 220 341 195 318 194 c 2
 99 176 l 2
 65 173 45 175 45 195 c 0
 45 214 56 249 82 252 c 2
 320 271 l 2
EndSplineSet
EndChar
StartChar: macron
Encoding: 104 175 102
Width: 473
Flags: MW
LayerCount: 2
Fore
SplineSet
77 625 m 1
 107 631 l 2
 117 633 123 634 127 633 c 1
 136 636 144 639 151 640 c 2
 219 653 l 2
 225 654 244 652 277 646 c 1
 362 655 405 658 405 654 c 1
 419 651 427 642 429 627 c 1
 430 625 l 1
 433 604 419 589 389 578 c 1
 374 575 l 1
 338 582 310 584 289 580 c 0
 264 575 230 574 186 577 c 1
 106 563 64 561 62 573 c 1
 58 572 55 578 51 591 c 1
 49 606 58 617 77 625 c 1
EndSplineSet
Validated: 33
EndChar
StartChar: mu
Encoding: 110 181 107
Width: 587
Flags: MW
LayerCount: 2
Fore
SplineSet
397 90 m 0
 396 96 386 117 383 112 c 0
 347 38 291 -14 241 -14 c 0
 193 -14 155 4 129 36 c 0
 121 45 110 66 105 60 c 0
 83 32 53 -20 53 -80 c 0
 53 -158 77 -186 83 -250 c 0
 85 -269 70 -286 51 -286 c 0
 22 -286 -3 -269 -3 -236 c 0
 -3 -116 21 -12 59 66 c 0
 72 93 85 113 85 132 c 0
 85 216 105 289 116 330 c 0
 127 370 140 416 183 416 c 0
 212 416 220 382 218 354 c 0
 215 312 143 184 143 130 c 0
 143 93 154 50 191 48 c 0
 253 45 294 72 333 120 c 0
 389 189 395 254 421 330 c 0
 434 369 463 414 487 414 c 0
 510 414 517 387 517 364 c 0
 517 328 479 270 441 212 c 0
 431 197 427 181 427 166 c 0
 427 123 449 62 492 62 c 0
 523 62 548 80 566 106 c 0
 572 115 574 115 585 115 c 0
 592 115 592 83 587 74 c 0
 563 30 529 -12 477 -12 c 0
 424 -12 407 42 397 90 c 0
EndSplineSet
Validated: 545
Substitution2: "Smallcaps subtable" mu.sc
EndChar
StartChar: paragraph
Encoding: 182 182 108
Width: 669
Flags: W
HStem: -218 58<213.5 320.402> -88 20G<209 233.5> 119 65<340.871 401.745> 591 59<650.317 781.203> 608 64<446.29 612.223>
VStem: 11 323<212 468> 164 72<-156.496 -90.4824>
LayerCount: 2
Fore
SplineSet
468 672 m 0xec
 570 672 682 660 727 650 c 0
 754 644 786 637 786 616 c 0
 786 596 763 591 729 591 c 0
 711 591 677 600 649 600 c 0
 613 600 614.771 599.065 603 558 c 2
 429 -49 l 2
 401.161 -146.087 336.049 -218 236 -218 c 0
 191 -218 164 -187 164 -142 c 0
 164 -108 192 -68 226 -68 c 0
 241 -68 250 -79 250 -92 c 0
 250 -105 236 -113 236 -129 c 0xf2
 236 -145 250 -160 278 -160 c 0
 321 -160 340.667 -114.986 355 -65 c 2
 401 95 l 2
 407 114 398 119 380 119 c 0
 360 119 284 102 241 102 c 0
 106 102 11 225 11 360 c 0
 11 576 255 672 468 672 c 0xec
334 226 m 0xec
 334 198 362 184 388 184 c 0
 407 184 413 191 422 223 c 2
 522 568 l 2
 532 604 527 608 502 608 c 0
 468 608 439 590 426 560 c 0
 406 515 334 261 334 226 c 0xec
EndSplineSet
Validated: 33
Substitution2: "sups subtable" paragraph.sups
Substitution2: "sinf subtable" paragraph.sinf
Substitution2: "ordn subtable" paragraph.ordn
Substitution2: "subs subtable" paragraph.subs
EndChar
StartChar: periodcentered
Encoding: 112 183 935
Width: 229
Flags: MW
LayerCount: 2
Fore
SplineSet
118 368 m 0
 151.369 368 182 336.369 182 303 c 4
 182 267.149 148.851 234 113 234 c 0
 80.7051 234 48 259 48 294 c 0
 48 334 80.4785 368 118 368 c 0
EndSplineSet
Validated: 1
EndChar
StartChar: questiondown
Encoding: 115 191 111
Width: 341
Flags: MW
LayerCount: 2
Fore
SplineSet
158 -167 m 0
 83 -167 28 -99 28 -24 c 0
 28 22 81 88 174 132 c 0
 210 149 242 168 242 203 c 0
 242 226 214 239 214 259 c 0
 214 277 228 287 244 287 c 0
 267 287 320 251 320 208 c 0
 320 130 252 84 176 48 c 0
 134 29 100 -9 100 -57 c 0
 100 -92 136 -110 170 -110 c 0
 191 -110 217 -86 231 -86 c 0
 256 -86 269 -100 269 -120 c 0
 269 -140 206 -167 158 -167 c 0
301 377 m 0
 272 377 247 399 247 428 c 0
 247 458 271 481 301 481 c 0
 331 481 355 458 355 428 c 0
 355 399 330 377 301 377 c 0
EndSplineSet
Validated: 1
EndChar
StartChar: AE
Encoding: 122 198 118
Width: 903
Flags: MW
AnchorPoint: "top_accent" 638 650 basechar 0
LayerCount: 2
Fore
SplineSet
482 569 m 0
 473.03 570.56 466 579 466 588 c 0
 466 600 486 604 501 604 c 0
 540 604 598 599 634 599 c 2
 790 599 l 2
 826 599 847 606 880 606 c 0
 900 606 906 600 906 580 c 0
 906 567 890.141 522.455 886 507 c 0
 880.306 485.75 873 477 860 477 c 0
 848 477 848.002 485.197 845 508 c 0
 839.388 550.632 823 559 800 559 c 2
 692 559 l 2
 676 559 664.273 552.247 650 495 c 2
 620 375 l 2
 613.179 347.844 612.978 338 635 338 c 2
 731 338 l 2
 768 338 793 380 805 380 c 0
 817 380 818.604 364.565 814 345 c 0
 806 311 796 242 782 242 c 0
 767 242 763 249 756 269 c 0
 750.776 283.924 739 290 714 290 c 2
 632 290 l 2
 603 290 595 272 591 257 c 2
 560 133 l 2
 545 71 567 42 602 42 c 2
 718 42 l 2
 750 42 778 59 796 74 c 0
 816 90 837 123 858 123 c 0
 870 123 871 119 871 105 c 0
 871 80 846 37 820 8 c 0
 812 -1 795 -5 781 -5 c 0
 667 -5 528 2 490 2 c 0
 443 2 402 -2 387 -2 c 0
 371 -2 354 5 354 15 c 0
 354 30 386 34 409 44 c 0
 442 59 453.791 88.0535 464 129 c 2
 482 201 l 2
 484.903 212.644 478 216 464 216 c 10
 330 216 l 18
 320 216 313.856 212.07 306 203 c 2
 229 120 l 2
 202.961 91.9316 202 53 225 45 c 0
 252 35 273 30 273 15 c 0
 273 5 258 -2 242 -2 c 0
 230 -2 167 4 119 4 c 0
 72 4 45 -2 30 -2 c 0
 14 -2 -3 5 -3 15 c 0
 -3 30 29 34 52 44 c 0
 85 59 121.892 72.999 176 132 c 2
 552 542 l 2
 569 560 528 561 482 569 c 0
501 280 m 2
 546 460 l 2
 550.596 478.436 539.242 466.752 528 454 c 2
 379 285 l 2
 371.248 275.838 371 266 379 266 c 10
 487 266 l 18
 497 266 498.417 272.431 501 280 c 2
EndSplineSet
Validated: 33
Substitution2: "c2sc subtable" AE.sc
EndChar
StartChar: Eth
Encoding: 132 208 128
Width: 706
Flags: MW
LayerCount: 2
Fore
SplineSet
222 495 m 2
 232.734 538.701 222.985 554.388 171 569 c 0
 162.336 571.436 155 577 155 586 c 0
 155 598 175 604 190 604 c 0
 209 604 245 599 264 599 c 0
 334.697 599 382.74 609 445 609 c 0
 602 609 732 495 732 339 c 0
 732 124 506.75 -6 291 -6 c 0
 210.5 -6 191 4 143 4 c 0
 96 4 69 -2 54 -2 c 0
 38 -2 21 5 21 15 c 0
 21 30 53.2324 33.6729 76 44 c 0
 108.784 58.8721 120.866 88.2412 131 129 c 2
 222 495 l 2
314 481 m 2
 226 129 l 2
 217.775 96.0099 225 47 313 47 c 0
 473 47 627 155 627 322 c 0
 627 473 551 564 388 564 c 0
 346 564 327.693 536.331 314 481 c 2
EndSplineSet
Validated: 33
Substitution2: "c2sc subtable" Eth.sc
EndChar
StartChar: Oslash
Encoding: 140 216 136
Width: 585
Flags: MW
AnchorPoint: "cedilla" 412 8 basechar 0
AnchorPoint: "top_accent" 404 660 basechar 0
LayerCount: 2
Fore
SplineSet
495.953 588.511 m 1
 507 603 l 2
 533 637 539 650 564 650 c 0
 581 650 587 636 576 622 c 2
 528.781 560.007 l 1
 565.568 519.998 587 463.898 587 404 c 0
 587 185 435 -20 243 -20 c 0
 195.892 -20 153.254 -4.69468 118.177 20.9312 c 1
 87 -20 l 2
 75 -36 68 -48 51 -48 c 0
 32 -48 35 -16 48 1 c 2
 85.4502 50.1178 l 1
 44.5281 94.3092 20 154.976 20 219 c 0
 20 435 198 620 393 620 c 0
 432.023 620 466.9 608.371 495.953 588.511 c 1
130.44 109.124 m 1
 454.274 533.847 l 1
 437.267 557.721 412.672 573 378 573 c 0
 233 573 119 371 119 169 c 0
 119 149.62 122.943 128.773 130.44 109.124 c 1
153.613 67.4547 m 1
 173.156 42.3965 200.425 25 234 25 c 0
 386 25 488 214 488 393 c 0
 488 425.989 484.469 460.155 475.261 489.741 c 1
 153.613 67.4547 l 1
EndSplineSet
Validated: 33
Substitution2: "c2sc subtable" Oslash.sc
EndChar
StartChar: Thorn
Encoding: 222 222 142
Width: 499
Flags: W
HStem: -2 46<-11.8953 68.3235 186.231 258.993> 104 40<264.123 343.171> 404 46<275.375 344.334> 569 35<119.02 174.589 319.402 381.983>
VStem: 391 92<207.645 356.871>
AnchorPoint: "top_accent" 311 650 basechar 0
LayerCount: 2
Fore
SplineSet
154 604 m 0
 193 604 229 599 265 599 c 0
 300 599 313 604 347 604 c 0
 362 604 382 598 382 586 c 0
 382 577 376 571 367 569 c 0
 310 553 292.924 544.019 281 495 c 10
 272 458 l 26
 266.421 435.062 288 450 332 450 c 0
 421 450 483 377 483 287 c 0
 483 180 378 104 295 104 c 0
 283 104 264 110 264 123 c 0
 264 132 279.977 140.106 303 144 c 0
 354.272 152.672 391 203 391 283 c 0
 391 346 350 404 285 404 c 0
 264 404 253 385 243 343 c 2
 190 129 l 2
 174.121 64.8841 187 53.4 213 45 c 0
 240.398 36.1484 261 30 261 15 c 0
 261 5 246 -2 230 -2 c 0
 218 -2 155 4 107 4 c 0
 60 4 33 -2 18 -2 c 0
 2 -2 -15 5 -15 15 c 0
 -15 30 17 34 40 44 c 0
 73 59 85 88 95 129 c 2
 186 495 l 2
 197 539 187 554 135 569 c 0
 126 571 119 577 119 586 c 0
 119 598 138 604 154 604 c 0
EndSplineSet
Validated: 33
Substitution2: "c2sc subtable" Thorn.sc
EndChar
StartChar: germandbls
Encoding: 223 223 143
Width: 515
Flags: W
HStem: -258 67<-130.091 -30.574> -14 58<262.724 353.938> 627 53<319.362 438.51>
VStem: 271 69<284.135 376.031> 362 72<57.1476 152.735> 459 83<494.088 607.783>
LayerCount: 2
Fore
SplineSet
271 300 m 0
 271 354.77 297.771 399 348 428 c 0
 405.158 461 459 493 459 554 c 0
 459 598 433 627 372 627 c 0
 289 627 222.66 473.848 186 346 c 0
 144.404 200.938 124.781 112.032 108 -33 c 0
 94.5524 -149.225 -10 -258 -110 -258 c 0
 -150 -258 -176 -237 -176 -207 c 0
 -176 -180 -158 -156 -128 -156 c 0
 -114 -156 -106 -191 -60 -191 c 0
 -12 -191 12.759 -142.582 20 -80 c 0
 42.2507 112.307 71.7084 224.577 121 406 c 0
 156.437 536.432 239 680 391 680 c 0
 469 680 542 629 542 552 c 0
 542 499 511.532 464.053 462 442 c 0
 398.965 413.935 340 383 340 343 c 0
 340 317 377.643 255.496 410 196 c 0
 427 165 434 148 434 123 c 0
 434 40 341 -14 272 -14 c 0
 232 -14 201 15 201 54 c 0
 201 70 216 84 234 84 c 0
 244 84 278 44 324 44 c 0
 348 44 362 67 362 91 c 0
 362 114 331.413 176.426 283 257 c 0
 277.85 265.571 271 282 271 300 c 0
EndSplineSet
Validated: 1
Substitution2: "Smallcaps subtable" germandbls.sc
EndChar
StartChar: ae
Encoding: 230 230 150
Width: 529
Flags: W
HStem: -12 76<65.5 157.425 302.5 415.616> 382 49<351.669 439>
VStem: 14 95<24 130.007> 234.5 81.5<142.094 194.41> 410 79<295.49 381.895>
AnchorPoint: "top_accent" 400 570 basechar 0
LayerCount: 2
Fore
SplineSet
86 -14 m 0
 45 -14 14 5 14 43 c 0
 14 150 103.247 224.91 162 279 c 0
 256.5 366 269 353 312.5 389 c 0
 333.301 406.215 392 431 414 431 c 0
 464 431 489 398 489 359 c 0
 489 295 414.814 222.414 334 193 c 0
 318.965 187.528 316 179 316 153 c 0
 316 106 330.019 64 373 64 c 0
 401.812 64 413.634 78.5367 435 104 c 0
 438.214 107.83 444 120 454 120 c 0
 466 120 468 108 468 90 c 0
 468 47 426 -12 327 -12 c 0
 278 -12 253.259 34.9551 236.5 81 c 0
 234.096 87.606 227.499 78.7246 218.5 68 c 0
 184.433 27.3994 144 -14 86 -14 c 0
109 86 m 0
 109 72 114 58 127 58 c 0
 190 58 234.5 174 234.5 237 c 0
 234.5 253.56 232.807 260 217.807 260 c 0
 199.807 260 109 161 109 86 c 0
312.5 266 m 0
 312.5 248.89 319 248 330 248 c 0
 352 248 410 284 410 361 c 0
 410 373 408 382 394 382 c 0
 368 382 312.5 342 312.5 266 c 0
EndSplineSet
Validated: 1
Substitution2: "Smallcaps subtable" ae.sc
Ligature2: "LATliga subtable" a e
LCarets2: 1 0 
EndChar
StartChar: eth
Encoding: 164 240 160
Width: 416
Flags: MW
LayerCount: 2
Fore
SplineSet
135 491 m 16
 135 532 219 578 272 578 c 0
 361 578 409 549 497 549 c 0
 523 549 544 577 558 577 c 0
 571 577 582 562 582 552 c 0
 582 543 545 498 500 498 c 0
 406.35 498 360.527 514 271 514 c 0
 236.77 514 217.92 501.306 201 472 c 8
 193.79 459.512 184 444 169 444 c 0
 153 444 135 468 135 491 c 16
333 353 m 0
 333 370 320 384 302 384 c 0
 233 384 106 220 106 90 c 0
 106 68 120 56 141 56 c 256
 241 56 333 245 333 353 c 0
359 422 m 2
 393 558 l 2
 399 583 402 593 402 604 c 0
 402 612 332 626 332 641 c 0
 332 656 431 682 463 682 c 0
 485 682 487 670 487 657 c 0
 487 635 481 609 472 572 c 2
 349 79 l 2
 346 66 348 62 357 62 c 0
 393 62 424 110 439 110 c 0
 445 110 446 103 446 97 c 0
 446 62 366 -14 306 -14 c 0
 273 -14 257 31 270 66 c 0
 274 75 269 84 261 74 c 0
 231 35 156 -14 102 -14 c 0
 50 -14 20 45 20 97 c 0
 20 261 193 430 300 430 c 0
 316 430 331 426 340 420 c 0
 349 415 357 412 359 422 c 2
EndSplineSet
Validated: 37
Substitution2: "Smallcaps subtable" eth.sc
EndChar
StartChar: oslash
Encoding: 172 248 168
Width: 368
Flags: MW
AnchorPoint: "top_accent" 280 570 basechar 0
LayerCount: 2
Fore
SplineSet
297.173 414.051 m 1
 316.914 444.54 328.555 459 347 459 c 0
 361 459 366 440 357 425 c 2
 330.155 383.061 l 1
 347.924 358.749 358 327.411 358 295 c 0
 358 152 267 -14 155 -14 c 0
 130.374 -14 108.555 -5.45991 90.504 8.65926 c 1
 76 -14 l 2
 65.082 -31.0566 57 -42 40 -42 c 0
 21 -42 25.3496 -11.2295 37 7 c 2
 60.0027 42.9924 l 1
 43.9818 68.5222 35 99.8547 35 131 c 0
 35 271 134 430 241 430 c 0
 262.013 430 280.954 424.143 297.173 414.051 c 1
268.849 369.776 m 1
 263.581 378.498 255.439 384 243 384 c 0
 178.654 384 123.005 248.336 115.79 130.284 c 1
 268.849 369.776 l 1
122.431 58.5384 m 1
 128.658 43.0616 139.425 32 157 32 c 0
 216.763 32 272.026 181.379 277.548 300.874 c 1
 122.431 58.5384 l 1
EndSplineSet
Validated: 33
Substitution2: "Smallcaps subtable" oslash.sc
EndChar
StartChar: thorn
Encoding: 254 254 174
Width: 416
Flags: W
HStem: -269 38<66.4845 128.922> -262 39<-86.8014 -24.2969> -11 49<134.972 219.711> 380 50<214.934 326.098> 662 20G<222 249>
VStem: 177 87<549.75 666.709> 336 82<223.993 372.617>
AnchorPoint: "top_accent" 316 570 basechar 0
LayerCount: 2
Fore
SplineSet
190 341 m 2x3e
 129 96 l 2
 121 64 145 38 179 38 c 0
 244 38 336 216 336 327 c 0
 336 354 318 380 292 380 c 0
 231 380 197 367 190 341 c 2x3e
230 418 m 0
 257 425 282 430 309 430 c 0
 399 430 418 380 418 322 c 0
 418 182 262 -11 154 -11 c 0
 148 -11 120 0 115 0 c 0
 110 0 104 -1 100 -17 c 2
 58 -186 l 2
 52 -208 78 -225 103 -231 c 0
 117 -234 129 -241 129 -251 c 0
 129 -265 113 -269 98 -269 c 0xbe
 85 -269 -1 -262 -60 -262 c 0
 -76 -262 -87 -257 -87 -245 c 0
 -87 -231 -72 -225 -60 -223 c 0x7e
 -27 -216 -23 -207 -16 -181 c 2
 109 318 l 2
 111.923 329.638 111.07 336.828 99 332 c 0
 72.2689 321.308 52 314 49 314 c 0
 39 314 37 316 37 326 c 0
 37 357 96 381 117 391 c 0
 127 395 129 403 132 414 c 2
 169 559 l 2
 175 584 177 593 177 604 c 0
 177 612 107 626 107 641 c 0
 107 656 206 682 238 682 c 0
 260 682 264 670 264 657 c 0
 264 635 257 609 248 573 c 2
 217 448 l 2
 206 405 212 413 230 418 c 0
EndSplineSet
Validated: 33
Substitution2: "Smallcaps subtable" thorn.sc
EndChar
StartChar: dotlessi
Encoding: 305 305 176
Width: 195
Flags: W
HStem: -14 76<48.7792 132.117> 333 97<80.5 175.402>
VStem: 24 163<325 405>
AnchorPoint: "top_accent" 189 570 basechar 0
LayerCount: 2
Fore
SplineSet
171 430 m 0
 185 430 187 418 187 405 c 0
 187 383 180.601 357.089 172 320 c 2
 112 79 l 2
 109.097 67.3565 111 62 120 62 c 0
 156 62 187 110 202 110 c 0
 208 110 209 103 209 97 c 0
 209 62 129 -14 69 -14 c 0
 36 -14 25 5 25 27 c 0
 25 39 29 50 31 58 c 2
 93 306 l 2
 95.1777 314.732 102 333 91 333 c 0
 70 333 42 304 36 304 c 0
 27 304 24 315 24 325 c 0
 24 346 139 430 171 430 c 0
EndSplineSet
Validated: 1
Substitution2: "Smallcaps subtable" dotlessi.sc
EndChar
StartChar: ij
Encoding: 231 307 251
Width: 479
Flags: MW
LayerCount: 2
Fore
SplineSet
194 629 m 0
 219.976 629 236 610.976 236 585 c 0
 236 556.319 209.681 527 181 527 c 0
 154.475 527 139 545.475 139 572 c 0
 139 600.686 165.314 629 194 629 c 0
69 -14 m 0
 36 -14 25 5 25 27 c 0
 25 39 29 50 31 58 c 2
 93 306 l 2
 95.1777 314.732 102 333 91 333 c 0
 70 333 42 304 36 304 c 0
 27 304 24 315 24 325 c 0
 24 346 139 430 171 430 c 0
 185 430 187 418 187 405 c 0
 187 383 180.601 357.089 172 320 c 2
 122 120 l 2
 119.097 108.356 128 102 142 102 c 0
 167 102 359 430 438 430 c 0
 461 430 471 418 471 405 c 0
 471 383 464.69 357.06 456 320 c 2
 361 -62 l 2
 333.663 -171.643 276 -272 165 -272 c 0
 147 -272 127 -260 127 -242 c 0
 127 -225 150 -194 168 -194 c 0
 183 -194 196 -212 218 -212 c 0
 246 -212 252.113 -195.663 263 -152 c 2
 364 254 l 2
 366.419 263.703 371 292 360 292 c 0
 340 292 156 -14 69 -14 c 0
481 629 m 0
 506.976 629 523 610.976 523 585 c 0
 523 556.319 496.681 527 468 527 c 0
 441.475 527 426 545.475 426 572 c 0
 426 600.686 452.314 629 481 629 c 0
EndSplineSet
Validated: 33
Substitution2: "Smallcaps subtable" ij.sc
EndChar
StartChar: OE
Encoding: 262 338 254
Width: 854
Flags: MW
AnchorPoint: "top_accent" 568 650 basechar 0
LayerCount: 2
Fore
SplineSet
260 -20 m 0
 132 -20 37 93 37 219 c 0
 37 435 215 620 410 620 c 0
 509 620 530 599 566 599 c 2
 741 599 l 2
 777 599 798 606 831 606 c 0
 851 606 857 600 857 580 c 0
 857 567 841 522 837 507 c 0
 831 486 824 477 811 477 c 0
 799 477 799 485 796 508 c 0
 790 551 774 559 751 559 c 2
 658 559 l 2
 621 559 596 552 582 495 c 2
 552 375 l 2
 545 348 545 338 567 338 c 2
 663 338 l 2
 700 338 725 380 737 380 c 0
 749 380 751 365 746 345 c 0
 738 311 728 242 714 242 c 0
 699 242 695 249 688 269 c 0
 683 284 671 290 646 290 c 2
 564 290 l 2
 535 290 527 272 523 257 c 2
 492 133 l 2
 477 71 499 42 534 42 c 2
 673 42 l 2
 705 42 733 59 751 74 c 0
 771 90 792 123 813 123 c 0
 825 123 826 119 826 105 c 0
 826 80 801 37 775 8 c 0
 767 -1 750 -5 736 -5 c 0
 622 -5 460 2 422 2 c 0
 375 2 318 -20 260 -20 c 0
477 525 m 0
 460 554 434 573 395 573 c 0
 250 573 136 371 136 169 c 0
 136 105 179 25 251 25 c 0
 292 25 329.338 38.53 362 62 c 0
 378.242 73.6708 392.371 114.446 396 129 c 2
 487 495 l 2
 490 507 484 514 477 525 c 0
EndSplineSet
Validated: 33
Substitution2: "c2sc subtable" OE.sc
EndChar
StartChar: oe
Encoding: 263 339 255
Width: 576
Flags: MW
AnchorPoint: "top_accent" 373 570 basechar 0
LayerCount: 2
Fore
SplineSet
358 244 m 0
 358 240 360 237 364 237 c 0
 441 237 506 314 506 366 c 0
 506 384 487 390 470 390 c 0
 439 390 358 295 358 244 c 0
259 36 m 0
 228.763 5.23038 193 -14 155 -14 c 0
 83 -14 35 59 35 131 c 0
 35 271 134 430 241 430 c 0
 280 430 311.682 410.466 332 380 c 0
 343.097 363.361 346.837 363.958 362 377 c 0
 400.157 409.82 443 430 485 430 c 0
 551 430 581 400 581 353 c 0
 581 272 432 200 354 200 c 0
 344 200 337 171 337 150 c 0
 337 105 353 55 398 55 c 0
 444 55 490 102 499 102 c 0
 511 102 513 89 513 78 c 0
 513 50 430 -12 354 -12 c 0
 320 -12 294.005 7.00307 276 34 c 0
 270.452 42.3195 269.514 46.6988 259 36 c 0
115 105 m 0
 115 71 124 32 157 32 c 256
 220 32 278 198 278 320 c 0
 278 352 273 384 243 384 c 0
 174 384 115 228 115 105 c 0
EndSplineSet
Validated: 1
Substitution2: "Smallcaps subtable" oe.sc
Ligature2: "LATliga subtable" o e
EndChar
StartChar: longs
Encoding: 383 383 238
Width: 244
Flags: W
HStem: -258 67<-130.091 -30.574> 533 21G<456.5 474.5> 627 53<319.362 416.397>
VStem: 431 75<543.464 613.789>
LayerCount: 2
Fore
SplineSet
391 680 m 4
 442.79 680 506 651 506 597 c 4
 506 570 486 533 463 533 c 4
 450 533 436.046 556.682 431 575 c 4
 422.855 604.57 406 627 372 627 c 4
 289 627 222.66 473.848 186 346 c 4
 144.404 200.938 124.781 112.032 108 -33 c 4
 94.5524 -149.225 -10 -258 -110 -258 c 4
 -150 -258 -176 -237 -176 -207 c 4
 -176 -180 -158 -156 -128 -156 c 4
 -114 -156 -106 -191 -60 -191 c 4
 -12 -191 12.759 -142.582 20 -80 c 4
 42.2507 112.307 71.7084 224.577 121 406 c 4
 156.437 536.432 239 680 391 680 c 4
EndSplineSet
Validated: 1
Substitution2: "Single Substitution lookup 60 subtable" longs.short
Substitution2: "Single Substitution lookup 59 subtable" longs.short
Substitution2: "Smallcaps subtable" s.sc
EndChar
StartChar: uni0237
Encoding: 567 567 307
Width: 195
Flags: W
HStem: -272 60<-137.17 -37.5884> 333 97<80.5 175.402>
VStem: 24 163<325 405>
AnchorPoint: "top_accent" 189 570 basechar 0
LayerCount: 2
Fore
SplineSet
171 430 m 0
 185 430 187 418 187 405 c 0
 187 383 180.69 357.06 172 320 c 2
 77 -62 l 2
 49.6628 -171.643 -8 -272 -119 -272 c 0
 -137 -272 -157 -260 -157 -242 c 0
 -157 -225 -134 -194 -116 -194 c 0
 -101 -194 -88 -212 -66 -212 c 0
 -38 -212 -31.8865 -195.663 -21 -152 c 2
 93 306 l 2
 95.0156 314.79 102 333 91 333 c 0
 70 333 42 304 36 304 c 0
 27 304 24 315 24 325 c 0
 24 346 139 430 171 430 c 0
EndSplineSet
Validated: 1
EndChar
StartChar: uni02BF
Encoding: 703 703 2136
Width: 198
VWidth: 0
Flags: HWO
LayerCount: 2
Fore
SplineSet
203 410 m 0
 155 410 110 441 110 489 c 0
 110 574 206 630 275 630 c 0
 282 630 291 628 291 623 c 0
 291 612 271 606 260 602 c 0
 217 586 175 557 175 507 c 0
 175 472 201.224609375 443.961914062 236 440 c 0
 240.967773438 439.43359375 249 438 249 433 c 0
 249 420 223 410 203 410 c 0
EndSplineSet
EndChar
StartChar: gravecomb
Encoding: 424 768 309
Width: 0
Flags: MW
AnchorPoint: "top_accent" 95 570 mark 0
LayerCount: 2
Fore
SplineSet
56 487 m 0
 44 521 6 616 6 621 c 0
 6 645 42 667 58 667 c 0
 70 667 74 650 76 627 c 0
 79 586 84 493 84 483 c 0
 84 475 81 470 76 470 c 0
 67 470 61 473 56 487 c 0
EndSplineSet
Validated: 1
Substitution2: "Smallcaps subtable" gravecomb.sc
Substitution2: "Single Substitution lookup 20 subtable" gravecomb.grkstack
Substitution2: "Single Substitution lookup 18 subtable" gravecomb.grk
Substitution2: "Single Substitution lookup 13 subtable" gravecomb.stack
Substitution2: "'case' Case-Sensitive Forms lookup 6 subtable" gravecomb.cap
EndChar
StartChar: acutecomb
Encoding: 425 769 310
Width: 0
Flags: MW
AnchorPoint: "top_accent" 62 570 mark 0
LayerCount: 2
Fore
SplineSet
41 481 m 0
 34 474 26 466 18 466 c 0
 13 466 10 470 10 474 c 0
 10 478 10 482 12 486 c 0
 25 513 62 599 79 630 c 0
 86 643 94 655 104 655 c 0
 114 655 151 633 151 618 c 0
 151 613 67 510 41 481 c 0
EndSplineSet
Validated: 1
Substitution2: "Smallcaps subtable" acutecomb.sc
Substitution2: "Single Substitution lookup 20 subtable" acutecomb.grkstack
Substitution2: "Single Substitution lookup 18 subtable" acutecomb.grk
Substitution2: "Single Substitution lookup 13 subtable" acutecomb.stack
Substitution2: "'case' Case-Sensitive Forms lookup 6 subtable" acutecomb.cap
EndChar
StartChar: uni0302
Encoding: 426 770 311
Width: 0
Flags: MW
AnchorPoint: "top_accent" 144 570 mark 0
LayerCount: 2
Fore
SplineSet
133 553 m 2
 45 478 l 2
 35.7803 470.318 24 462 19 462 c 0
 14 462 10 465 10 471 c 0
 10 477 13 483 17 489 c 0
 34 513 90 587 114 615 c 0
 132 636 154 657 164 657 c 0
 173 657 176 649 182 627 c 0
 192 588 205 493 205 483 c 0
 205 475 202 462 197 462 c 0
 190 462 185.882 467.406 180 479 c 2
 144 550 l 2
 141.379 555.397 136.842 556.2 133 553 c 2
EndSplineSet
Validated: 1
Substitution2: "Smallcaps subtable" uni0302.sc
Substitution2: "Single Substitution lookup 11 subtable" uni0302.stack
Substitution2: "'case' Case-Sensitive Forms lookup 6 subtable" uni0302.cap
EndChar
StartChar: tildecomb
Encoding: 771 771 312
Width: 0
Flags: W
HStem: 518 65<67.6504 245.815> 604 20G<254 263>
VStem: 26 263
AnchorPoint: "top_stack" 148 644 basemark 0
AnchorPoint: "top_accent" 170 570 mark 0
LayerCount: 2
Fore
SplineSet
50 489 m 0
 40 489 26 499 26 509 c 0
 26 519 78 583 103 583 c 0
 128 583 187 581 212 581 c 0
 247 581 250 624 258 624 c 0
 268 624 289 612 289 602 c 0
 289 592 247 517 222 517 c 0
 197 517 121 518 96 518 c 0
 71 518 58 489 50 489 c 0
EndSplineSet
Validated: 1048577
Substitution2: "Smallcaps subtable" tildecomb.sc
Substitution2: "'case' Case-Sensitive Forms lookup 6 subtable" tildecomb.cap
EndChar
StartChar: uni0304
Encoding: 428 772 313
Width: 0
Flags: MW
AnchorPoint: "top_accent" 160 570 mark 0
LayerCount: 2
Fore
SplineSet
34 588 m 2
 241 588 l 2
 246 588 250 583 250 578 c 0
 250 561 227 533 214 533 c 2
 14 533 l 2
 9 533 5 537 5 542 c 0
 5 553 18 588 34 588 c 2
EndSplineSet
Validated: 1
Substitution2: "Smallcaps subtable" uni0304.sc
Substitution2: "'case' Case-Sensitive Forms lookup 6 subtable" uni0304.cap
EndChar
StartChar: uni0305
Encoding: 429 773 314
Width: 0
Flags: MW
AnchorPoint: "top_accent" 238 570 mark 0
LayerCount: 2
Fore
SplineSet
4 538 m 4
 4 549 23 589 42 589 c 6
 379 589 l 6
 384 589 388 585 388 580 c 4
 388 557 357 529 344 529 c 6
 14 529 l 6
 8 529 4 533 4 538 c 4
EndSplineSet
Validated: 1
EndChar
StartChar: uni0306
Encoding: 430 774 315
Width: 0
Flags: MW
AnchorPoint: "top_accent" 175 570 mark 0
LayerCount: 2
Fore
SplineSet
125 601 m 0
 127.524 578.139 131 541 167 541 c 0
 208 541 235.687 560.171 248 594 c 0
 252.104 605.276 263 622 273 622 c 0
 283 622 287 612 287 604 c 0
 287 543 224 484 150 484 c 0
 118 484 78 513 78 554 c 0
 78 587 91 622 111 622 c 0
 118 622 124.122 608.952 125 601 c 0
EndSplineSet
Validated: 1
Substitution2: "Smallcaps subtable" uni0306.sc
Substitution2: "'case' Case-Sensitive Forms lookup 6 subtable" uni0306.cap
EndChar
StartChar: uni0307
Encoding: 431 775 306
Width: 0
Flags: MW
AnchorPoint: "top_accent" 83 570 mark 0
LayerCount: 2
Fore
SplineSet
91 629 m 0
 116.976 629 133 610.976 133 585 c 0
 133 556.319 106.681 527 78 527 c 0
 51.4746 527 36 545.475 36 572 c 0
 36 600.686 62.3145 629 91 629 c 0
EndSplineSet
Validated: 1
Substitution2: "Smallcaps subtable" uni0307.sc
Substitution2: "'case' Case-Sensitive Forms lookup 6 subtable" uni0307.cap
EndChar
StartChar: uni0308
Encoding: 432 776 316
Width: 0
Flags: MW
AnchorPoint: "top_stack" 148 474 mark 0
AnchorPoint: "top_stack" 148 636 basemark 0
AnchorPoint: "gravestack" 143 570 basemark 0
AnchorPoint: "acutestack" 152 570 basemark 0
AnchorPoint: "top_accent" 139 570 mark 0
LayerCount: 2
Fore
SplineSet
217 624 m 0
 238 624 251 602 251 581 c 0
 251 551 226 524 196 524 c 0
 176 524 161 543 161 563 c 0
 161 595 185 624 217 624 c 0
66 624 m 0
 87 624 100 602 100 581 c 0
 100 551 75 524 45 524 c 0
 25 524 10 543 10 563 c 0
 10 595 34 624 66 624 c 0
EndSplineSet
Validated: 1
Substitution2: "Smallcaps subtable" uni0308.sc
Substitution2: "Single Substitution lookup 15 subtable" uni0308.grkstack
Substitution2: "'case' Case-Sensitive Forms lookup 6 subtable" uni0308.cap
EndChar
StartChar: uni030A
Encoding: 434 778 318
Width: 0
Flags: MW
AnchorPoint: "top_accent" 130 570 mark 0
LayerCount: 2
Fore
SplineSet
125 660 m 0
 163 660 199 632 199 593 c 0
 199 540 151 493 102 493 c 0
 65 493 33 519 33 556 c 0
 33 611 77 660 125 660 c 0
75 563 m 0
 75 543 87 521 107 521 c 0
 133 521 157 559 157 590 c 0
 157 613 141 632 118 632 c 0
 94 632 75 593 75 563 c 0
EndSplineSet
Validated: 1
Substitution2: "Smallcaps subtable" uni030A.sc
Substitution2: "'case' Case-Sensitive Forms lookup 6 subtable" uni030A.cap
EndChar
StartChar: uni030B
Encoding: 435 779 319
Width: 0
Flags: MW
AnchorPoint: "top_accent" 118 570 mark 0
LayerCount: 2
Fore
SplineSet
153 478 m 0
 146 471 138 463 130 463 c 0
 125 463 122 467 122 471 c 0
 122 475 122 479 124 483 c 0
 137 510 174 596 191 627 c 0
 198 640 206 652 216 652 c 0
 226 652 263 630 263 615 c 0
 263 610 179 507 153 478 c 0
41 478 m 0
 34 471 26 463 18 463 c 0
 13 463 10 467 10 471 c 0
 10 475 10 479 12 483 c 0
 25 510 62 596 79 627 c 0
 86 640 94 652 104 652 c 0
 114 652 151 630 151 615 c 0
 151 610 67 507 41 478 c 0
EndSplineSet
Validated: 1
Substitution2: "Smallcaps subtable" uni030B.sc
Substitution2: "'case' Case-Sensitive Forms lookup 6 subtable" uni030B.cap
EndChar
StartChar: uni030C
Encoding: 436 780 320
Width: 215
Flags: MW
AnchorPoint: "top_accent" 79 570 mark 0
LayerCount: 2
Fore
SplineSet
82 566 m 2
 170 641 l 2
 179 649 191 657 196 657 c 0
 201 657 205 654 205 648 c 0
 205 642 202 636 198 630 c 0
 181 606 125 532 101 504 c 0
 83 483 61 462 51 462 c 0
 42 462 39 470 33 492 c 0
 23 531 10 626 10 636 c 0
 10 644 13 657 18 657 c 0
 25 657 29 652 35 640 c 2
 71 569 l 2
 74 564 78 563 82 566 c 2
EndSplineSet
Validated: 1
Substitution2: "Smallcaps subtable" uni030C.sc
Substitution2: "Single Substitution lookup 9 subtable" uni030C.alt
Substitution2: "'case' Case-Sensitive Forms lookup 6 subtable" uni030C.cap
EndChar
StartChar: uni030F
Encoding: 439 783 323
Width: 0
Flags: MW
AnchorPoint: "top_accent" 161 570 mark 0
LayerCount: 2
Fore
SplineSet
159 487 m 0
 147 521 109 616 109 621 c 0
 109 645 145 667 161 667 c 0
 173 667 177 650 179 627 c 0
 182 586 187 493 187 483 c 0
 187 475 184 470 179 470 c 0
 170 470 164 473 159 487 c 0
56 487 m 0
 44 521 6 616 6 621 c 0
 6 645 42 667 58 667 c 0
 70 667 74 650 76 627 c 0
 79 586 84 493 84 483 c 0
 84 475 81 470 76 470 c 0
 67 470 61 473 56 487 c 0
EndSplineSet
Validated: 1
Substitution2: "'case' Case-Sensitive Forms lookup 6 subtable" uni030F.cap
EndChar
StartChar: uni0311
Encoding: 785 785 324
Width: 0
Flags: W
HStem: 579 57<93.2393 184.889>
VStem: 194 47<502.022 573.543>
AnchorPoint: "top_accent" 158 570 mark 0
LayerCount: 2
Fore
SplineSet
194 519 m 0
 191 542 188 579 152 579 c 0
 111 579 83 560 71 526 c 0
 67 515 56 498 46 498 c 0
 36 498 32 508 32 516 c 0
 32 577 95 636 169 636 c 0
 201 636 241 607 241 566 c 0
 241 533 228 498 208 498 c 0
 201 498 195 511 194 519 c 0
EndSplineSet
Validated: 1
Substitution2: "Smallcaps subtable" uni0311.sc
Substitution2: "'case' Case-Sensitive Forms lookup 6 subtable" uni0311.cap
EndChar
StartChar: uni0312
Encoding: 442 786 325
Width: 0
Flags: MW
AnchorPoint: "top_accent" 94 570 mark 0
LayerCount: 2
Fore
SplineSet
6 541 m 0
 6 622 101 686 154 686 c 0
 166 686 177 680 177 671 c 0
 177 662 170.768 652.249 160 650 c 0
 119.866 641.616 83 616 83 578 c 0
 83 554 120 546 120 522 c 0
 120 494 86 481 60 481 c 0
 29 481 6 511 6 541 c 0
EndSplineSet
Validated: 1
Substitution2: "Smallcaps subtable" uni0312.sc
EndChar
StartChar: uni0313
Encoding: 443 787 326
Width: 0
Flags: MW
AnchorPoint: "top_accent" 107 570 mark 0
LayerCount: 2
Fore
SplineSet
177 626 m 0
 177 545 82 481 29 481 c 0
 17 481 6 487 6 496 c 0
 6 505 12 515 23 517 c 0
 63 525 100 551 100 589 c 0
 100 613 63 621 63 645 c 0
 63 673 97 686 123 686 c 0
 154 686 177 656 177 626 c 0
EndSplineSet
Validated: 1
Substitution2: "Smallcaps subtable" uni0313.sc
Substitution2: "Single Substitution lookup 17 subtable" uni0313.grkstack
Substitution2: "Single Substitution lookup 16 subtable" uni0313.grk
EndChar
StartChar: uni0314
Encoding: 788 788 327
Width: 0
Flags: W
HStem: 481 205<79 111>
VStem: 18 59<519.418 603.426>
AnchorPoint: "top_accent" 99 570 mark 0
LayerCount: 2
Fore
SplineSet
77 572 m 0
 77 548.31 83.667 530 110 509 c 0
 115.691 504.461 125 501 125 493 c 0
 125 482 111 481 98 481 c 0
 57 481 18 531 18 579 c 0
 18 638 79 686 124 686 c 0
 147 686 169 673 169 649 c 0
 169 610 77 621 77 572 c 0
EndSplineSet
Validated: 1
Substitution2: "Smallcaps subtable" uni0314.sc
Substitution2: "Single Substitution lookup 17 subtable" uni0314.grkstack
Substitution2: "Single Substitution lookup 16 subtable" uni0314.grk
EndChar
StartChar: uni0315
Encoding: 789 789 328
Width: 0
Flags: W
HStem: 481 36<6.2818 65.3474> 666 20G<110 138.5>
VStem: 100 77<559.751 641>
LayerCount: 2
Fore
SplineSet
177 626 m 0
 177 545 82 481 29 481 c 0
 17 481 6 487 6 496 c 0
 6 505 12 515 23 517 c 0
 63 525 100 551 100 589 c 0
 100 613 63 621 63 645 c 0
 63 673 97 686 123 686 c 0
 154 686 177 656 177 626 c 0
EndSplineSet
Validated: 1
Substitution2: "Smallcaps subtable" uni0315.sc
EndChar
StartChar: uni0316
Encoding: 446 790 329
Width: 0
Flags: MW
LayerCount: 2
Fore
SplineSet
56 -233 m 0
 44 -199 10 -104 10 -99 c 0
 10 -75 39 -53 55 -53 c 0
 67 -53 71 -70 73 -93 c 0
 76 -134 84 -227 84 -237 c 0
 84 -245 81 -250 76 -250 c 0
 67 -250 61 -247 56 -233 c 0
EndSplineSet
Validated: 1
Substitution2: "'case' Case-Sensitive Forms lookup 6 subtable" uni0316.cap
EndChar
StartChar: uni0317
Encoding: 447 791 340
Width: 0
Flags: MW
LayerCount: 2
Fore
SplineSet
41 -242 m 0
 34 -249 26 -257 18 -257 c 0
 13 -257 10 -253 10 -249 c 0
 10 -245 10 -241 12 -237 c 0
 25 -210 70 -124 87 -93 c 0
 94 -80 102 -68 112 -68 c 0
 122 -68 151 -90 151 -105 c 0
 151 -110 67 -213 41 -242 c 0
EndSplineSet
Validated: 1
Substitution2: "'case' Case-Sensitive Forms lookup 6 subtable" uni0317.cap
EndChar
StartChar: dotbelowcomb
Encoding: 803 803 879
Width: 0
Flags: W
HStem: -173 102<49.0037 119.125>
VStem: 36 97<-159.693 -83.986>
LayerCount: 2
Fore
SplineSet
91 -71 m 0
 117 -71 133 -89 133 -115 c 0
 133 -144 107 -173 78 -173 c 0
 51 -173 36 -155 36 -128 c 0
 36 -99 62 -71 91 -71 c 0
EndSplineSet
Validated: 1
Substitution2: "'case' Case-Sensitive Forms lookup 6 subtable" dotbelowcomb.cap
EndChar
StartChar: uni0324
Encoding: 449 804 880
Width: 0
Flags: MW
LayerCount: 2
Fore
SplineSet
217 -76 m 0
 238 -76 251 -98 251 -119 c 0
 251 -149 226 -176 196 -176 c 0
 176 -176 161 -157 161 -137 c 0
 161 -105 185 -76 217 -76 c 0
66 -76 m 0
 87 -76 100 -98 100 -119 c 0
 100 -149 75 -176 45 -176 c 0
 25 -176 10 -157 10 -137 c 0
 10 -105 34 -76 66 -76 c 0
EndSplineSet
Validated: 1
Substitution2: "'case' Case-Sensitive Forms lookup 6 subtable" uni0324.cap
EndChar
StartChar: uni0325
Encoding: 805 805 881
Width: 0
Flags: W
HStem: -207 28<83.501 133.883> -68 28<94.1703 146.66>
VStem: 33 42<-176.408 -80.8528> 157 42<-162.567 -72.6971>
LayerCount: 2
Fore
SplineSet
125 -40 m 0
 163 -40 199 -68 199 -107 c 0
 199 -160 151 -207 102 -207 c 0
 65 -207 33 -181 33 -144 c 0
 33 -89 77 -40 125 -40 c 0
75 -137 m 0
 75 -157 87 -179 107 -179 c 0
 133 -179 157 -141 157 -110 c 0
 157 -87 141 -68 118 -68 c 0
 94 -68 75 -107 75 -137 c 0
EndSplineSet
Validated: 1
Substitution2: "'case' Case-Sensitive Forms lookup 6 subtable" uni0325.cap
EndChar
StartChar: uni0326
Encoding: 451 806 882
Width: 0
Flags: MW
LayerCount: 2
Fore
SplineSet
177 -74 m 0
 177 -155 82 -219 29 -219 c 0
 17 -219 6 -213 6 -204 c 0
 6 -195 12 -185 23 -183 c 0
 63 -175 100 -149 100 -111 c 0
 100 -87 63 -79 63 -55 c 0
 63 -27 97 -14 123 -14 c 0
 154 -14 177 -44 177 -74 c 0
EndSplineSet
Validated: 1
EndChar
StartChar: uni0327
Encoding: 807 807 883
Width: 0
Flags: W
HStem: -267 50<44.1921 116.036>
VStem: 100 59<-158.81 -37.7554> 117 65<-216.315 -89.9061>
AnchorPoint: "cedilla" 190 8 mark 0
LayerCount: 2
Fore
SplineSet
100 -94 m 0xc0
 100 -61 133 -7 191 23 c 1
 228 23 l 1
 166 -26 159 -56 159 -74 c 0xc0
 159 -95 182 -140 182 -173 c 0
 182 -216 118 -267 78 -267 c 0
 29 -267 14 -213 14 -204 c 0
 14 -196 15 -184 26 -184 c 0
 38 -184 58 -217 92 -217 c 0
 105 -217 117 -206 117 -190 c 0xa0
 117 -148 100 -129 100 -94 c 0xc0
EndSplineSet
Validated: 1
Substitution2: "'case' Case-Sensitive Forms lookup 6 subtable" uni0327.cap
EndChar
StartChar: uni0328
Encoding: 453 808 884
Width: 0
Flags: MW
AnchorPoint: "ogonek" 156 18 mark 0
LayerCount: 2
Fore
SplineSet
67 -270 m 0
 31.0219 -271.256 0 -234 0 -200 c 0
 0 -94 85 -26 172 24 c 1
 205 24 l 1
 138 -22 71 -100 71 -158 c 0
 71 -176 79 -206 105 -206 c 0
 126 -206 157 -194 169 -180 c 0
 171 -178 179 -172 185 -172 c 0
 190 -172 193 -176 193 -188 c 0
 193 -212 127.963 -267.871 67 -270 c 0
EndSplineSet
Validated: 33
Substitution2: "'case' Case-Sensitive Forms lookup 6 subtable" uni0328.cap
EndChar
StartChar: uni032C
Encoding: 454 812 885
Width: 0
Flags: MW
LayerCount: 2
Fore
SplineSet
82 -134 m 2
 170 -59 l 2
 179 -51 191 -43 196 -43 c 0
 201 -43 205 -46 205 -52 c 0
 205 -58 202 -64 198 -70 c 0
 181 -94 125 -168 101 -196 c 0
 83 -217 61 -238 51 -238 c 0
 42 -238 39 -230 33 -208 c 0
 23 -169 10 -74 10 -64 c 0
 10 -56 13 -43 18 -43 c 0
 25 -43 29 -48 35 -60 c 2
 71 -131 l 2
 74 -136 78 -137 82 -134 c 2
EndSplineSet
Validated: 1
Substitution2: "'case' Case-Sensitive Forms lookup 6 subtable" uni032C.cap
EndChar
StartChar: uni032D
Encoding: 455 813 886
Width: 0
Flags: MW
LayerCount: 2
Fore
SplineSet
133 -147 m 2
 45 -222 l 2
 36 -230 24 -238 19 -238 c 0
 14 -238 10 -235 10 -229 c 0
 10 -223 13 -217 17 -211 c 0
 34 -187 90 -113 114 -85 c 0
 132 -64 154 -43 164 -43 c 0
 173 -43 176 -51 182 -73 c 0
 192 -112 205 -207 205 -217 c 0
 205 -225 202 -238 197 -238 c 0
 190 -238 186 -233 180 -221 c 2
 144 -150 l 2
 141 -145 137 -144 133 -147 c 2
EndSplineSet
Validated: 1
Substitution2: "'case' Case-Sensitive Forms lookup 6 subtable" uni032D.cap
EndChar
StartChar: uni032E
Encoding: 456 814 887
Width: 0
Flags: MW
LayerCount: 2
Fore
SplineSet
125 -99 m 0
 128 -122 131 -159 167 -159 c 0
 208 -159 236 -140 248 -106 c 0
 252 -95 263 -78 273 -78 c 0
 283 -78 287 -88 287 -96 c 0
 287 -157 224 -216 150 -216 c 0
 118 -216 78 -187 78 -146 c 0
 78 -113 91 -78 111 -78 c 0
 118 -78 124 -91 125 -99 c 0
EndSplineSet
Validated: 1
Substitution2: "'case' Case-Sensitive Forms lookup 6 subtable" uni032E.cap
EndChar
StartChar: uni032F
Encoding: 457 815 888
Width: 0
Flags: MW
LayerCount: 2
Fore
SplineSet
194 -181 m 0
 191 -158 188 -121 152 -121 c 0
 111 -121 83 -140 71 -174 c 0
 67 -185 56 -202 46 -202 c 0
 36 -202 32 -192 32 -184 c 0
 32 -123 95 -64 169 -64 c 0
 201 -64 241 -93 241 -134 c 0
 241 -167 228 -202 208 -202 c 0
 201 -202 195 -189 194 -181 c 0
EndSplineSet
Validated: 1
Substitution2: "'case' Case-Sensitive Forms lookup 6 subtable" uni032F.cap
EndChar
StartChar: uni0330
Encoding: 458 816 889
Width: 0
Flags: MW
LayerCount: 2
Fore
SplineSet
50 -211 m 0
 40 -211 26 -201 26 -191 c 0
 26 -181 78 -117 103 -117 c 0
 128 -117 187 -119 212 -119 c 0
 247 -119 250 -76 258 -76 c 0
 268 -76 289 -88 289 -98 c 0
 289 -108 247 -183 222 -183 c 0
 197 -183 121 -182 96 -182 c 0
 71 -182 58 -211 50 -211 c 0
EndSplineSet
Validated: 1
Substitution2: "'case' Case-Sensitive Forms lookup 6 subtable" uni0330.cap
EndChar
StartChar: uni0331
Encoding: 459 817 890
Width: 0
Flags: MW
LayerCount: 2
Fore
SplineSet
34 -112 m 2
 241 -112 l 2
 246 -112 250 -117 250 -122 c 0
 250 -139 227 -167 214 -167 c 2
 14 -167 l 2
 9 -167 5 -163 5 -158 c 0
 5 -147 18 -112 34 -112 c 2
EndSplineSet
Validated: 1
Substitution2: "'case' Case-Sensitive Forms lookup 6 subtable" uni0331.cap
EndChar
StartChar: uni1DD3
Encoding: 554 7635 412
Width: 0
Flags: MW
AnchorPoint: "top_accent" 240 570 mark 0
LayerCount: 2
Fore
SplineSet
130 603 m 0
 182 603 213 547 218 547 c 0
 223 547 281 593 286 593 c 0
 300 593 324 555 355 555 c 0
 382 555 398 595 410 595 c 0
 421 595 423 576 423 554 c 0
 423 509 370 480 325 480 c 0
 295 480 259 524 254 524 c 0
 249 524 175 480 170 480 c 0
 165 480 111 539 94 539 c 0
 71 539 62 518 54 518 c 0
 43.94 518 39 529 39 539 c 0
 39 581 86 603 130 603 c 0
EndSplineSet
Validated: 1
EndChar
StartChar: figuredash
Encoding: 1050 8210 938
Width: 490
Flags: MW
LayerCount: 2
Fore
SplineSet
107 241 m 2
 538 241 l 2
 545 241 549 234 545 227 c 0
 533 206 522 181 502 181 c 2
 79 181 l 2
 72 181 68 187 70 193 c 0
 73 202 87 241 107 241 c 2
EndSplineSet
Validated: 1
Substitution2: "'case' Case-Sensitive Forms lookup 6 subtable" figuredash.cap
EndChar
StartChar: endash
Encoding: 1051 8211 186
Width: 509
Flags: MW
LayerCount: 2
Fore
SplineSet
141 239 m 2
 525 239 l 2
 532 239 537 232 533 225 c 0
 522 206 511 185 492 185 c 2
 115 185 l 2
 108 185 104 191 106 197 c 0
 109 206 123 239 141 239 c 2
EndSplineSet
Validated: 1
Substitution2: "'case' Case-Sensitive Forms lookup 6 subtable" endash.cap
EndChar
StartChar: emdash
Encoding: 1052 8212 187
Width: 881
Flags: MW
LayerCount: 2
Fore
SplineSet
141 239 m 2
 897 239 l 2
 904 239 909 232 905 225 c 0
 894 206 883 185 864 185 c 2
 115 185 l 2
 108 185 104 191 106 197 c 0
 109 206 123 239 141 239 c 2
EndSplineSet
Validated: 1
Substitution2: "'case' Case-Sensitive Forms lookup 6 subtable" emdash.cap
EndChar
StartChar: uni2015
Encoding: 1053 8213 939
Width: 1858
Flags: MW
LayerCount: 2
Fore
SplineSet
141 239 m 2
 1873 239 l 2
 1880 239 1885 232 1881 225 c 0
 1870 206 1859 185 1840 185 c 2
 115 185 l 2
 108 185 104 191 106 197 c 0
 109 206 123 239 141 239 c 2
EndSplineSet
Validated: 1
EndChar
StartChar: quoteleft
Encoding: 1055 8216 188
Width: 268
Flags: MW
LayerCount: 2
Fore
SplineSet
283 470 m 0
 283 446 255 430 220 430 c 0
 172 430 143 469 143 517 c 0
 143 620 253 691 314 691 c 0
 324 691 337 689 337 679 c 0
 337 669 331 667 312 657 c 0
 261 630 237 611 237 555 c 0
 237 517 283 506 283 470 c 0
EndSplineSet
Validated: 1
EndChar
StartChar: quoteright
Encoding: 1056 8217 189
Width: 251
Flags: MW
LayerCount: 2
Fore
SplineSet
185 651 m 0
 185 675 213 691 248 691 c 0
 295.98 691 325 651.984 325 604 c 0
 325 500.556 215 430 154 430 c 0
 144 430 131 432 131 442 c 0
 131 452 137.476 454.109 156 464 c 0
 207.163 491.318 231 510 231 566 c 0
 231 604 185 615 185 651 c 0
EndSplineSet
Validated: 1
EndChar
StartChar: quotesinglbase
Encoding: 1057 8218 190
Width: 259
Flags: MW
LayerCount: 2
Fore
SplineSet
54 97 m 0
 54 121 82 137 117 137 c 0
 164.98 137 194 97.9844 194 50 c 0
 194 -53.4443 84 -124 23 -124 c 0
 13 -124 0 -122 0 -112 c 0
 0 -102 6.47559 -99.8906 25 -90 c 0
 76.1631 -62.6816 100 -44 100 12 c 0
 100 50 54 61 54 97 c 0
EndSplineSet
Validated: 1
EndChar
StartChar: ellipsis
Encoding: 1063 8230 194
Width: 736
Flags: MW
LayerCount: 2
Fore
SplineSet
120 138 m 0
 143 138 163 121 182 88 c 1
 185 78 187 70 187 65 c 2
 187 58 l 2
 187 32 166 13 123 -0 c 1
 115 -0 l 2
 96 0 74 14 51 42 c 1
 49 50 48 54 48 56 c 2
 48 71 l 2
 48 90 63 109 92 129 c 1
 102 135 112 138 120 138 c 0
364 138 m 0
 387 138 407 121 426 88 c 1
 429 78 431 70 431 65 c 2
 431 58 l 2
 431 32 410 13 367 -0 c 1
 359 -0 l 2
 340 0 318 14 295 42 c 1
 293 50 292 54 292 56 c 2
 292 71 l 2
 292 90 307 109 336 129 c 1
 346 135 356 138 364 138 c 0
623 138 m 0
 646 138 666 121 685 88 c 1
 688 78 689 70 689 65 c 2
 689 58 l 2
 689 32 668 13 625 -0 c 1
 618 -0 l 2
 599 0 577 14 554 42 c 1
 552 50 551 54 551 56 c 2
 551 71 l 2
 551 90 566 109 595 129 c 1
 605 135 615 138 623 138 c 0
EndSplineSet
Validated: 1
EndChar
StartChar: guilsinglleft
Encoding: 1064 8249 383
Width: 433
Flags: MW
LayerCount: 2
Fore
SplineSet
217 218 m 0
 208 212 211 208 217 202 c 0
 251 166 293 104 320 57 c 0
 325 48 326 19 319 19 c 0
 308 19 292 33 288 37 c 0
 244 80 159 162 113 188 c 0
 107 191 99 201 99 209 c 0
 99 216 109 222 113 224 c 0
 205 271 323 348 395 395 c 0
 402 400 410 405 423 405 c 0
 429 405 438 390 428 381 c 0
 361 323 268 250 217 218 c 0
EndSplineSet
Validated: 33
EndChar
StartChar: guilsinglright
Encoding: 1065 8250 384
Width: 433
Flags: MW
LayerCount: 2
Fore
SplineSet
216 206 m 0
 225 212 222 216 216 222 c 0
 182 258 140 320 113 367 c 0
 108 376 107 405 114 405 c 0
 125 405 141 391 145 387 c 0
 189 344 274 262 320 236 c 0
 326 233 334 223 334 215 c 0
 334 208 324 202 320 200 c 0
 228 153 110 76 38 29 c 0
 31 24 23 19 10 19 c 0
 4 19 -5 34 5 43 c 0
 72 101 165 174 216 206 c 0
EndSplineSet
Validated: 33
EndChar
StartChar: Euro
Encoding: 1067 8364 195
Width: 524
VWidth: 0
Flags: MW
LayerCount: 2
Fore
SplineSet
66 236 m 2
 45 236.136 13 234 13 251 c 0
 13 269 34.0088 286.383 66 287 c 2
 377 293 l 2
 401.993 293.581 419 292 419 277 c 0
 419 262 406 234 376 234 c 2
 66 236 l 2
117 349 m 2
 96 349.136 64 347 64 364 c 0
 64 382 85.0088 399.383 117 400 c 2
 428 406 l 2
 452.993 406.581 470 405 470 390 c 0
 470 375 457 347 427 347 c 2
 117 349 l 2
457 630 m 0
 484 630 517.517 620.332 556 599 c 0
 575.241 588.334 591 564 591 542 c 0
 591 524 574 476 541 476 c 0
 526 476 518.934 487.928 509 525 c 0
 501.235 553.979 472.34 589 442 589 c 0
 317 589 184 365 184 204 c 0
 184 135 216 44 285 44 c 0
 340 44 373 75 390 75 c 0
 407 75 414 67 414 49 c 0
 414 23 332 -20 268 -20 c 0
 171 -20 85 68 85 169 c 0
 85 399 253 630 457 630 c 0
EndSplineSet
EndChar
StartChar: prescription
Encoding: 1068 8478 209
Width: 655
Flags: MW
LayerCount: 2
Fore
SplineSet
150 4 m 0
 131 4 83 -2 61 -2 c 0
 35 -2 31 8 31 18 c 0
 31 28 43 36 70 44 c 0
 97 52 108 83 108 108 c 2
 108 302 l 2
 108 319 91 344 67 353 c 0
 56 357 46 363 46 374 c 0
 46 385 62 393 75 399 c 0
 86 405 169 438 179 438 c 0
 191 438 191 429 191 410 c 2
 191 385 l 2
 191 370 206 385 211 391 c 0
 227 408 261 430 291 430 c 0
 332 430 348 411 348 388 c 0
 348 373 334 347 318 331 c 0
 315 328 307 322 302 322 c 0
 287 322 265 350 245 350 c 0
 222 350 193 329 193 303 c 2
 191 108 l 2
 191 83 208 44 240 44 c 2
 334 44 l 1
 460 267 l 2
 465 276 468 290 468 297 c 0
 468 303 456 328 456 355 c 0
 456 375 504 436 521 436 c 0
 534 436 560 389 560 366 c 0
 560 343 551 330 528 287 c 2
 395 44 l 1
 516 44 l 2
 541 44 569 80 596 80 c 0
 626 80 624 41 624 31 c 0
 624 21 613 -3 587 -3 c 0
 576 -3 476 -1 372 0 c 1
 310 -112 l 2
 286.150390625 -155.083007812 286 -234 264 -234 c 0
 229 -234 215 -193 215 -179 c 0
 215 -161 235.4296875 -130.673828125 263 -83 c 2
 311 0 l 1
 228 1 157 4 150 4 c 0
EndSplineSet
Validated: 33
EndChar
StartChar: uni2183
Encoding: 1072 8579 300
Width: 511
Flags: MW
LayerCount: 2
Fore
SplineSet
208 -10 m 0
 163 -10 112.676757812 2.23828125 100 12 c 0
 64.9169921875 39.0166015625 48 53 48 68 c 0
 48 102.530273438 68 142 78 142 c 0
 95 142 94.984375 124.990234375 118 89 c 0
 139.55078125 55.3017578125 177 40 219 40 c 0
 313 40 369 137 369 233 c 0
 369 326 318 423 227 423 c 0
 184 423 139.272460938 384.806640625 123 370 c 0
 105.249023438 353.84765625 88 316 77 316 c 0
 65.2998046875 316 61 324 61 340 c 0
 61 376 65.904296875 416.678710938 95 430 c 0
 133.188476562 447.483398438 188 470 248 470 c 0
 373 470 471 364 471 241 c 0
 471 102 348 -10 208 -10 c 0
EndSplineSet
Validated: 1
EndChar
StartChar: infinity
Encoding: 1074 8734 299
Width: 738
Flags: MW
LayerCount: 2
Fore
SplineSet
82 174 m 0
 82 127 126.256835938 96 173 96 c 0
 246.193841479 96 291.771441475 140.802664266 332.537153348 193.353991598 c 1
 297.694276634 237.502334929 256.941608553 272 195 272 c 0
 136.665039062 272 82 232.334960938 82 174 c 0
31 178 m 0
 31 273 87.0654296875 354 176 354 c 0
 259.47831009 354 307.872583208 290.369353162 356.393113231 225.234128116 c 1
 404.892464449 291.317430356 452.958879638 358 542 358 c 0
 639 358 710 271 710 174 c 0
 710 82.98046875 639 6 548 6 c 0
 460.498274819 6 415.192185528 74.5388455403 369.293948161 142.03494562 c 1
 318.289863585 76.196373654 267.628255953 11 180 11 c 0
 92.71484375 11 31 90.71484375 31 178 c 0
395.148380783 174.895033368 m 1
 435.269267558 126.381312455 481.171895942 87 550 87 c 0
 609 87 666 127 666 186 c 0
 666 238.73046875 624 277 566 277 c 0
 488.860565346 277 439.608705149 229.644358184 395.148380783 174.895033368 c 1
EndSplineSet
Validated: 1
EndChar
StartChar: uniA749
Encoding: 42825 42825 934
Width: 293
Flags: W
HStem: -14 76<75.7792 159.117> 558 53<297.371 381> 662 20G<237 264>
VStem: 192 85<562.336 666.709> 361 69<493.254 557.564>
LayerCount: 2
Fore
SplineSet
139 79 m 6
 136 67 138 62 147 62 c 4
 183 62 214 110 229 110 c 4
 235 110 236 103 236 97 c 4
 236 62 156 -14 96 -14 c 4
 63 -14 52 5 52 27 c 4
 52 39 56 50 58 58 c 6
 110 266 l 5
 90 255 74 247 62 241 c 4
 56 238 46 233 39 233 c 4
 29 233 24 239 24 244 c 4
 24 253 49 265 78 281 c 4
 82 283 98 293 120 306 c 5
 183 558 l 6
 189 583 192 593 192 604 c 4
 192 612 122 626 122 641 c 4
 122 656 221 682 253 682 c 4
 275 682 277 670 277 657 c 4
 277 635 271 609 262 572 c 6
 260 562 l 5
 296 594 333 611 365 611 c 4
 397 611 430 589 430 554 c 4
 430 477 306 383 198 317 c 5
 139 79 l 6
243 494 m 5
 211 366 l 5
 285 419 361 486 361 535 c 4
 361 548 353 558 336 558 c 4
 309 558 280 537 243 494 c 5
EndSplineSet
Validated: 1
EndChar
StartChar: uniA751
Encoding: 42833 42833 385
Width: 416
Flags: W
HStem: -269 38<66.4845 128.922> -262 39<-86.8014 -24.2969> -165 65<81.6718 235.648> -139 57<-116.113 -6.67113> -50 20G<267.5 284> -11 49<134.972 219.711> 380 50<211.017 326.098>
VStem: 132 78<418.102 462.955> 246 63<-87.6192 -33.2803> 336 82<223.993 372.617>
AnchorPoint: "top_accent" 316 570 basechar 0
LayerCount: 2
Fore
SplineSet
222 415 m 4x5fc0
 249 425 281 430 309 430 c 4
 399 430 418 380 418 322 c 4
 418 182 262 -11 154 -11 c 4
 148 -11 120 0 115 0 c 4
 110 0 104 -1 100 -17 c 6
 81 -95 l 5
 108 -98 136 -100 169 -100 c 4
 226 -100 239 -78 246 -63 c 4
 255 -43 261 -30 274 -30 c 4
 294 -30 309 -51 309 -75 c 4
 309 -120 228 -165 163 -165 c 4
 125 -165 95 -160 66 -154 c 5
 58 -186 l 6
 52 -208 78 -225 103 -231 c 4
 117 -234 129 -241 129 -251 c 4
 129 -265 113 -269 98 -269 c 4xafc0
 85 -269 -1 -262 -60 -262 c 4
 -76 -262 -87 -257 -87 -245 c 4
 -87 -231 -72 -225 -60 -223 c 4
 -27 -216 -23 -207 -16 -181 c 6
 -6 -142 l 5
 -22 -140 -39 -139 -59 -139 c 4
 -90 -139 -107 -161 -128 -161 c 4
 -140 -161 -148 -153 -148 -139 c 4
 -148 -122 -95 -82 -62 -82 c 4
 -37 -82 -14 -84 8 -86 c 5
 109 317 l 6
 113 334 112 338 98 332 c 4
 79 325 52 314 49 314 c 4
 39 314 37 316 37 326 c 4
 37 346 96 377 107 382 c 4
 125 389 127 393 132 413 c 4
 140 444 172 509 201 509 c 4
 217 509 214 454 210 431 c 4
 206 405 212 411 222 415 c 4x5fc0
190 341 m 6
 129 96 l 6
 121 64 145 38 179 38 c 4
 244 38 336 216 336 327 c 4
 336 354 318 380 292 380 c 4
 234 380 196 365 190 341 c 6
EndSplineSet
Validated: 33
EndChar
StartChar: uniA753
Encoding: 42835 42835 386
Width: 602
Flags: W
HStem: -271 61<-127.623 -21.1819> -269 38<252.484 314.922> -262 39<99.1986 161.91> -11 49<320.972 405.711> 37 48<137.599 219.097> 380 50<397.017 512.098>
VStem: 318 78<418.102 462.955> 522 82<223.993 372.617>
AnchorPoint: "top_accent" 502 570 basechar 0
LayerCount: 2
Fore
SplineSet
376 341 m 2x17
 315 96 l 2
 307 64 331 38 365 38 c 0
 430 38 522 216 522 327 c 0
 522 354 504 380 478 380 c 0
 420 380 382 365 376 341 c 2x17
219 15 m 2
 221.177 23.7327 216 37 205 37 c 0
 151 37 104 5 95 -46 c 0
 78 -141 43 -271 -75 -271 c 0
 -108 -271 -134 -251 -134 -235 c 0
 -134 -218 -108 -210 -56 -210 c 0
 -5 -210 9 -108 16 -57 c 0
 28.7998 36.2578 135 85 220 85 c 0x8f
 233 85 237.855 87.3862 241 100 c 2
 295 317 l 2
 299.218 333.947 298 338 284 332 c 0
 265 325 238 314 235 314 c 0
 225 314 223 316 223 326 c 0
 223 346 282 377 293 382 c 0
 311 389 313 393 318 413 c 0
 326 444 358 509 387 509 c 0
 403 509 400 454 396 431 c 0
 392 405 398 411 408 415 c 0
 435 425 467 430 495 430 c 0
 585 430 604 380 604 322 c 0
 604 182 448 -11 340 -11 c 0
 334 -11 306 0 301 0 c 0
 296 0 290 -1 286 -17 c 2
 244 -186 l 2
 238 -208 264 -225 289 -231 c 0
 303 -234 315 -241 315 -251 c 0
 315 -265 299 -269 284 -269 c 0x57
 271 -269 185 -262 126 -262 c 0
 110 -262 99 -257 99 -245 c 0
 99 -231 114 -225 126 -223 c 0x27
 159 -216 163.47 -207.122 170 -181 c 2
 219 15 l 2
EndSplineSet
Validated: 33
EndChar
StartChar: uniA757
Encoding: 42839 42839 387
Width: 416
Flags: W
HStem: -272 40<116.301 201.261> -262 41<295.367 350.991> -165 65<316 424.775> -156 63<98.1541 226> -147 65<52.4406 224.836> -50 20G<457.5 474> -14 70<82 175.777> 384 46<240.043 319.98>
VStem: 26 86<59.0427 196.589> 341 98<311.861 418.5> 436 63<-87.6192 -33.2803>
AnchorPoint: "top_accent" 334 570 basechar 0
LayerCount: 2
Fore
SplineSet
287 89 m 2x17a0
 289 99 283 98 275 88 c 0
 245 49 162 -14 108 -14 c 0
 56 -14 26 45 26 97 c 0
 26 261 199 430 306 430 c 0
 326 430 348 414 361 390 c 0
 365 382 368 380 370 384 c 0
 392 421 402 438 415 438 c 0
 440 438 439 425 439 412 c 0x17c0
 439 390 429 357 420 320 c 2
 316 -99 l 1
 330 -100 345 -100 359 -100 c 0
 416 -100 429 -78 436 -63 c 0
 445 -43 451 -30 464 -30 c 0
 484 -30 499 -51 499 -75 c 0
 499 -120 418 -165 353 -165 c 0
 335 -165 317 -164 300 -163 c 1
 294 -187 l 2
 289 -207 303 -215 328 -221 c 0
 342 -224 351 -234 351 -241 c 0
 351 -255 338 -262 323 -262 c 0x67a0
 251 -262 162 -272 140 -272 c 0
 124 -272 116 -267 116 -255 c 0
 116 -241 133 -235 145 -232 c 0
 193 -222 211 -215 220 -180 c 2
 226 -156 l 1x97a0
 185 -152 142 -147 96 -147 c 0
 65 -147 48 -181 27 -181 c 0
 15 -181 7 -165 7 -151 c 0
 7 -134 60 -82 93 -82 c 0x0fa0
 142 -82 192 -88 242 -93 c 1
 287 89 l 2x17a0
341 317 m 0
 341 344 307 384 289 384 c 0
 220 384 112 220 112 90 c 0
 112 68 126 56 147 56 c 0
 247 56 341 249 341 317 c 0
EndSplineSet
Validated: 33
EndChar
StartChar: uniA759
Encoding: 42841 42841 388
Width: 730
Flags: W
HStem: -272 40<116.301 201.261> -262 41<295.367 350.991> -14 70<82 175.777> 368 61<528.871 641> 384 46<240.043 319.98>
VStem: 26 86<59.0427 196.589> 341 98<286.419 418.5> 622 82<277.562 361.049>
AnchorPoint: "top_accent" 334 570 basechar 0
LayerCount: 2
Fore
SplineSet
341 317 m 0x2f
 341 344 307 384 289 384 c 0
 220 384 112 220 112 90 c 0
 112 68 126 56 147 56 c 0
 247 56 341 249 341 317 c 0x2f
287 89 m 2
 289 99 283 98 275 88 c 0
 245 49 162 -14 108 -14 c 0
 56 -14 26 45 26 97 c 0
 26 261 199 430 306 430 c 0
 326 430 348 414 361 390 c 0
 365 382 368 380 370 384 c 0xaf
 392 421 402 438 415 438 c 0
 440 438 439 425 439 412 c 0
 439 390 429 357 420 320 c 2
 419 315 l 1
 469 375 535 429 616 429 c 0
 666 429 704 400 704 354 c 0
 704 228 508 58 327 -56 c 1
 294 -187 l 2
 289 -207 303 -215 328 -221 c 0
 342 -224 351 -234 351 -241 c 0
 351 -255 338 -262 323 -262 c 0x77
 251 -262 162 -272 140 -272 c 0
 124 -272 116 -267 116 -255 c 0
 116 -241 133 -235 145 -232 c 0xa7
 193 -222 211 -215 220 -180 c 2
 238 -108 l 1
 181 -139 130 -162 92 -173 c 0
 76 -178 54 -175 54 -158 c 0
 54 -140 79 -134 109 -121 c 0
 162 -98 209 -71 255 -41 c 1
 287 89 l 2
346 24 m 1
 377 47 409 72 443 99 c 0
 574 203 622 264 622 326 c 4
 622 346 601 368 581 368 c 0x37
 541 368 480 332 398 230 c 1
 346 24 l 1
EndSplineSet
Validated: 33
EndChar
StartChar: uniA770
Encoding: 1082 42864 389
Width: 367
Flags: MW
LayerCount: 2
Fore
SplineSet
206 729 m 0
 285 729 347 659 347 579 c 0
 347 435 185 290 114 290 c 0
 93 290 81 297 81 317 c 0
 81 331 91.216 344.683 131 361 c 0
 158.756 372.384 208.446 414.778 230 461 c 0
 234.226 470.062 221.957 462.078 213.5 459 c 0
 192.827 451.476 171 448 136 448 c 0
 82 448 24 487.216 24 545 c 0
 24 645.934 123 729 206 729 c 0
114 593 m 0
 114 539 140 499 204 499 c 0
 238 499 255 512.961 255 538 c 0
 255 600.27 235.27 675 173 675 c 0
 136.394 675 114 624 114 593 c 0
EndSplineSet
Validated: 1
EndChar
StartChar: uniE00C
Encoding: 57356 57356 284
Width: 646
Flags: W
HStem: -272 40<116.298 201.432> -262 41<295.367 350.991> -50 21G<427 462.5> -14 70<82 175.775> 274 126<520.5 611.15> 384 46<240.043 319.933>
VStem: 26 86<59.0427 196.589> 502 126<290.949 381.584> 514 80<35.8289 137.591>
LayerCount: 2
Fore
SplineSet
466 156 m 0x3280
 466 180 491 200 526 200 c 0
 574 200 594 161 594 113 c 0
 594 10 493 -50 432 -50 c 0
 422 -50 409 -48 409 -38 c 0
 409 -28 415 -24 434 -14 c 0
 485 13 514 19 514 75 c 0
 514 113 466 120 466 156 c 0x3280
568 400 m 0x3b
 601 400 628 372 628 339 c 0
 628 303 599 274 563 274 c 0
 531 274 502 298 502 330 c 0
 502 368 530 400 568 400 c 0x3b
EndSplineSet
Refer: 81 113 N 1 0 0 1 0 0 2
Validated: 32769
EndChar
StartChar: uniE017
Encoding: 1095 57367 290
Width: 293
Flags: MW
LayerCount: 2
Fore
SplineSet
139 79 m 6
 136 67 138 62 147 62 c 4
 183 62 214 110 229 110 c 4
 235 110 236 103 236 97 c 4
 236 62 156 -14 96 -14 c 4
 63 -14 52 5 52 27 c 4
 52 39 56 50 58 58 c 6
 110 266 l 5
 90 255 74 247 62 241 c 4
 56 238 46 233 39 233 c 4
 29 233 24 239 24 244 c 4
 24 253 49 265 78 281 c 4
 82 283 98 293 120 306 c 5
 183 558 l 6
 189 583 192 593 192 604 c 4
 192 612 122 626 122 641 c 4
 122 656 221 682 253 682 c 4
 275 682 277 670 277 657 c 4
 277 635 271 609 262 572 c 6
 260 562 l 5
 296 594 333 611 365 611 c 4
 397 611 430 589 430 554 c 4
 430 477 306 383 198 317 c 5
 139 79 l 6
243 494 m 5
 211 366 l 5
 285 419 361 486 361 535 c 4
 361 548 353 558 336 558 c 4
 309 558 280 537 243 494 c 5
EndSplineSet
Validated: 1
EndChar
StartChar: uniE04F
Encoding: 1112 57423 298
Width: 1161
Flags: MW
LayerCount: 2
Fore
SplineSet
990 601 m 0
 1022 601 1068 587 1091 574 c 0
 1124 555 1125 524 1125 489 c 0
 1125 476 1120 462 1105 462 c 0
 1093 462 1086 475 1065 508 c 0
 1045 540 1013 544 986 544 c 0
 936 544 904 502 904 453 c 0
 904 420 926 406 955 381 c 2
 1096 262 l 2
 1126 237 1144 198 1144 160 c 0
 1144 59 1046 -11 943 -11 c 0
 912 -11 862 0 838 11 c 0
 801 28 792 39 792 71 c 0
 792 103 799 138 819 138 c 0
 835 138 842 123 851 93 c 0
 862 57 901 28 959 28 c 0
 1013 28 1046 80 1046 138 c 0
 1046 166 1028 186 1006 204 c 2
 909.229352755 283.351930741 l 1
 603 275.340116279 l 1
 603 129 l 2
 603 92 616 60 650 45 c 0
 672 35 705 30 705 15 c 0
 705 5 684 -1 673 -2 c 0
 666 -2 600 4 552 4 c 0
 505 4 456 -2 449 -2 c 0
 438 -1 416 5 416 15 c 0
 416 30 449 35 471 45 c 0
 505 60 508 92 508 129 c 2
 508 264 l 2
 508 274 504 275 494 275 c 2
 232 275 l 2
 222 275 217 276 217 266 c 2
 217 129 l 2
 217 92 220 60 254 45 c 0
 276 35 309 30 309 15 c 0
 309 5 288 -1 277 -2 c 0
 270 -2 214 4 166 4 c 0
 119 4 60 -2 53 -2 c 0
 42 -1 20 5 20 15 c 0
 20 30 53 35 75 45 c 0
 109 60 122 92 122 129 c 2
 122 482 l 2
 122 539 97 540 40 556 c 0
 31 559 24 564 24 573 c 0
 24 585 44 591 59 591 c 0
 98 591 134 586 170 586 c 0
 205 586 236 591 270 591 c 0
 285 591 305 585 305 573 c 0
 305 564 299 559 290 556 c 0
 233 540 217 539 217 482 c 2
 217 334 l 2
 217 329 220 323 230 323 c 2
 495 323 l 2
 505 323 508 326 508 336 c 2
 508 482 l 2
 508 539 493 540 436 556 c 0
 427 559 420 564 420 573 c 0
 420 585 440 591 455 591 c 0
 494 591 520 586 556 586 c 0
 591 586 632 591 666 591 c 0
 681 591 701 585 701 573 c 0
 701 564 695 559 686 556 c 0
 629 540 603 539 603 482 c 2
 603 323 l 1
 860.87804878 323 l 1
 856 327 l 2
 827 350 812 379 812 417 c 0
 812 516 892 601 990 601 c 0
EndSplineSet
Validated: 1
EndChar
StartChar: uniE060
Encoding: 1116 57440 213
Width: 1317
Flags: MW
LayerCount: 2
Fore
SplineSet
325 632 m 0
 403 632 486.776 586.921 490 521 c 0
 491.807 484.044 466 449 429 449 c 0
 399 449 370 468.98 370 498 c 0
 370 534.06 333 569 302 569 c 0
 224 569 139 495 139 417 c 0
 139 333 199.328 277.013 264 256 c 0
 322.014 237.15 404 205.283 404 133 c 0
 404 93 404.687 74 438 74 c 0
 474 74 525.348 136.587 556 187 c 0
 574.703 217.761 577 263 577 331 c 0
 577 363 608.205 414.269 642 418 c 0
 700.644 424.474 718.12 449.718 750 522 c 0
 779.055 587.877 897 644 1009 644 c 0
 1161 644 1269 490 1269 334 c 0
 1269 170 1170 -3 1014 -3 c 0
 935 -3 838 42 838 125 c 0
 838 170 866 220 902 220 c 0
 931 220 959.613 192.732 964 157 c 0
 969.484 112.335 984 67 1030 67 c 0
 1111 67 1170 144.666 1170 223 c 0
 1170 294.46 1130.85 334.952 1058 368 c 0
 976.038 405.179 974.957 437.699 953 541 c 0
 950.089 554.694 931.04 559 918 559 c 0
 858 559 787.474 481.147 764 437 c 0
 752.263 414.926 747 397.04 747 385 c 0
 747 374 758 323 758 306 c 0
 758 265.95 710.201 224.547 651 203 c 0
 628.447 194.792 612.531 166.233 599.73 138 c 0
 563.462 58 448.57 1 352 1 c 0
 168.307 1 46 156.307 46 340 c 0
 46 497.507 168 632 325 632 c 0
EndSplineSet
Validated: 33
EndChar
StartChar: uniF760
Encoding: 1133 63328 297
Width: 420
Flags: MW
LayerCount: 2
Fore
SplineSet
362 388 m 0
 401.957 384.504 422 374 422 357 c 0
 422 350 401.787 338.431 388 336 c 0
 376.448 333.963 339.65 331 326 331 c 0
 312 331 303 317 303 298 c 2
 303 -45 l 2
 303 -53 308 -92.52 308 -123 c 0
 308 -144 289 -206 234 -206 c 0
 210 -206 188 -177 188 -150 c 0
 188 -132 230.322 -120.678 248 -103 c 0
 262.064 -88.9356 271 -72 271 -51 c 2
 271 24 l 2
 271 35.5552 269 46 254 46 c 0
 148.373 46 49 93 49 213 c 4
 49 324 146.38 394 249 394 c 16
 293.11 394 333.021 390.535 362 388 c 0
EndSplineSet
Validated: 1
EndChar
StartChar: uniF763
Encoding: 1136 63331 202
Width: 511
Flags: MW
LayerCount: 2
Fore
SplineSet
311 470 m 4
 356 470 406.323 457.762 419 448 c 4
 454.083 420.983 471 407 471 392 c 4
 471 357.47 451 318 441 318 c 4
 424 318 424.016 335.01 401 371 c 4
 379.449 404.698 342 420 300 420 c 4
 206 420 150 323 150 227 c 4
 150 134 201 37 292 37 c 4
 335 37 379.728 75.1937 396 90 c 4
 413.751 106.152 431 144 442 144 c 4
 453.7 144 458 136 458 120 c 4
 458 84 453.096 43.321 424 30 c 4
 385.812 12.5162 331 -10 271 -10 c 4
 146 -10 48 96 48 219 c 4
 48 358 171 470 311 470 c 4
EndSplineSet
Validated: 1
EndChar
StartChar: uniF770
Encoding: 1148 63344 221
Width: 460
Flags: MW
LayerCount: 2
Fore
SplineSet
202 344 m 2
 202 129 l 2
 202 92 200 64 234 49 c 0
 256 39 289 30 289 15 c 0
 289 5 268 -1 257 -2 c 0
 250 -2 204 4 156 4 c 0
 109 4 70 -2 63 -2 c 0
 52 -1 30 5 30 15 c 0
 30 30 63 39 85 49 c 0
 119 64 116 92 116 129 c 2
 116 344 l 2
 116 401 107 398 50 414 c 0
 41 417 34 426 34 435 c 0
 34 447 54 453 69 453 c 0
 108 453 150 460 203 460 c 0
 305 460 425 422 425 322 c 0
 425 243.099 342 175 280 175 c 0
 265 175 252 181 252 191 c 0
 252 207 260.375 210.153 271 213 c 0
 297.08 219.988 326 256 326 315 c 0
 326 380 282.933 404 236 404 c 0
 211 404 202 404 202 344 c 2
EndSplineSet
Validated: 33
EndChar
StartChar: .notdef
Encoding: 1165 -1 0
Width: 416
Flags: MW
LayerCount: 2
Fore
SplineSet
90 -31 m 1
 326 -31 l 1
 326 424 l 1
 90 424 l 1
 90 -31 l 1
368 -73 m 1
 48 -73 l 1
 48 466 l 1
 368 466 l 1
 368 -73 l 1
EndSplineSet
Validated: 1
EndChar
StartChar: A.sw
Encoding: 1114142 -1 413
Width: 916
Flags: W
HStem: -48 44<144 303.111> -2 46<657.105 738.068 862.051 927.884> 216 50<676 773.453> 577 20G<886 908.5>
AnchorPoint: "top_accent" 908 660 basechar 0
AnchorPoint: "ogonek" 824 18 basechar 0
AnchorPoint: "cedilla" 424 8 basechar 0
LayerCount: 2
Fore
SplineSet
786 280 m 2
 804 406 l 2
 807 426 798.874 430.107 781 409 c 2
 676 285 l 2
 668 276 668 266 676 266 c 10
 774 266 l 18
 784 266 785 272 786 280 c 2
611 203 m 0
 452 44 366 -48 167 -48 c 0
 121 -48 39 -5 39 69 c 0
 39 104 53 132 88 132 c 0
 123 132 146 -4 242 -4 c 0
 326 -4 536 198 650 330 c 2
 796 499 l 2
 831.827 541.544 872 597 900 597 c 0
 917 597 923 591 920 571 c 2
 859 129 l 2
 853 84 859 53 882 45 c 0
 909 35 930 30 930 15 c 0
 930 5 915 -2 899 -2 c 0
 887 -2 826 4 778 4 c 0
 731 4 702 -2 687 -2 c 0
 671 -2 654 5 654 15 c 0
 654 30 686 34 709 44 c 0
 742 59 757 88 764 129 c 2
 775 205 l 2
 776 213 774 216 764 216 c 10
 640 216 l 18
 630 216 619 211 611 203 c 0
EndSplineSet
Validated: 33
Substitution2: "c2sc subtable" A.sc
EndChar
StartChar: AE.sw
Encoding: 1114168 -1 439
Width: 916
Flags: W
HStem: -36 46<142.161 267.281> -5 47<687.42 766.23 969 1180.77> 3 39<898.189 1017.42> 142 102<101.053 159.864> 254 50<692.566 825.062> 290 48<956.312 1100.21> 594 52<1065.8 1187.52>
VStem: 38 61<52.3802 139.912> 1197 76<505.479 582.85>
AnchorPoint: "top_accent" 1136 660 basechar 0
AnchorPoint: "ogonek" 856 18 basechar 0
AnchorPoint: "cedilla" 431 8 basechar 0
LayerCount: 2
Fore
SplineSet
994 495 m 2x9b80
 960 375 l 2
 952.3671875 348.060546875 952.977539062 338 975 338 c 2
 1090 338 l 2
 1127 338 1157 380 1169 380 c 0
 1181 380 1177.60351562 364.565429688 1173 345 c 0
 1165 311 1139 234 1125 234 c 0
 1110 234 1107 249 1100 269 c 0
 1094.77636719 283.923828125 1075 290 1050 290 c 2
 968 290 l 2
 939 290 931 272 927 257 c 2
 894 133 l 2
 877.594726562 71.3564453125 901 42 936 42 c 2x3780
 1117 42 l 2
 1149 42 1177 59 1195 74 c 0
 1215 90 1236 123 1257 123 c 0
 1269 123 1270 119 1270 105 c 0
 1270 80 1245 37 1219 8 c 0
 1211 -1 1194 -5 1180 -5 c 0x5380
 1066 -5 853 3 815 3 c 0x3380
 768 3 734 -2 719 -2 c 0
 703 -2 686 5 686 15 c 0
 686 30 718 34 741 44 c 0
 774 59 784.962890625 88.8984375 796 129 c 2
 826 236 l 2
 828.435404014 244.664225718 829 254 819 254 c 10
 649 254 l 18
 639 254 630.80078125 249.194335938 623 241 c 0
 524 137 340 -36 177 -36 c 0
 118 -36 38 27 38 113 c 0
 38 173 90.9990234375 244 153.999023438 244 c 0
 189.999023438 244 234 210 234 166 c 0
 234 132.315429688 196 111 178 111 c 0
 158.9 111 151 142 130 142 c 0
 109 142 99 129.309570312 99 108 c 0
 99 54 151 10 208 10 c 0
 343 10 841 559 964 579 c 0
 974.857421875 580.765625 984 584 1000 594 c 0
 1038.57226562 618.107421875 1122.27158696 646 1153 646 c 0
 1213.85 646 1273 597 1273 550 c 0
 1273 510 1227 485 1216 485 c 8
 1202.96582031 485 1190 492.97 1190 506 c 0
 1190 512 1197 531.067382812 1197 547 c 0
 1197 582.154296875 1160 594 1130 594 c 0
 1067.04 594 1010 551.470703125 994 495 c 2x9b80
848 318 m 2
 884 446 l 2
 890.5546875 466.646484375 888.892578125 476.465820312 861 456 c 2
 693 323 l 2
 683.561523438 315.528320312 685 304 693 304 c 10
 829 304 l 18x1b80
 839 304 845.73046875 310.272460938 848 318 c 2
EndSplineSet
Validated: 524321
EndChar
StartChar: B.sw
Encoding: 1114143 -1 414
Width: 783
Flags: W
HStem: -6 51<238.764 318.553 446.631 562.082> 303 40<502.606 584.68> 401 21G<111.5 142.585> 590 53<232.243 443.738>
VStem: 62 84<440.237 535.09> 633 105<111.385 253.743> 663 94<396.375 523.553>
LayerCount: 2
Fore
SplineSet
390 590 m 0xfc
 308.97 590 244.482 578.349 218 566 c 0
 181.005 548.749 146 525 146 507 c 0
 146 489.38 165 476 165 456 c 0
 165 432 157.17 401 128 401 c 0
 95 401 62 439 62 478 c 0
 62 559 156.557 599.808 220 618 c 0
 292.095 638.673 328.073 643 427 643 c 0
 586 643 757 580 757 471 c 0xfa
 757 395 702.383 345.386 630 330 c 0
 618.263 327.505 620.219 322.079 630 320 c 0
 690.646 307.109 738 242 738 179 c 0
 738 77 609.872 -6 507 -6 c 0
 444 -6 451 4 357 4 c 0
 310 4 283 -2 268 -2 c 0
 252 -2 235 5 235 15 c 0
 234 30 267 34 290 44 c 0
 323 59 334.86 88.0342 345 129 c 2
 446 533 l 2
 456.894 577.021 433 590 390 590 c 0xfc
506 394 m 2
 497 359 503 343 527 343 c 0
 604 343 663 392 663 461 c 0
 663 509.324 623.324 562 575 562 c 0
 553 562 541.612 536.574 530 490 c 2
 506 394 l 2
439 126 m 2
 427.146 78.4551 451 45 490 45 c 0
 559 45 633 106 633 175 c 0xfc
 633 269 579 303 513 303 c 0
 491 303 480 288 475 270 c 2
 439 126 l 2
EndSplineSet
Validated: 33
Substitution2: "c2sc subtable" B.sc
EndChar
StartChar: C.alt
Encoding: 1114119 -1 308
Width: 468
VWidth: 0
Flags: W
HStem: -20 64<192.743 317.391> 589 41<340 442.782>
VStem: 45 99<104.738 307.419> 469 82<489.847 563.845>
LayerCount: 2
Fore
SplineSet
417 630 m 0
 444 630 477.517 620.332 516 599 c 0
 535.241 588.334 551 564 551 542 c 0
 551 524 534 476 501 476 c 0
 486 476 478.934 487.928 469 525 c 0
 461.235 553.978 432.34 589 402 589 c 0
 277 589 144 365 144 204 c 0
 144 135 176 44 245 44 c 0
 300 44 333 75 350 75 c 0
 367 75 374 67 374 49 c 0
 374 23 292 -20 228 -20 c 0
 131 -20 45 68 45 169 c 0
 45 399 213 630 417 630 c 0
EndSplineSet
Validated: 1
EndChar
StartChar: C.sw
Encoding: 1114144 -1 415
Width: 492
Flags: W
HStem: -263 70<180.417 298.581> -81 20G<402 416> 597 55<410.96 551>
VStem: 38 99<-139.253 116.772> 526 100<497.182 579.372>
LayerCount: 2
Fore
SplineSet
522 652 m 0
 580 652 626 606 626 553 c 0
 626 521 595 474 571 474 c 0
 543 474 538.164 489.601 526 535 c 0
 517.2 567.841 498 597 470 597 c 0
 310 597 137 196 137 -42 c 0
 137 -108 165 -193 231 -193 c 0
 350 -193 395 -61 409 -61 c 0
 423 -61 433 -70 433 -86 c 0
 433 -153 336 -263 198 -263 c 0
 72 -263 38 -160 38 -22 c 0
 38 301.613 253 652 522 652 c 0
EndSplineSet
Validated: 1
Substitution2: "c2sc subtable" C.sc
EndChar
StartChar: D.sw
Encoding: 1114145 -1 416
Width: 903
Flags: W
HStem: -2 46<237.125 317.195> 3 53<435.097 602.747> 397 21G<98.563 128.5> 606 51<247.089 586.5>
VStem: 49 76<473.208 541.953> 771 105<256.481 465.765>
LayerCount: 2
Fore
SplineSet
375 606 m 0xbc
 270.836 606 125 562 125 512 c 0
 125 482 162 475 162 434 c 0
 162 421 138 397 119 397 c 0
 78.126 397 49 440 49 475 c 0
 49 557.456 132.352 606.141 199 624 c 0
 288.831 648.07 374.44 657 465 657 c 0
 708 657 876 566 876 373 c 0
 876 167 689 3 479 3 c 2
 356 3 l 2x7c
 320 3 282 -2 267 -2 c 0
 251 -2 234 5 234 15 c 0
 234 30 266.232 33.6729 289 44 c 0
 321.784 58.8721 333.866 88.2412 344 129 c 2
 447 543 l 2
 459.338 592.485 440 606 375 606 c 0xbc
538 526 m 2
 439 129 l 2
 430.775 96.0098 413 56 501 56 c 0
 661 56 771 189 771 356 c 0
 771 478 701 585 583 585 c 0
 552 585 544.543 552.239 538 526 c 2
EndSplineSet
Validated: 33
Substitution2: "c2sc subtable" D.sc
EndChar
StartChar: E.sw
Encoding: 1114146 -1 417
Width: 496
Flags: W
HStem: -16 75<177.596 307.044> 290 44<209.271 346.739> 391 47<252.135 374.668> 544 21G<507.5 530.5> 656 48<306.228 455.859>
VStem: 38 94<107.126 238.393> 99 91<384.95 536.043> 350 63<341.068 390.301> 486 82<554.86 625.291>
LayerCount: 2
Fore
SplineSet
99 442 m 0xfb80
 99 597 254 704 433 704 c 0
 494 704 568 652 568 602 c 0
 568 570 545 544 516 544 c 0
 499 544 489.039637657 559.273954355 486 576 c 0
 478.66910918 616.339286555 449 656 406 656 c 0
 296 656 190 584 190 474 c 0xfb80
 190 403 226 334 293 334 c 0
 326 334 350 348 350 367 c 0
 350 381 345 391 324 391 c 0
 222 391 132 283 132 174 c 0
 132 118 175 59 234 59 c 0
 308 59 372.604492188 105.325195312 429 173 c 16
 434 179 440.845703125 190 452 190 c 16
 457 190 464 183 464 175 c 0
 464 163 461 151 452 138 c 0
 381 35 307 -16 196 -16 c 0
 106 -16 38 57 38 150 c 0xfd80
 38 280 191 438 361 438 c 0
 388.3359375 438 413 413 413 386 c 0
 413 326 329 290 269 290 c 0
 173 290 99 353.06 99 442 c 0xfb80
EndSplineSet
Validated: 5
Substitution2: "c2sc subtable" E.sc
EndChar
StartChar: F.sw
Encoding: 1114147 -1 418
Width: 492
Flags: W
HStem: -2 46<-32.8953 47.3235 172.216 237.884> 275 48<225.975 383.812> 559 40<276.161 484.97> 569 35<98.0204 153.589> 586 20G<512.5 539>
VStem: 494 41<477.745 552.469>
LayerCount: 2
Fore
SplineSet
168 125 m 10xe4
 160.1 93.3984 169 53 192 45 c 0
 219 35 240 30 240 15 c 0
 240 5 225 -2 209 -2 c 0
 197 -2 134 4 86 4 c 0
 39 4 12 -2 -3 -2 c 0
 -19 -2 -36 5 -36 15 c 0
 -36 30 -4 34 19 44 c 0
 52 59 64 88 74 129 c 2
 165 495 l 2
 176 539 166 554 114 569 c 0xd4
 105 571 98 577 98 586 c 0xcc
 98 598 118 604 134 604 c 0xd4
 173 604 209 599 245 599 c 2
 439 599 l 2xe4
 475 599 496 606 529 606 c 0xcc
 549 606 555 600 555 580 c 0
 555 567 539 522 535 507 c 0
 529 486 522 477 509 477 c 0
 497 477 497 485 494 508 c 0
 488 551 472 559 449 559 c 2
 325 559 l 2
 288 559 274 552 260 495 c 2
 230 375 l 2
 223 348 221 323 243 323 c 2
 362 323 l 2
 399 323 418 358 430 358 c 0
 442 358 444.875 349.5 440 330 c 0
 432 298 423 223 409 223 c 0
 394 223 391 236 383 257 c 0
 377 272 368 275 343 275 c 2
 240 275 l 2
 211 275 205 272 201 257 c 2
 168 125 l 10xe4
EndSplineSet
Validated: 33
Substitution2: "c2sc subtable" F.sc
EndChar
StartChar: G.sw
Encoding: 1114148 -1 419
Width: 602
Flags: W
HStem: -271 64<204.759 312.005> -8 43<211.528 351.986> 257 42<569.41 633.665> 602 44<339.199 510.637>
VStem: 38 100<140.341 356.138> 553 77<516.215 562.533>
LayerCount: 2
Fore
SplineSet
412 50 m 0
 364.67 8.41989 297 -8 246 -8 c 0
 117 -8 38 125 38 254 c 0
 38 472 252 646 440 646 c 0
 502 646 564 636 594 636 c 0
 623 636 630 624 630 603 c 0
 630 573 596 458 573 458 c 0
 561 458 557 476 553 516 c 0
 547 576 484 602 420 602 c 0
 282 602 138 414 138 235 c 0
 138 142 183 35 276 35 c 0
 356.836 35 432.63 106.396 444 152 c 2
 459 212 l 2
 465.917 240.162 438 251 419 264 c 0
 409 271 395 277 395 286 c 0
 395 298 403 302 427 302 c 0
 446 302 519 297 528 297 c 0
 604 297 599 299 609 299 c 0
 621 299 634 291 634 279 c 0
 634 275 615 260 605 257 c 0
 577 248 560.81 237.682 550 194 c 2
 489 -50 l 2
 456.582 -180.02 328 -271 214 -271 c 0
 166 -271 113 -236 113 -208 c 0
 113 -175 131 -149 175 -149 c 0
 202 -149 181 -207 266 -207 c 0
 337 -207 371.421 -176.927 397 -72 c 2
 427 51 l 2
 430.553 65.5732 419.513 56.6 412 50 c 0
EndSplineSet
Validated: 33
Substitution2: "c2sc subtable" G.sc
EndChar
StartChar: H.sw
Encoding: 1198 -1 420
Width: 723
Flags: MW
LayerCount: 2
Fore
SplineSet
642 358 m 2
 586 129 l 2
 575 85 586 53 609 45 c 0
 636 35 657 30 657 15 c 0
 657 5 642 -2 626 -2 c 0
 614 -2 551 4 503 4 c 0
 456 4 429 -2 414 -2 c 0
 398 -2 381 5 381 15 c 0
 381 30 413 34 436 44 c 0
 469 59 481 88 491 129 c 2
 523 258 l 2
 527 275 527 280 517 280 c 2
 260 280 l 2
 248 280 245 275 242 263 c 2
 209 129 l 2
 198 85 209 53 232 45 c 0
 259 35 280 30 280 15 c 0
 280 5 265 -2 249 -2 c 0
 237 -2 174 4 126 4 c 0
 79 4 52 -2 37 -2 c 0
 21 -2 4 5 4 15 c 0
 4 30 36 34 59 44 c 0
 92 59 104 88 114 129 c 2
 205 495 l 2
 216 539 206 554 154 569 c 0
 145 571 138 577 138 586 c 0
 138 598 158 604 173 604 c 0
 212 604 248 599 284 599 c 0
 319 599 332 604 366 604 c 0
 381 604 401 598 401 586 c 0
 401 577 395 571 386 569 c 0
 329 553 312 544 300 495 c 2
 265 352 l 2
 263 345 263 335 273 335 c 2
 530 335 l 2
 541 335 544.324271973 340.921557658 548 356 c 0
 593.236085899 541.56588192 667.273410946 726 850 726 c 0
 885 726 905 717 905 697 c 0
 905 670 885 650 862 650 c 0
 848 650 832 676 788 676 c 0
 698.067020827 676 660.737787313 433.715885563 642 358 c 2
EndSplineSet
Validated: 33
Substitution2: "c2sc subtable" H.sc
EndChar
StartChar: I.sw
Encoding: 1199 -1 421
Width: 346
Flags: MW
LayerCount: 2
Fore
SplineSet
366 604 m 0
 381 604 401 598 401 586 c 0
 401 577 394.664 571.436 386 569 c 0
 329.201 553.034 312.096 543.515 300 495 c 2
 209 129 l 2
 198.142 85.3291 209.447 53.2085 232 45 c 0
 259.251 35.0814 280 30 280 15 c 0
 280 5 265 -2 249 -2 c 0
 237 -2 174 4 126 4 c 0
 79 4 52 -2 37 -2 c 0
 21 -2 4 5 4 15 c 0
 4 30 36.2329 33.6724 59 44 c 0
 91.7846 58.8718 103.866 88.2412 114 129 c 2
 205 495 l 2
 215.886 538.663 205.985 554.388 154 569 c 0
 145.336 571.436 138 577 138 586 c 0
 138 598 158 604 173 604 c 0
 212 604 248 599 284 599 c 0
 319 599 332 604 366 604 c 0
EndSplineSet
Validated: 33
Substitution2: "c2sc subtable" I.sc
EndChar
StartChar: J.sw
Encoding: 1200 -1 422
Width: 616
Flags: MW
LayerCount: 2
Fore
SplineSet
560 532 m 0
 540 472 517 390 495 312 c 2
 480 258 l 1
 549 260 l 2
 561 260 575 255 575 244 c 0
 575 224 557 208 531 207 c 2
 464 204 l 1
 399 -26 l 2
 361 -159 269 -259 133 -259 c 0
 70 -259 -27 -225 -27 -156 c 0
 -27 -115 -2 -80 22 -80 c 0
 53 -80 62 -108 62 -119 c 0
 62 -144 75 -212 153 -212 c 0
 254 -212 281 -106 313 12 c 2
 363 200 l 1
 259 195 l 2
 240 194 213 198 213 211 c 0
 213 232 230 249 251 250 c 2
 378 254 l 1
 383 274 l 2
 409 372 437 463 467 532 c 0
 475 550 456 542 437 542 c 0
 328 542 266 573 155 573 c 0
 138 573 105 566 105 543 c 0
 105 528 119 501 119 494 c 0
 119 476 109 460 92 460 c 0
 66 460 29 484 29 517 c 0
 29 599 115 642 197 642 c 0
 282 642 408 600 467 600 c 0
 483 600 495 602 505 604 c 1
 529 643 555 665 581 665 c 0
 611 665 636 643 636 617 c 0
 636 593 618 576 591 565 c 0
 585 562 578 560 571 558 c 1
 567 548 562 539 560 532 c 0
EndSplineSet
Substitution2: "c2sc subtable" J.sc
EndChar
StartChar: K.sw
Encoding: 1114152 -1 423
Width: 557
Flags: W
HStem: -269 52<721.22 910.762> -84 20G<963.569 995.528> -2 46<-46.8953 33.3235 156.581 223.884> 299 48<215.668 250.904> 569 35<84.0204 139.589 284.42 346.983 407.02 449.837 569.797 635.98>
VStem: 947 92<-181.189 -81.9802>
AnchorPoint: "top_accent" 391 650 basechar 0
LayerCount: 2
Fore
SplineSet
261 263 m 0
 251 284 229 299 213 299 c 0
 199 299 192 280 190 270 c 2
 155 129 l 2
 144 85 155 53 178 45 c 0
 205 35 226 30 226 15 c 0
 226 5 211 -2 195 -2 c 0
 183 -2 120 4 72 4 c 0
 25 4 -2 -2 -17 -2 c 0
 -33 -2 -50 5 -50 15 c 0
 -50 30 -18 34 5 44 c 0
 38 59 50 88 60 129 c 2
 151 495 l 2
 162 539 152 554 100 569 c 0
 91 571 84 577 84 586 c 0
 84 598 104 604 119 604 c 0
 158 604 194 599 230 599 c 0
 265 599 278 604 312 604 c 0
 327 604 347 598 347 586 c 0
 347 577 341 571 332 569 c 0
 275 553 258 544 246 495 c 2
 217 379 l 2
 215 369 213 347 227 347 c 0
 252 347 291 380 321 407 c 2
 436 512 l 2
 454 529 466 557 423 569 c 0
 414 572 407 577 407 586 c 0
 407 598 427 604 442 604 c 0
 481 604 493 599 529 599 c 0
 564 599 567 604 601 604 c 0
 616 604 636 598 636 586 c 0
 636 577 629 571 621 569 c 0
 539 546 519 525 476 485 c 2
 325 342 l 2
 317 335 322 329 326 322 c 0
 458 92 594.629882812 -217 822 -217 c 0
 895.374023438 -217 935.842773438 -198.520507812 947 -126 c 0
 949 -113 950.137695312 -64 977 -64 c 0
 1014.05664062 -64 1039 -101 1039 -136 c 0
 1039 -194 942 -269 774 -269 c 0
 544 -269 345 81 261 263 c 0
EndSplineSet
Validated: 33
Substitution2: "c2sc subtable" K.sc
EndChar
StartChar: L.sw
Encoding: 1114153 -1 424
Width: 627
Flags: W
HStem: -5 55<40.5448 116.845 234.167 511.773> 2 48<234.167 505.598> 569 35<163.02 218.589 363.42 425.983>
LayerCount: 2
Fore
SplineSet
234 131 m 2xa0
 325 495 l 2
 337 544 354 553 411 569 c 0
 420 571 426 577 426 586 c 0
 426 598 406 604 391 604 c 0
 357 604 344 599 309 599 c 0
 273 599 237 604 198 604 c 0
 183 604 163 598 163 586 c 0
 163 577 170 571 179 569 c 0
 231 554 241 539 230 495 c 2
 139 129 l 2
 129 88 117 59 84 44 c 0
 61 34 29 30 29 15 c 0
 29 5 46 -2 61 -2 c 0
 76 -2 117 2 164 2 c 4x60
 202 2 397 -5 511 -5 c 4
 525 -5 542 -1 550 8 c 4
 576 37 601 88 601 113 c 4
 601 127 600 131 588 131 c 4
 567 131 546 98 526 82 c 4
 508 67 480 50 448 50 c 6
 276 50 l 6
 241 50 219 69 234 131 c 2xa0
EndSplineSet
Validated: 41
Substitution2: "c2sc subtable" L.sc
EndChar
StartChar: M.sw
Encoding: 1114154 -1 425
Width: 1103
Flags: W
HStem: -32 66<156.538 286.358> -2 46<791.105 871.324 994.581 1061.88> 9 21G<635.5 660> 569 35<508.02 564.669 1123.74 1184.98>
VStem: 36 85<73.5172 166.375> 600 120<441.314 541.15>
AnchorPoint: "top_accent" 851 650 basechar 0
LayerCount: 2
Fore
SplineSet
600 506 m 0x9c
 600 525 576 554 524 569 c 0
 515 571 508 577 508 586 c 0
 508 598 528 604 543 604 c 0
 582 604 603.340820312 599 642 599 c 16
 695 599 721.287187545 587.082026303 720 541 c 2
 711 220 l 2
 709.7109375 174.018554688 729 191 746 214 c 2
 994 552 l 2
 1031 603 1042 599 1068 599 c 0
 1103 599 1116 604 1150 604 c 0
 1165 604 1185 598 1185 586 c 0
 1185 577 1179 571 1170 569 c 0
 1113 553 1095 538 1084 495 c 2
 993 129 l 2
 982 85 993 53 1016 45 c 0
 1043 35 1064 30 1064 15 c 0
 1064 5 1049 -2 1033 -2 c 0
 1021 -2 958 4 910 4 c 0
 863 4 836 -2 821 -2 c 0
 805 -2 788 5 788 15 c 0
 788 30 820 34 843 44 c 0x5c
 876 59 888 88 898 129 c 2
 958 370 l 2
 971 420 933 371 924 359 c 2
 786 176 l 2
 743 118 677 9 643 9 c 0x3c
 628 9 619.364763368 21.0077612657 620 47 c 2
 629 405 l 2
 629.489132207 425.014023825 623 431 617 414 c 8
 536.495117188 185.90234375 374 -32 186 -32 c 8
 104.90625 -32 36 30.90625 36 112 c 16
 36 153 68.068359375 190 110 190 c 16
 133 190 117 159 121 133 c 8
 128.815429688 82.197265625 156.599609375 34 208 34 c 16
 450 34 600 489 600 506 c 0x9c
EndSplineSet
Validated: 524321
Substitution2: "c2sc subtable" M.sc
EndChar
StartChar: N.sw
Encoding: 1204 -1 426
Width: 872
Flags: MW
LayerCount: 2
Fore
SplineSet
216 610 m 2
 372 610 l 2
 425 610 440 579 466 540 c 2
 684 204 l 2
 698 185 707 180 711 204 c 2
 759 472 l 2
 768 510 737.201171875 554.599609375 694 569 c 16
 685 572 678 577 678 586 c 0
 678 598 698 604 713 604 c 0
 752 604 764 599 800 599 c 0
 835 599 838 604 872 604 c 0
 887 604 907 598 907 586 c 0
 907 577 900 571 892 569 c 0
 833 552 824 519 815 479 c 2
 761 166 l 2
 759 156 752 119 752 112 c 0
 752 103 749 86 769 54 c 0
 820 -31 948 -217 1099 -217 c 0
 1172 -217 1213 -199 1224 -126 c 0
 1226 -113 1227 -64 1254 -64 c 0
 1291 -64 1316 -101 1316 -136 c 0
 1316 -194 1248 -269 1080 -269 c 0
 893 -269 751 -82 668 55 c 2
 461 396 l 2
 443 425 430 426 426 408 c 2
 357 113 l 2
 349 78 362 53 385 45 c 0
 412 35 433 30 433 15 c 0
 433 5 418 -2 402 -2 c 0
 390 -2 363 4 315 4 c 0
 268 4 241 -2 226 -2 c 0
 210 -2 193 5 193 15 c 0
 193 30 213 34 236 44 c 0
 272 61 288 76 295 102 c 2
 383 426 l 2
 389 449 396.393054124 479.261717855 385 498 c 0
 368.271484597 525.51357433 352.845703125 555 320 555 c 18
 200 555 l 2
 176 555 90 516 90 452 c 0
 90 418 103 392 135 374 c 8
 144.620117188 368.588867188 150 361 150 350 c 8
 150 335.803710938 135 328 121 328 c 0
 80 328 25 360 25 412 c 0
 25 485 137 610 216 610 c 2
EndSplineSet
Validated: 33
Substitution2: "c2sc subtable" N.sc
EndChar
StartChar: O.sw
Encoding: 1114156 -1 427
Width: 585
Flags: W
HStem: -20 45<175.156 316.603> 583 47<301.854 435.764>
VStem: 20 99<117.205 318.477> 490 99<266.09 504.283>
LayerCount: 2
Fore
SplineSet
393 630 m 4
 508 630 589 519 589 404 c 0
 589 185 435 -20 243 -20 c 0
 115 -20 20 93 20 219 c 0
 20 435 198 630 393 630 c 4
119 169 m 0
 119 105 162 25 234 25 c 0
 386 25 490 213.6 490 393 c 0
 490 479.016 464.02 583 378 583 c 0
 233 583 119 371 119 169 c 0
EndSplineSet
Validated: 1
Substitution2: "c2sc subtable" O.sc
EndChar
StartChar: P.sw
Encoding: 1114157 -1 428
Width: 804
Flags: W
HStem: -2 46<293.125 373.147 497.14 563.906> 300 40<603.123 688.698> 600 61<314.342 710.839>
VStem: 46 71<423.5 514.265> 753 92<404.708 557.608>
LayerCount: 2
Fore
SplineSet
542 661 m 0
 661 661 845 643.49 845 472 c 0
 845 377 717 300 634 300 c 0
 622 300 603 306 603 319 c 0
 603 328 619.349 336.006 642 340 c 0
 701.088 350.419 753 403 753 479 c 0
 753 542 721 600 647 600 c 0
 626 600 608.612 585.574 597 539 c 2
 495 129 l 2
 485.249 85.0684 495.447 53.208 518 45 c 0
 545.251 35.0811 566 30 566 15 c 0
 566 5 551 -2 535 -2 c 0
 523 -2 460 4 412 4 c 0
 365 4 338 -2 323 -2 c 0
 307 -2 290 5 290 15 c 0
 290 30 322.232 33.6729 345 44 c 0
 377.784 58.8721 389.675 88.2891 400 129 c 2
 503 543 l 2
 515.511 592.442 498 606 433 606 c 0
 330 606 117 554 117 491 c 0
 117 447 159 446 159 405 c 0
 159 392 135 368 116 368 c 0
 75.126 368 46 406 46 441 c 0
 46 618 350 661 542 661 c 0
EndSplineSet
Validated: 33
Substitution2: "c2sc subtable" P.sc
EndChar
StartChar: Q.long
Encoding: 2093 -1 1818
Width: 646
Flags: HMW
LayerCount: 2
Back
SplineSet
471 691 m 0
 594 691 713 569 713 439 c 0
 713 261.3203125 606 129 458 41 c 0
 449.405273438 35.8896484375 446.627929688 34.162109375 454 29 c 0
 643.223632812 -103.49609375 861 -217 1011 -217 c 4
 1123 -217 1179 -174 1199 -174 c 4
 1206.03027344 -174 1209 -178 1209 -189 c 4
 1209 -240 1101 -273 1033 -273 c 4
 761 -273 614.149414062 -164.08984375 381 -24 c 0
 369 -16.7890625 363.692382812 -16.5517578125 353 -22 c 0
 271.02734375 -63.767578125 194 -92 66 -92 c 0
 24 -92 -20 -54 -20 -14 c 0
 -20 47 60 115 160 115 c 0
 248 115 309.341796875 99.6259765625 377 75 c 0
 388.276367188 70.8955078125 393.969726562 69.71875 403 76 c 0
 495 140 613 274 613 416 c 0
 613 518.66015625 578 633 464 633 c 0
 349 633 234 527.642578125 234 402 c 0
 234 298.456054688 273.826171875 273 334 273 c 0
 371.521484375 273 404 303 404 339 c 0
 404 354 394 365 379 365 c 0
 361 365 353 354 341 354 c 0
 325 354 314 368 314 383 c 0
 314 422 359 469 407 469 c 0
 450 469 482 426 482 382 c 0
 482 261 394 223 283 223 c 0
 199 223 129 289 129 371 c 0
 129 552 321 691 471 691 c 0
48 10 m 0
 48 -19 99.7470703125 -33 139 -33 c 0
 205.967773438 -33 309 -1 309 14 c 0
 309 29 211 62 148 62 c 0
 105 62 48 50 48 10 c 0
EndSplineSet
Fore
SplineSet
959 -274 m 0
 643 -274 496.450195312 -93 181 -93 c 0
 105 -93 31 -133 7 -133 c 8
 -6.6220703125 -133 -24.0294356757 -132.58790054 -25 -119 c 24
 -26.40234375 -99.36328125 -15.1259765625 -84.681640625 3 -77 c 24
 93.3193359375 -38.7236328125 152.999023438 -32.9951171875 244 -5 c 0
 253.557617188 -2.0595703125 251.8125 8.0751953125 242 10 c 0
 135 30.9921875 59 133 59 245 c 0
 59 461 237 620 432 620 c 0
 547 620 626 519 626 404 c 0
 626 265 574 68 295 -26 c 0
 289.006835938 -28.01953125 286.684570312 -37.6572265625 293 -38 c 0
 532.5 -51 721.45 -214 1009 -214 c 0
 1096 -214 1179 -174 1199 -174 c 0
 1206.03027344 -174 1209 -178 1209 -189 c 0
 1209 -240 1076 -274 959 -274 c 0
158 195 m 0
 158 131 201 51 273 51 c 0
 425 51 527 214 527 393 c 0
 527 479 503 573 417 573 c 0
 272 573 158 397 158 195 c 0
EndSplineSet
Substitution2: "Swash subtable" Q.swlong
EndChar
StartChar: Q.sw
Encoding: 1207 -1 429
Width: 771
Flags: MW
LayerCount: 2
Fore
SplineSet
471 691 m 0
 594 691 713 569 713 439 c 0
 713 261.3203125 606 129 458 41 c 0
 449.405273438 35.8896484375 446.627929688 34.162109375 454 29 c 0
 643.223632812 -103.49609375 861 -217 1011 -217 c 0
 1123 -217 1179 -174 1199 -174 c 0
 1206.03027344 -174 1209 -178 1209 -189 c 0
 1209 -240 1101 -273 1033 -273 c 0
 761 -273 614.149414062 -164.08984375 381 -24 c 0
 369 -16.7890625 363.692382812 -16.5517578125 353 -22 c 0
 271.02734375 -63.767578125 194 -92 66 -92 c 0
 24 -92 -20 -54 -20 -14 c 0
 -20 47 60 115 160 115 c 0
 248 115 309.341796875 99.6259765625 377 75 c 0
 388.276367188 70.8955078125 393.969726562 69.71875 403 76 c 0
 495 140 613 274 613 416 c 0
 613 518.66015625 578 633 464 633 c 0
 349 633 234 527.642578125 234 402 c 0
 234 298.456054688 273.826171875 273 334 273 c 0
 371.521484375 273 404 303 404 339 c 0
 404 354 394 365 379 365 c 0
 361 365 353 354 341 354 c 0
 325 354 314 368 314 383 c 0
 314 422 359 469 407 469 c 0
 450 469 482 426 482 382 c 0
 482 261 394 223 283 223 c 0
 199 223 129 289 129 371 c 0
 129 552 321 691 471 691 c 0
48 10 m 0
 48 -19 99.7470703125 -33 139 -33 c 0
 205.967773438 -33 309 -1 309 14 c 0
 309 29 211 62 148 62 c 0
 105 62 48 50 48 10 c 0
EndSplineSet
Substitution2: "c2sc subtable" Q.sc
EndChar
StartChar: Q.swlong
Encoding: 2096 -1 1821
Width: 830
Flags: MW
LayerCount: 2
Fore
SplineSet
530 691 m 4
 653 691 772 569 772 439 c 4
 772 261.32 665 129 517 41 c 4
 508.405 35.8892 505.628 34.1622 513 29 c 4
 702.224 -103.496 920 -217 1070 -217 c 4
 1182 -217 1238 -174 1258 -174 c 4
 1265.03 -174 1268 -178 1268 -189 c 4
 1268 -240 1160 -273 1092 -273 c 4
 820 -273 673.149 -164.09 440 -24 c 4
 428 -16.7895 422.692 -16.5521 412 -22 c 4
 330.027 -63.7671 253 -92 125 -92 c 4
 83 -92 39 -54 39 -14 c 4
 39 47 119 115 219 115 c 4
 307 115 368.342 99.6255 436 75 c 4
 447.276 70.8958 452.97 69.7188 462 76 c 4
 554 140 672 274 672 416 c 4
 672 518.66 637 633 523 633 c 4
 408 633 293 527.643 293 402 c 4
 293 298.456 332.826 273 393 273 c 4
 430.521 273 463 303 463 339 c 4
 463 354 453 365 438 365 c 4
 420 365 412 354 400 354 c 4
 384 354 373 368 373 383 c 4
 373 422 418 469 466 469 c 4
 509 469 541 426 541 382 c 4
 541 261 453 223 342 223 c 4
 258 223 188 289 188 371 c 4
 188 552 380 691 530 691 c 4
107 10 m 4
 107 -19 158.747 -33 198 -33 c 4
 264.968 -33 368 -1 368 14 c 4
 368 29 270 62 207 62 c 4
 164 62 107 50 107 10 c 4
EndSplineSet
Validated: 1
EndChar
StartChar: R.sw
Encoding: 1114159 -1 430
Width: 848
Flags: W
HStem: -269 52<1034.85 1205.18> -84 20G<1257.57 1289.53> -2 46<293.125 373.147 497.41 563.906> 287 38<551.694 603.449> 606 55<314.342 699.673>
VStem: 46 71<423.5 514.265> 756 97<403.907 550.089> 1241 92<-181.189 -81.9802>
LayerCount: 2
Fore
SplineSet
628 230 m 0
 613.795793337 272.699420524 590 287 560 287 c 0
 535 287 534.4921875 286.970703125 518 221 c 2
 495 129 l 2
 484.283203125 86.1318359375 495.447 53.208 518 45 c 0
 545.251 35.0811 566 30 566 15 c 0
 566 5 551 -2 535 -2 c 0
 523 -2 460 4 412 4 c 0
 365 4 338 -2 323 -2 c 0
 307 -2 290 5 290 15 c 0
 290 30 322.232 33.6729 345 44 c 0
 377.784 58.8721 389.675 88.2891 400 129 c 2
 503 543 l 2
 515.511 592.442 498 606 433 606 c 0
 330 606 117 554 117 491 c 0
 117 447 159 446 159 405 c 0
 159 392 135 368 116 368 c 0
 75.126 368 46 406 46 441 c 0
 46 618 350 661 542 661 c 0
 661 661 853 625 853 475 c 0
 853 393 774 329 710 314 c 0
 695.396484375 310.577148438 700.340820312 299.38671875 705 282 c 0
 711.470703125 257.8515625 888.629882812 -217 1116 -217 c 0
 1189.37402344 -217 1229.84277344 -198.520507812 1241 -126 c 0
 1243 -113 1244.13769531 -64 1271 -64 c 0
 1308.05664062 -64 1333 -101 1333 -136 c 0
 1333 -194 1265 -269 1097 -269 c 0
 877 -269 702.49317272 6.0652612519 628 230 c 0
647 600 m 0
 626 600 608.512695312 585.598632812 597 539 c 2
 555 369 l 2
 549.483398438 346.670898438 548 325 569 325 c 0
 661 325 756 366 756 470 c 0
 756 535 721 600 647 600 c 0
EndSplineSet
Validated: 33
Substitution2: "c2sc subtable" R.sc
EndChar
StartChar: S.sw
Encoding: 1114160 -1 431
Width: 497
Flags: W
HStem: -20 44<155.594 295.327> 590 40<306.18 430.404>
VStem: 53 47<88.6484 207.796> 172 88<431.168 532.955> 348 104<92.8612 205.927> 468 52<479.358 553.672>
LayerCount: 2
Fore
SplineSet
384 630 m 0
 445 630 469 612 503 606 c 8
 514 604 520 593 520 585 c 0
 520 537 506 472 488 472 c 0
 476 472 474 478 468 506 c 0
 457 554 424 590 374 590 c 0
 312 590 260 548 260 481 c 0
 260 453 293 414 323 376 c 2
 399 280 l 2
 428 243 452 197 452 173 c 0
 452 54 331 -20 211 -20 c 4
 148 -20 85 11 59 26 c 0
 48 32 39 40 39 57 c 0
 39 78 48 146 53 176 c 0
 56 193 63 208 75 208 c 0
 91 208 96 197 100 170 c 0
 111 90 138 24 227 24 c 0
 293 24 348 76 348 142 c 0
 348 178 333 202 299 239 c 2
 225 327 l 2
 190 369 172 401 172 456 c 0
 172 563 278 630 384 630 c 0
EndSplineSet
Validated: 1
Substitution2: "c2sc subtable" S.sc
EndChar
StartChar: T.sw
Encoding: 1114161 -1 432
Width: 594
Flags: W
HStem: -2 46<102.125 182.195 306.37 372.906> 545 44<129.937 301.89 410.51 574.39> 605 20G<630.5 643.5>
LayerCount: 2
Fore
SplineSet
395 495 m 2
 304 129 l 2
 293.142 85.3291 304.447 53.208 327 45 c 0
 354.251 35.0811 375 30 375 15 c 0
 375 5 360 -2 344 -2 c 0
 332 -2 269 4 221 4 c 0
 174 4 147 -2 132 -2 c 0
 116 -2 99 5 99 15 c 0
 99 30 131.232 33.6729 154 44 c 0
 186.784 58.8721 198.866 88.2412 209 129 c 2
 300 495 l 2
 305.791 518.291 308 545 256 545 c 2
 168 545 l 2
 127 545 75 491 64 491 c 0
 49 491 39 500 39 518 c 0
 39 530 54 556.431 78 598 c 0
 84 608.392 93 624 102 624 c 0
 120.506 624 142.665 589 185 589 c 2
 510 589 l 2
 568 589 623 625 638 625 c 0
 649 625 650 614 650 598 c 0
 650 583.062 640.538 540.51 630 504 c 0
 626.118 490.549 618 483 608 483 c 0
 587 483 584.34 545 534 545 c 2
 456 545 l 2
 427 545 401.774 522.168 395 495 c 2
EndSplineSet
Validated: 33
Substitution2: "c2sc subtable" T.sc
EndChar
StartChar: T_h
Encoding: 1114265 -1 961
Width: 938
Flags: W
HStem: -14 71<707.021 772.298> -2 46<102.125 182.195 306.37 372.906> 366 64<760.82 861.5> 545 44<129.937 301.89 410.51 584.672> 662 20G<670.5 689>
VStem: 486 58<-11.7812 68.4336> 834 80<196.611 359.939>
LayerCount: 2
Fore
SplineSet
534 545 m 2xbe
 456 545 l 2
 427 545 401.774 522.168 395 495 c 2
 304 129 l 2
 293.142 85.3291 304.447 53.208 327 45 c 0
 354.251 35.0811 375 30 375 15 c 0
 375 5 360 -2 344 -2 c 0
 332 -2 269 4 221 4 c 0
 174 4 147 -2 132 -2 c 0
 116 -2 99 5 99 15 c 0
 99 30 131.232 33.6729 154 44 c 0x7e
 186.784 58.8721 198.866 88.2412 209 129 c 2
 300 495 l 2
 305.791 518.291 308 545 256 545 c 2
 168 545 l 2
 127 545 75 491 64 491 c 0
 49 491 39 500 39 518 c 0
 39 530 54 556.431 78 598 c 0
 84 608.392 93 624 102 624 c 0
 120.506 624 142.665 589 185 589 c 2
 516 589 l 2
 593 589 663 682 678 682 c 0
 700 682 701 670 701 657 c 0
 701 635 695 609 686 572 c 2
 619 306 l 2
 616 294 617 270 630 290 c 0
 704 403 799 430 841 430 c 0
 882 430 914 386 914 340 c 0
 914 255 886 165 860 95 c 0
 851 72 763 -14 725 -14 c 0
 704 -14 683 -2 683 20 c 0
 683 32 712 72 727 72 c 0
 740 72 754 57 767 57 c 0
 773 57 782 62 786 75 c 0
 819 174 834 239 834 320 c 0
 834 344 817 366 794 366 c 0
 705 366 600 170 544 17 c 0
 541 8 531 -13 520 -14 c 0
 503 -16 487 5 486 11 c 0
 483 29 478 39 495 109 c 2
 588.042 482 l 2
 601.832 537.307 584.34 545 534 545 c 2xbe
EndSplineSet
Validated: 33
Ligature2: "'dlig' optionale Ligaturen lookup 50 subtable" T h
LCarets2: 1 0 
EndChar
StartChar: U.sw
Encoding: 1114162 -1 433
Width: 689
Flags: W
HStem: -20 51<243.658 407.071> 567 37<99.0204 158.988 293.589 361.983 528.03 592.566 697.245 764.976>
LayerCount: 2
Fore
SplineSet
550 567 m 0
 538.356 569.903 528 577 528 586 c 0
 528 598 548 604 563 604 c 0
 582 604 614 599 650 599 c 0
 685 599 696 604 730 604 c 0
 745 604 765 598 765 586 c 0
 765 577 756.627 569.706 747 567 c 0
 700.791 554.011 677.161 546.752 667 506 c 2
 608 270 l 2
 567.739 112.051 478 -20 294 -20 c 0
 175 -20 60 69 102 238 c 2
 166 495 l 2
 177 539 167 554 115 569 c 0
 106 571 99 577 99 586 c 0
 99 598 119 604 134 604 c 0
 173 604 209 599 245 599 c 0
 280 599 293 604 327 604 c 0
 342 604 362 598 362 586 c 0
 362 577 356 571 347 569 c 0
 290 553 273 544 261 495 c 2
 201 254 l 2
 163 105 224 31 322 31 c 0
 458 31 517.325 156.871 557 316 c 2
 604 505 l 2
 612.892 539.885 592.693 556.355 550 567 c 0
EndSplineSet
Validated: 33
Substitution2: "c2sc subtable" U.sc
EndChar
StartChar: V.01
Encoding: 2094 -1 1819
Width: 510
Flags: MW
LayerCount: 2
Fore
SplineSet
392 569 m 4
 383.243 571.511 376 577 376 586 c 4
 376 598 396 604 411 604 c 4
 450 604 462 599 498 599 c 4
 533 599 536 604 570 604 c 4
 585 604 605 598 605 586 c 4
 605 577 598.498 571.437 590 569 c 4
 508.293 545.571 478.806 500.164 389 357 c 6
 249 134 l 6
 224.692 94.9473 200.968 63.3308 181 31 c 4
 163.659 2.92323 140 -16 121 -16 c 260
 102 -16 94 -2 94 26 c 4
 94 38 92.4707 60.0059 92 78 c 6
 83 376 l 6
 78.7578 518.938 67.2092 556.011 21 569 c 4
 11.3731 571.706 5 577 5 586 c 4
 5 598 25 604 40 604 c 4
 79 604 115 599 151 599 c 4
 186 599 199 604 233 604 c 4
 248 604 268 598 268 586 c 4
 268 577 261.498 571.437 253 569 c 4
 193.402 551.91 174.656 526.965 177 448 c 6
 185 174 l 6
 186.068 138.016 209.068 139.746 230 175 c 6
 393 449 l 6
 440.48 528.966 438.515 555.662 392 569 c 4
EndSplineSet
Validated: 33
Substitution2: "Swash subtable" V.sw
EndChar
StartChar: V.sw
Encoding: 1114163 -1 434
Width: 740
Flags: W
HStem: -12 78<368.939 494.682> 519 73<199.536 364.395> 529 73<126.193 363.818> 604 20G<707.5 735.5>
VStem: 42 57<424.059 501.693> 228 98<116.09 289.962> 702 63<342.477 519.389>
LayerCount: 2
Fore
SplineSet
42 428 m 16xbe
 42 511 105.37890625 602 196 602 c 16xbe
 272 602 311.797851562 592 386 592 c 16
 419 592 418 604 431 604 c 0
 444 604 452 580 452 571 c 8
 452 554.198242188 442.882917236 540.829824531 436 531 c 0
 324.726171348 372.084503408 326 292 326 210 c 0
 326 111 375 66 422 66 c 0
 575 66 702 252.280273438 702 432 c 16
 702 513 654 549 654 569 c 0
 654 595 693 624 722 624 c 0
 749 624 765 548 765 510 c 8
 765 258.419921875 627 -12 386 -12 c 0
 292.59 -12 228 74.591796875 228 168 c 16
 228 296 282.838867188 357.309570312 361 490 c 0
 371.008789062 506.991210938 363 519 343 519 c 8xde
 279.700195312 519 228 529 181 529 c 8
 138.698242188 529 99 491 99 458 c 8
 99 425.161132812 150 415 150 391 c 8
 150 365.903320312 122 345 105 345 c 8
 64.361328125 345 42 387.361328125 42 428 c 16xbe
EndSplineSet
Validated: 33
Substitution2: "c2sc subtable" V.sc
EndChar
StartChar: W.01
Encoding: 2095 -1 1820
Width: 700
Flags: MW
LayerCount: 2
Fore
SplineSet
433 584 m 4
 433 596 440 602 455 602 c 4
 463 602 483 599 498 599 c 4
 513 599 537 602 557 602 c 4
 572 602 579 598 579 586 c 4
 579 577 572.498 571.437 564 569 c 4
 482.293 545.57 478.806 500.164 389 357 c 6
 370.517 327.559 l 5
 375 174 l 6
 376.068 138.016 399.067 139.746 420 175 c 6
 583 449 l 6
 641.712 547.883 614 552 614 581 c 4
 614 595 631 600 646 600 c 4
 655 600 677 599 688 599 c 4
 723 599 726 604 760 604 c 4
 775 604 795 598 795 586 c 4
 795 577 788.498 571.437 780 569 c 4
 698.293 545.57 668.807 500.164 579 357 c 6
 439 134 l 6
 414.691 94.9473 390.968 63.3311 371 31 c 4
 353.659 2.92285 330 -16 311 -16 c 4
 292 -16 284 -2 284 26 c 4
 284 38 282.471 60.0059 282 78 c 6
 278.872 181.581 l 5
 249 134 l 6
 224.692 94.9473 200.968 63.3308 181 31 c 4
 163.659 2.92323 140 -16 121 -16 c 4
 102 -16 94 -2 94 26 c 4
 94 38 92.4707 60.0059 92 78 c 6
 83 376 l 6
 78.7578 518.938 67.2092 556.011 21 569 c 4
 11.3731 571.706 5 577 5 586 c 4
 5 598 25 604 40 604 c 4
 79 604 73 599 109 599 c 4
 144 599 177 602 191 602 c 4
 206 602 215 598 215 586 c 4
 215 577 204.651 565.481 196 563 c 4
 175.813 557.212 174.656 526.965 177 448 c 6
 185 174 l 6
 186.068 138.016 209.068 139.746 230 175 c 6
 276.7 253.501 l 5
 273 376 l 6
 268.817 516.938 260.618 549.863 246 562 c 4
 238.306 568.388 232 575.977 232 586 c 4
 232 598.34 247.99 602 263 602 c 4
 273 602 307 599 324 599 c 4
 347 599 371 602 388 602 c 4
 403 602 411 598 411 586 c 4
 411 577 403.69 571.205 396 569 c 4
 368.123 561.007 364.656 526.965 367 448 c 6
 368.189 407.292 l 5
 393 449 l 6
 458.846 559.686 433 564 433 584 c 4
EndSplineSet
Validated: 33
Substitution2: "Swash subtable" W.sw
EndChar
StartChar: W.sw
Encoding: 1114164 -1 435
Width: 700
Flags: W
HStem: -16 21G<111.5 130.5 301.5 320.5> 569 33<5.01859 49.5854 183.651 214.97 376.449 410.977 525.205 578.979 738.806 794.981>
VStem: 83 94<208.25 535.762> 92 93<149.703 309.778> 276.7 93.8169<148.116 181.581 253.501 327.559 407.292 436.424>
LayerCount: 2
Fore
SplineSet
433 584 m 0xd8
 433 596 440 602 455 602 c 0
 463 602 483 599 498 599 c 0
 513 599 537 602 557 602 c 0
 572 602 579 598 579 586 c 0
 579 577 572.498 571.437 564 569 c 0
 482.293 545.57 478.806 500.164 389 357 c 2
 370.517 327.559 l 1
 375 174 l 2
 376.068 138.016 399.067 139.746 420 175 c 2
 583 449 l 2
 641.712 547.883 614 552 614 581 c 0
 614 595 631 600 646 600 c 0
 655 600 677 599 688 599 c 0
 723 599 726 604 760 604 c 0
 775 604 795 598 795 586 c 0
 795 577 788.498 571.437 780 569 c 0
 698.293 545.57 668.807 500.164 579 357 c 2
 439 134 l 2
 414.691 94.9473 390.968 63.3311 371 31 c 0
 353.659 2.92285 330 -16 311 -16 c 0
 292 -16 284 -2 284 26 c 0
 284 38 282.471 60.0059 282 78 c 2
 278.872 181.581 l 1
 249 134 l 2
 224.692 94.9473 200.968 63.3308 181 31 c 0
 163.659 2.92323 140 -16 121 -16 c 0
 102 -16 94 -2 94 26 c 0
 94 38 92.4707 60.0059 92 78 c 2xd8
 83 376 l 2
 78.7578 518.938 67.2092 556.011 21 569 c 0
 11.3731 571.706 5 577 5 586 c 0
 5 598 25 604 40 604 c 0
 79 604 73 599 109 599 c 0
 144 599 177 602 191 602 c 0
 206 602 215 598 215 586 c 0
 215 577 204.651 565.481 196 563 c 0
 175.813 557.212 174.656 526.965 177 448 c 2xe8
 185 174 l 2
 186.068 138.016 209.068 139.746 230 175 c 2
 276.7 253.501 l 1
 273 376 l 2
 268.817 516.938 260.618 549.863 246 562 c 0
 238.306 568.388 232 575.977 232 586 c 0
 232 598.34 247.99 602 263 602 c 0
 273 602 307 599 324 599 c 0
 347 599 371 602 388 602 c 0
 403 602 411 598 411 586 c 0
 411 577 403.69 571.205 396 569 c 0
 368.123 561.007 364.656 526.965 367 448 c 2
 368.189 407.292 l 1
 393 449 l 2
 458.846 559.686 433 564 433 584 c 0xd8
EndSplineSet
Validated: 33
Substitution2: "c2sc subtable" W.sc
EndChar
StartChar: X.sw
Encoding: 1114165 -1 436
Width: 616
Flags: W
HStem: -2 46<37.1047 137.313 243.343 297.438 346.319 424.192 558.235 637.884> 569 35<136.026 199.611 350.391 406.957 477.02 520.758 640.795 709.98>
LayerCount: 2
Fore
SplineSet
250 490 m 2
 232 532 209 555 162 567 c 0
 145 571 136 577 136 586 c 0
 136 598 156 604 171 604 c 0
 210 604 234 599 270 599 c 0
 305 599 338 604 372 604 c 0
 387 604 407 598 407 586 c 0
 407 577 392 571 384 569 c 0
 355 562 330 543 345 507 c 2
 402 374 l 1
 510 512 l 2
 525 532 536 557 493 569 c 0
 484 572 477 577 477 586 c 0
 477 598 497 604 512 604 c 0
 551 604 567 599 603 599 c 0
 638 599 641 604 675 604 c 0
 690 604 710 598 710 586 c 0
 710 577 703 571 695 569 c 0
 613 546 590 531 554 485 c 2
 425 321 l 1
 507 129 l 2
 525 87 569 53 592 45 c 0
 619 35 640 30 640 15 c 0
 640 5 625 -2 609 -2 c 0
 597 -2 534 4 486 4 c 0
 439 4 392 -2 377 -2 c 0
 361 -2 344 5 344 15 c 0
 344 30 372 38 396 44 c 0
 437 55 428 72 404 129 c 2
 358 237 l 1
 266 120 l 2
 242 90 234 53 257 45 c 0
 284 35 299 30 299 15 c 0
 299 5 284 -2 268 -2 c 0
 256 -2 204 4 156 4 c 0
 109 4 82 -2 67 -2 c 0
 51 -2 34 5 34 15 c 0
 34 30 66 34 89 44 c 0
 122 59 164 69 213 132 c 2
 336 289 l 1
 250 490 l 2
EndSplineSet
Validated: 33
Substitution2: "c2sc subtable" X.sc
EndChar
StartChar: Y.sw
Encoding: 1215 -1 437
Width: 516
Flags: MW
LayerCount: 2
Fore
SplineSet
238 260 m 2
 247.890625 300.572265625 264 365 262 425 c 0
 260 501 239 562 164 562 c 0
 118 562 41 516 36 516 c 0
 28 516 23 518 23 526 c 0
 23 561 122.3046875 623 192 623 c 0
 332 623 331 435 335 435 c 0
 339 435 467 623 607 623 c 0
 659.29296875 623 710 582.702148438 710 546 c 0
 710 539 699 535 694 535 c 0
 688 535 632 559 594 559 c 0
 461.491146083 559 363.5 379 334 261 c 2
 301 129 l 2
 290.0859375 85.3447265625 301.447265625 53.208984375 324 45 c 0
 351.250976562 35.0810546875 372 30 372 15 c 0
 372 5 357 -2 341 -2 c 0
 329 -2 266 4 218 4 c 0
 171 4 144 -2 129 -2 c 0
 113 -2 96 5 96 15 c 0
 96 30 128.232421875 33.6728515625 151 44 c 0
 183.784179688 58.8720703125 196.033203125 88.2001953125 206 129 c 2
 238 260 l 2
EndSplineSet
Substitution2: "c2sc subtable" Y.sc
EndChar
StartChar: Z.sw
Encoding: 1216 -1 438
Width: 528
Flags: MW
LayerCount: 2
Fore
SplineSet
161 84 m 0
 132 84 83 -17 62 -17 c 0
 41 -17 27 23 27 32 c 0
 27 41 44 62 53 72 c 2
 410 462 l 2
 423.511804152 476.745546736 418.352539062 484.08203125 400 489 c 0
 385.221679688 492.959960938 284 566 173 566 c 0
 143 566 123 541.416992188 123 513 c 0
 123 498 137 471 137 464 c 0
 137 446 127 430 110 430 c 0
 84 430 47 454 47 487 c 0
 47 569 165 633 247 633 c 0
 332 633 425 568 484 568 c 0
 491 568 503 568 509 574 c 0
 541 606 590 663 599 663 c 0
 609 663 633 648 633 639 c 0
 633 622 614.814301833 608.17136704 589 580 c 2
 219 176 l 26
 212.071289062 168.434570312 214 154 223 150 c 0
 349 96 506 -217 733 -217 c 0
 806 -217 831 -175 831 -102 c 0
 831 -89 834 -64 861 -64 c 0
 898 -64 923 -101 923 -136 c 0
 923 -194 835 -268 667 -268 c 0
 393 -268 233 84 161 84 c 0
EndSplineSet
Validated: 1
Substitution2: "c2sc subtable" Z.sc
EndChar
StartChar: a_s
Encoding: 1114138 -1 408
Width: 801
Flags: W
HStem: -14 72<77.1888 178.221> -14 58<573.977 664.938> 347 55<280.386 364.061> 365 65<672.017 749.549>
VStem: 14 95<24 125.298> 673 72<57.1476 156.356>
AnchorPoint: "cedilla" 649 8 basechar 0
AnchorPoint: "top_accent" 400 570 basechar 0
AnchorPoint: "ogonek" 401 18 basechar 0
LayerCount: 2
Fore
SplineSet
727 430 m 0x1c
 762.15 430 796 402 796 372 c 0
 796 360 780 336 765 336 c 0
 753 336 729 365 700 365 c 0
 676 365 666 336 666 311 c 0
 666 288 688.643 255.496 721 196 c 0
 738 165 745 148 745 123 c 0
 745 40 652 -14 583 -14 c 0
 543 -14 524 7 524 46 c 0
 524 62 539 76 557 76 c 0
 567 76 589 44 635 44 c 0
 659 44 673 67 673 91 c 0
 673 114 655.053 154.998 619 215 c 0
 613.335 224.429 606 221.196 603 216 c 8
 534.43 97.2305 397 -14 337 -14 c 0x5c
 279 -14 304 73 315 121 c 0
 317 131 311 131 307 125 c 0
 252 51 184 -14 86 -14 c 0
 45 -14 14 5 14 43 c 0
 14 188 255 402 345 402 c 0xac
 359 402 366 396 372 396 c 0
 379 396 385 403 397 430 c 0
 400 437 408 442 415 442 c 0
 456 442 466 423 462 407 c 2
 397 146 l 2
 385.872 101.366 388 74 399 74 c 0
 435 74 588.191 254.033 600 321 c 0
 604.688 347.59 642 430 727 430 c 0x1c
109 86 m 0
 109 72 114 58 127 58 c 0
 210 58 360 249 360 313 c 0
 360 326 344 347 321 347 c 0xac
 273 347 109 161 109 86 c 0
EndSplineSet
Validated: 33
Ligature2: "Ligature Substitution lookup 52 subtable" a s
LCarets2: 1 0 
EndChar
StartChar: acutecomb.cap
Encoding: 1219 -1 442
Width: 0
Flags: MW
AnchorPoint: "top_stack" 52 710 mark 0
AnchorPoint: "top_accent" 75 710 mark 0
LayerCount: 2
Fore
SplineSet
12 697 m 0
 8 697 6 700 6 703 c 0
 6 707 8 713 11 718 c 0
 35 758 78.462 803.462 112 837 c 0
 120.634 845.634 128 850 139 850 c 0
 153 850 197 831 197 817 c 0
 197 810 194.427 804.02 184 798 c 0
 138.534 771.75 84.3013 731 41 706 c 0
 30.6077 700 15 697 12 697 c 0
EndSplineSet
Validated: 1
Substitution2: "c2sc subtable" acutecomb.sc
EndChar
StartChar: acutecomb.sc
Encoding: 2098 -1 1824
Width: 0
Flags: MW
LayerCount: 2
Fore
SplineSet
41 481 m 0
 34 474 26 466 18 466 c 0
 13 466 10 470 10 474 c 0
 10 478 10 482 12 486 c 0
 25 513 62 599 79 630 c 0
 86 643 94 655 104 655 c 0
 114 655 151 633 151 618 c 0
 151 613 67 510 41 481 c 0
EndSplineSet
Validated: 1
EndChar
StartChar: c.sc
Encoding: 1848 -1 1572
Width: 511
Flags: MW
LayerCount: 2
Fore
SplineSet
311 470 m 0
 356 470 406.323 457.762 419 448 c 0
 454.083 420.983 471 407 471 392 c 0
 471 357.47 451 318 441 318 c 0
 424 318 424.016 335.01 401 371 c 0
 379.449 404.698 342 420 300 420 c 0
 206 420 150 323 150 227 c 0
 150 134 201 37 292 37 c 0
 335 37 379.728 75.1937 396 90 c 0
 413.751 106.152 431 144 442 144 c 0
 453.7 144 458 136 458 120 c 0
 458 84 453.096 43.321 424 30 c 0
 385.812 12.5162 331 -10 271 -10 c 0
 146 -10 48 96 48 219 c 0
 48 358 171 470 311 470 c 0
EndSplineSet
Validated: 1
EndChar
StartChar: c_t
Encoding: 1114136 -1 406
Width: 612
Flags: W
HStem: -14 76<385.547 468.117> -14 67<102.25 211.379> 354 56<382.814 445 531 650.056> 599 51<301.179 497.595> 614 45<234.816 485.926>
VStem: 36 88<63.3684 238.657> 158 56<461.455 592.897>
LayerCount: 2
Fore
SplineSet
563 565 m 2x36
 531 410 l 1
 634 410 l 2
 646 410 660 405 660 395 c 0
 660 383 635 354 614 354 c 2
 521 354 l 1
 448 79 l 2
 445 67 447 62 456 62 c 0
 492 62 523 110 538 110 c 0
 544 110 545 103 545 97 c 0
 545 62 465 -14 405 -14 c 0
 372 -14 363 5 363 27 c 0
 363 39 365 50 367 58 c 2
 445 354 l 1
 398 354 l 2
 386 354 375 358 375 368 c 0
 375 384 396 410 417 410 c 2
 455 410 l 1
 487 534 l 2
 494.010640114 561.108133931 498 563.4140625 498 583 c 16
 498 596.280273438 488 599 475 599 c 0xb6
 406 599 354 614 296 614 c 0
 248 614 214 588 214 540 c 0
 214 504 218.914494265 466.428333362 238 442 c 0
 257.70116721 416.783655885 299 416 299 382 c 0
 299 364 285 336 270 336 c 0
 260.4140625 336 252 361.5 226 361.5 c 0
 212 361.5 194 352 169 304 c 0
 143 254 124 187 124 130 c 0
 124 84 140 53 176 53 c 0
 221 53 268 131 278 131 c 0
 288 131 303 124 303 106 c 0
 303 81 224 -14 139 -14 c 0
 68 -14 36 58 36 126 c 0
 36 219.935503181 83 315 138 367 c 0
 179 407 202.756953924 420.006084686 195 434 c 0
 179.486092152 461.987830628 158 491 158 561 c 0
 158 620.08 229 659 299 659 c 0x6e
 345 659 422 650 479 650 c 0
 509 650 557 714 596 714 c 0
 617.22 714 633 701 633 682 c 0
 633 635 571.517066405 606.127358046 563 565 c 2x36
EndSplineSet
Validated: 524321
Ligature2: "'hlig' Historic Ligatures lookup 48 subtable" c t
LCarets2: 1 305 
EndChar
StartChar: dotbelowcomb.cap
Encoding: 1114182 -1 454
Width: 0
Flags: W
HStem: -197 110<16.8467 103.153>
VStem: 5 110<-185.153 -98.8467>
LayerCount: 2
Fore
SplineSet
60 -87 m 0
 90 -87 115 -112 115 -142 c 0
 115 -172 90 -197 60 -197 c 0
 30 -197 5 -172 5 -142 c 0
 5 -112 30 -87 60 -87 c 0
EndSplineSet
Validated: 1
Substitution2: "c2sc subtable" dotbelowcomb
EndChar
StartChar: eight.lnum
Encoding: 1446 -1 1161
Width: 418
Flags: MW
LayerCount: 2
Fore
SplineSet
358 358 m 0
 412 396 436 444 455 505 c 0
 471 556 452 606 405 606 c 0
 357 606 300 569 285 520 c 0
 261 443 298 418 346 361 c 0
 349 358 353 355 358 358 c 0
372 337 m 0
 427 288 465 248 440 167 c 0
 408 63 292 -14 201 -14 c 0
 115 -14 56 49 84 141 c 0
 111 229 202 274 258 302 c 0
 268 307 264 308 259 315 c 0
 219 366 182 415 208 500 c 0
 233 582 336 630 417 630 c 0
 491 630 549 579 524 498 c 0
 509 450 473 420 445 400 c 0
 422 384 410 375 383 358 c 0
 364 346 364 344 372 337 c 0
262 284 m 0
 211 249 183 221 163 157 c 0
 142 87 158 15 223 15 c 0
 278 15 335 67 353 126 c 0
 372 188 332 240 290 280 c 0
 284 286 281 290 275 290 c 0
 271 290 268 288 262 284 c 0
EndSplineSet
Validated: 33
Substitution2: "'tnum' Tabular Numbers lookup 44 subtable" eight.tablining
Substitution2: "'onum' Minuskelziffern lookup 43 subtable" eight
EndChar
StartChar: emdash.cap
Encoding: 2129 -1 1855
Width: 881
Flags: MW
LayerCount: 2
Fore
SplineSet
141 379 m 2
 897 379 l 2
 904 379 909 372 905 365 c 0
 894 346 883 325 864 325 c 2
 115 325 l 2
 108 325 104 331 106 337 c 0
 109 346 123 379 141 379 c 2
EndSplineSet
Validated: 1
EndChar
StartChar: endash.cap
Encoding: 2128 -1 1854
Width: 509
Flags: MW
LayerCount: 2
Fore
SplineSet
141 379 m 2
 525 379 l 2
 532 379 537 372 533 365 c 0
 522 346 511 325 492 325 c 2
 115 325 l 2
 108 325 104 331 106 337 c 0
 109 346 123 379 141 379 c 2
EndSplineSet
Validated: 1
EndChar
StartChar: f_a
Encoding: 1114128 -1 398
Width: 711
Flags: W
HStem: -267 59<-96.5 -12.8374> -14 76<291.03 392.221 543.5 614.117> 347 59<493.738 570.282> 353 53<41.9271 114.484 215.477 429.594> 542 21G<421 444.5> 648 47<305.591 390.253>
VStem: 228 95<24 123.477> 412 73<552.506 626.056>
LayerCount: 2
Fore
SplineSet
586 396 m 0xef
 593 396 599 403 611 430 c 0
 614 437 622 442 629 442 c 0
 670 442 680 423 676 407 c 2
 594 79 l 2
 591 67 593 62 602 62 c 0
 638 62 669 110 684 110 c 0
 690 110 691 103 691 97 c 0
 691 62 611 -14 551 -14 c 0
 493 -14 518 73 529 121 c 0
 531 131 525 131 521 125 c 0
 466 51 398 -14 300 -14 c 0
 259 -14 228 5 228 43 c 0
 228 138 332 263 429 338 c 0
 442 348 434 354 422 354 c 2
 215 351 l 2
 203 351 202 354 199 338 c 2
 110 -48 l 2
 91 -130 23 -267 -81 -267 c 0
 -112 -267 -154 -250 -154 -219 c 0
 -154 -189 -140 -159 -112 -159 c 0
 -98 -159 -66 -208 -41 -208 c 0
 -8 -208 7 -165 19 -109 c 2
 116 341 l 2
 118 351 115 353 104 353 c 2
 52 353 l 2
 42 353 36 354 36 364 c 0
 36 374 49 406 60 406 c 2
 116 406 l 2
 126 407 126 423 129 433 c 0
 181 613 306 695 373 695 c 0
 434 695 485 654 485 603 c 0
 485 561 458 542 431 542 c 0
 411 542 412 555 412 582 c 0
 412 608 382 648 349 648 c 0
 286 648 224 505 217 444 c 0
 216 437 211 406 227 406 c 2xdf
 547 406 l 2
 568 406 580 396 586 396 c 0xef
323 86 m 0
 323 72 328 58 341 58 c 0
 424 58 574 249 574 313 c 0
 574 326 558 347 535 347 c 0xef
 487 347 323 161 323 86 c 0
EndSplineSet
Validated: 33
Ligature2: "'dlig' optionale Ligaturen lookup 50 subtable" f a
EndChar
StartChar: f_e
Encoding: 1114125 -1 395
Width: 585
Flags: W
HStem: -267 59<-96.5 -13.0246> -12 67<328.5 446.854> 200 37<367.001 436.062> 370 42<18.8366 89> 373 47<197.368 349> 390 40<443.73 514.517> 542 21G<401 424.5> 648 47<285.591 370.253>
VStem: 258 88<73.8621 198.662> 392 73<552.506 626.056> 515 75<308.229 388.388>
LayerCount: 2
Fore
SplineSet
448 422 m 0xebe0
 463.001729744 426.990411274 479 430 494 430 c 0xe7e0
 560 430 590 400 590 353 c 0
 590 272 441 200 363 200 c 0
 353 200 346 171 346 150 c 0
 346 105 362 55 407 55 c 0
 453 55 499 102 508 102 c 0
 520 102 522 89 522 78 c 0
 522 50 439 -12 363 -12 c 0
 294 -12 258 63 258 133 c 0
 258 214 295 296 347 353 c 0
 362 369 361.03125 375.5078125 349 375 c 2
 195 373 l 2
 182.958007812 372.84375 181 368 179 352 c 0
 174 302 130 34 110 -48 c 0
 90 -129 23 -267 -81 -267 c 0
 -112 -267 -154 -250 -154 -219 c 0
 -154 -189 -140 -159 -112 -159 c 0
 -98 -159 -66 -208 -41 -208 c 0
 -8 -208 6 -165 19 -109 c 0
 36 -38 87 233 98 358 c 0
 99 368 100 373 89 373 c 2xebe0
 32 370 l 2
 22 369 16 371 16 381 c 0
 16 391 29 411 40 412 c 2xf3e0
 96 415 l 2
 106 416 106 417 109 427 c 0
 161 607 286 695 353 695 c 0
 414 695 465 654 465 603 c 0
 465 561 438 542 411 542 c 0
 391 542 392 555 392 582 c 0
 392 608 362 648 329 648 c 0
 266 648 204 499 197 438 c 0
 196 431 191 420 207 420 c 2
 371 420 l 2
 382 420 439.460115895 419.159158667 448 422 c 0xebe0
367 244 m 0
 367 240 369 237 373 237 c 0
 450 237 515 314 515 366 c 0
 515 384 496 390 479 390 c 0
 448 390 367 295 367 244 c 0
EndSplineSet
Validated: 33
Ligature2: "'dlig' optionale Ligaturen lookup 50 subtable" f e
EndChar
StartChar: f_f
Encoding: 1114120 -1 390
Width: 560
Flags: W
HStem: -267 59<-96.5 -11.9124> -240 56<112.137 200.976> 375 41<197.361 309.45> 391 39<409.828 534.665> 542 21G<613 636.5> 615 51<265.964 357.718> 648 47<497.144 582.253>
VStem: 604 73<552.506 626.056>
LayerCount: 2
Fore
SplineSet
301 379 m 2x69
 195 375 l 2
 183.008 374.548 180.588 369.921 178.999 354 c 0
 174.008 303.998 130 34 110 -48 c 0
 104.748 -69.2708 96.2548 -94.4723 84.7016 -120.073 c 1
 100.587 -127.786 134.715 -184 158 -184 c 0
 191 -184 217.67 -164.672 231 -109 c 0
 248 -38 298.889 239.495 310 364 c 0
 310.889 373.96 311.992 379.415 301 379 c 2x69
372.462 551.43 m 1
 369.086 588.996 349.653 615 309 615 c 0x2d
 247 615 204.143 494.714 197 434 c 0
 196 427 191.277 415.222 207 416 c 2
 308 421 l 2
 317.987 421.494 318.244 423.387 321 433 c 0
 334.103 478.694 351.981 518.088 372.462 551.43 c 1
431.872 626.331 m 1
 479.654 672.823 530.208 695 565 695 c 0
 626 695 677 654 677 603 c 0
 677 561 650 542 623 542 c 0
 603 542 604 555 604 582 c 0
 604 608 574 648 541 648 c 0
 477.753 648 416.143 504.714 409 444 c 0
 408 437 403.271 425.358 419 426 c 2
 523 430 l 2
 533.991 430.423 536 427 536 417 c 0
 536 407 524.988 391.516 513 391 c 2
 407 385 l 2
 395.019 384.33 392.588 379.921 390.999 364 c 0
 386.008 313.998 342 34 322 -48 c 0
 302 -129 228 -240 124 -240 c 0x5b
 100.274 -240 58.682 -219.03 40.4696 -195.29 c 1
 8.92108 -236.265 -31.9192 -267 -81 -267 c 0
 -112 -267 -154 -250 -154 -219 c 0
 -154 -189 -140 -159 -112 -159 c 0
 -98 -159 -66 -208 -41 -208 c 0x89
 -8 -208 5.66992 -164.672 19 -109 c 0
 36 -38 86.8887 229.495 98 354 c 0
 98.8887 363.96 99.9932 369.384 89 369 c 2
 32 366 l 2
 22.0156 365.475 16 367 16 377 c 0
 16 387 29.0225 407.29 40 408 c 2
 96 411 l 2
 105.985 411.541 106.244 413.387 109 423 c 0
 160.544 602.756 271 666 338 666 c 0
 382.151 666 416.349 652.903 431.872 626.331 c 1
EndSplineSet
Validated: 33
Substitution2: "Single Substitution lookup 60 subtable" f_f.short
Substitution2: "Single Substitution lookup 59 subtable" f_f.short
Ligature2: "liga_standard subtable" f.DEU f.DEU
Ligature2: "liga_standard subtable" f f
LCarets2: 1 199 
EndChar
StartChar: f_f_i
Encoding: 1114123 -1 393
Width: 645
Flags: W
HStem: -267 59<-96.5 -11.9124> -240 56<112.137 200.976> -14 76<498.779 582.117> 366 42<18.8412 97.4503> 379 47<409.329 551.405> 379 42<198.238 309.45> 542 21G<610 633.5> 615 51<265.964 357.718> 648 47<497.081 579.32>
VStem: 597 84<558.368 630.746>
LayerCount: 2
Fore
SplineSet
597 582 m 0x22c0
 597 608 574 648 541 648 c 0
 477.753 648 415.142578125 504.713867188 409 444 c 0
 408 437 403.26171875 425.688476562 419 426 c 2x2ac0
 621 430 l 2
 634.997070312 430.27734375 637 418 637 405 c 0
 637 383 630.600585938 357.088867188 622 320 c 2
 562 79 l 2
 559.096679688 67.3564453125 561 62 570 62 c 0
 606 62 637 110 652 110 c 0
 658 110 659 103 659 97 c 0
 659 62 579 -14 519 -14 c 0
 486 -14 475 5 475 27 c 0
 475 39 479 50 481 58 c 2
 543 306 l 2
 558.647460938 368.587890625 549.997070312 382.294921875 537 382 c 2
 407 379 l 2
 395.001953125 378.72265625 392.587890625 379.920898438 390.999023438 364 c 0
 386.0078125 313.998046875 342 34 322 -48 c 0
 302 -129 228 -240 124 -240 c 0x6640
 100.274414062 -240 58.681640625 -219.030273438 40.4697265625 -195.290039062 c 1
 8.9208984375 -236.264648438 -31.9189453125 -267 -81 -267 c 0
 -112 -267 -154 -250 -154 -219 c 0
 -154 -189 -140 -159 -112 -159 c 0
 -98 -159 -66 -208 -41 -208 c 0
 -8 -208 5.669921875 -164.671875 19 -109 c 0
 36 -38 86.888671875 229.495117188 98 354 c 0
 98.888671875 363.959960938 99.9931640625 369.383789062 89 369 c 2
 32 366 l 2
 22.015625 365.474609375 16 367 16 377 c 0
 16 387 29.0224609375 407.290039062 40 408 c 2
 96 411 l 2
 105.985351562 411.541015625 106.244140625 413.38671875 109 423 c 0
 160.543945312 602.755859375 271 666 338 666 c 0xb340
 382.151367188 666 416.348632812 652.903320312 431.872070312 626.331054688 c 1
 479.654296875 672.823242188 530.208007812 695 565 695 c 0
 626 695 681 661.05 681 603 c 0
 681 568 647 542 620 542 c 0
 600 542 597 558 597 582 c 0x22c0
301 379 m 2x6640
 195 375 l 2
 183.008 374.548 180.588 369.921 178.999 354 c 0
 174.008 303.998 130 34 110 -48 c 0
 104.748 -69.2708 96.2548 -94.4723 84.7016 -120.073 c 1
 100.587 -127.786 134.715 -184 158 -184 c 0
 191 -184 217.67 -164.672 231 -109 c 0
 248 -38 298.889 239.495 310 364 c 0
 310.889 373.96 311.992 379.415 301 379 c 2x6640
372.462 551.43 m 1
 369.086 588.996 349.653 615 309 615 c 0x2740
 247 615 204.143 494.714 197 434 c 0
 196 427 191.277 415.222 207 416 c 2
 308 421 l 2
 317.987 421.494 318.244 423.387 321 433 c 0
 334.103 478.694 351.981 518.088 372.462 551.43 c 1
EndSplineSet
Validated: 33
EndChar
